{
.appVersion = "3075";
copyright = "Copyright (c) 1998-2011 SIL International";
customParameters = (
{
name = hheaAscender;
value = 1662;
},
{
name = hheaDescender;
value = -648;
},
{
name = hheaLineGap;
value = 0;
},
{
name = preferredFamilyName;
value = "Dai Banna SIL Master";
},
{
name = preferredSubfamilyName;
value = Regular;
},
{
name = panose;
value = (
2,
0,
0,
0,
0,
0,
0,
0,
0,
0
);
},
{
name = fsType;
value = (
);
},
{
name = typoAscender;
value = 1662;
},
{
name = typoDescender;
value = -648;
},
{
name = typoLineGap;
value = 0;
},
{
name = unicodeRanges;
value = (
0,
1,
31,
45,
48,
68
);
},
{
name = strikeoutSize;
value = 102;
},
{
name = strikeoutPosition;
value = 530;
},
{
name = subscriptXSize;
value = 1433;
},
{
name = subscriptYSize;
value = 1331;
},
{
name = subscriptXOffset;
value = 0;
},
{
name = subscriptYOffset;
value = 286;
},
{
name = superscriptXSize;
value = 1433;
},
{
name = superscriptYSize;
value = 1331;
},
{
name = superscriptXOffset;
value = 0;
},
{
name = superscriptYOffset;
value = 976;
},
{
name = blueScale;
value = 0.03963;
},
{
name = blueShift;
value = 7;
},
{
name = isFixedPitch;
value = 0;
},
{
name = underlinePosition;
value = -123;
},
{
name = underlineThickness;
value = 20;
},
{
name = openTypeHeadFlags;
value = (
);
},
{
name = openTypeNameVersion;
value = "Version 2.200";
},
{
name = postscriptUniqueID;
value = -1;
},
{
name = postscriptBlueFuzz;
value = 1;
},
{
name = postscriptForceBold;
value = 0;
},
{
name = styleMapFamilyName;
value = "Dai Banna SIL Master";
},
{
name = styleMapStyleName;
value = regular;
},
{
name = codePageRanges;
value = (
1252
);
},
{
name = winAscent;
value = 1662;
},
{
name = winDescent;
value = 648;
},
{
name = weightClass;
value = 400;
},
{
name = widthClass;
value = 5;
},
{
name = "GASP Table";
value = {
"16" = 5;
"65535" = 15;
};
},
{
name = openTypeOS2SelectionUnsupportedBits;
value = (
);
},
{
name = glyphOrder;
value = (
.notdef,
NULL,
CR,
space,
dollar,
percent,
ampersand,
quotesingle,

glyphs = (
{
glyphname = .notdef;
lastChange = "2021-04-06 16:14:49 +0000";
layers = (
{
layerId = "67B138FD-4947-43F2-9353-3B08A6E9966B";
paths = (
{
closed = 1;
nodes = (
"896 0 LINE",
"896 1400 LINE",
"128 1400 LINE",
"128 0 LINE"
);
},
{
closed = 1;
nodes = (
"256 1272 LINE",
"768 1272 LINE",
"768 128 LINE",
"256 128 LINE"
);
}
);
width = 1024;
},
{
layerId = "65425FA6-FA16-4213-8FC2-6D5B41D5C5D9";
paths = (
{
closed = 1;
nodes = (
"896 0 LINE",
"896 1400 LINE",
"128 1400 LINE",
"128 0 LINE"
);
},
{
closed = 1;
nodes = (
"256 1272 LINE",
"768 1272 LINE",
"768 128 LINE",
"256 128 LINE"
);
}
);
width = 1024;
}
);
},
{
glyphname = dollar;
lastChange = "2021-04-06 16:12:05 +0000";
layers = (
{
background = {
paths = (
{
closed = 1;
nodes = (
"444 70 OFFCURVE",
"354 -2 OFFCURVE",
"258 -8 CURVE",
"258 -74 LINE",
"229 -74 LINE",
"229 -8 LINE",
"174 -5 OFFCURVE",
"107 13 OFFCURVE",
"63 35 CURVE",
"63 183 LINE",
"83 183 LINE",
"89 84 OFFCURVE",
"137 37 OFFCURVE",
"229 28 CURVE",
"229 333 LINE",
"123 410 OFFCURVE",
"63 457 OFFCURVE",
"63 561 CURVE SMOOTH",
"63 680 OFFCURVE",
"165 727 OFFCURVE",
"229 731 CURVE",
"229 779 LINE",
"258 779 LINE",
"258 731 LINE",
"283 730 OFFCURVE",
"306 725 OFFCURVE",
"323 721 CURVE",
"332 718 OFFCURVE",
"363 706 OFFCURVE",
"414 684 CURVE",
"414 527 LINE",
"395 527 LINE",
"388 625 OFFCURVE",
"352 685 OFFCURVE",
"258 695 CURVE",
"258 429 LINE",
"397 318 OFFCURVE",
"444 279 OFFCURVE",
"444 184 CURVE SMOOTH",
"444 184 LINE SMOOTH"
);
},
{
closed = 1;
nodes = (
"229 695 LINE",
"198 690 OFFCURVE",
"135 674 OFFCURVE",
"135 593 CURVE SMOOTH",
"135 520 OFFCURVE",
"194 475 OFFCURVE",
"229 452 CURVE",
"229 452 LINE"
);
},
{
closed = 1;
nodes = (
"369 221 OFFCURVE",
"329 255 OFFCURVE",
"258 311 CURVE",
"258 28 LINE",
"292 31 OFFCURVE",
"369 64 OFFCURVE",
"369 159 CURVE SMOOTH",
"369 159 LINE SMOOTH"
);
},
{
closed = 1;
nodes = (
"439 104 OFFCURVE",
"380 -8 OFFCURVE",
"243 -8 CURVE SMOOTH",
"181 -8 OFFCURVE",
"131 5 OFFCURVE",
"63 35 CURVE",
"63 183 LINE",
"82 183 LINE",
"93 62 OFFCURVE",
"163 26 OFFCURVE",
"242 26 CURVE SMOOTH",
"320 26 OFFCURVE",
"370 92 OFFCURVE",
"370 157 CURVE SMOOTH",
"370 208 OFFCURVE",
"335 265 OFFCURVE",
"210 361 CURVE SMOOTH",
"98 447 OFFCURVE",
"68 491 OFFCURVE",
"68 571 CURVE SMOOTH",
"68 646 OFFCURVE",
"133 731 OFFCURVE",
"244 731 CURVE SMOOTH",
"298 731 OFFCURVE",
"326 723 OFFCURVE",
"413 684 CURVE",
"413 528 LINE",
"395 528 LINE",
"386 657 OFFCURVE",
"318 696 OFFCURVE",
"243 696 CURVE SMOOTH",
"170 696 OFFCURVE",
"136 648 OFFCURVE",
"136 595 CURVE SMOOTH",
"136 537 OFFCURVE",
"152 490 OFFCURVE",
"282 396 CURVE SMOOTH",
"402 308 OFFCURVE",
"439 249 OFFCURVE",
"439 173 CURVE SMOOTH",
"439 173 LINE SMOOTH"
);
},
{
closed = 1;
nodes = (
"223 -73 LINE",
"223 779 LINE",
"264 779 LINE",
"264 -73 LINE"
);
},
{
closed = 1;
nodes = (
"439 104 OFFCURVE",
"380 -8 OFFCURVE",
"243 -8 CURVE SMOOTH",
"181 -8 OFFCURVE",
"131 5 OFFCURVE",
"63 35 CURVE",
"63 183 LINE",
"82 183 LINE",
"93 62 OFFCURVE",
"163 26 OFFCURVE",
"242 26 CURVE SMOOTH",
"320 26 OFFCURVE",
"370 92 OFFCURVE",
"370 157 CURVE SMOOTH",
"370 208 OFFCURVE",
"335 265 OFFCURVE",
"210 361 CURVE SMOOTH",
"98 447 OFFCURVE",
"68 491 OFFCURVE",
"68 571 CURVE SMOOTH",
"68 646 OFFCURVE",
"133 731 OFFCURVE",
"244 731 CURVE SMOOTH",
"298 731 OFFCURVE",
"326 723 OFFCURVE",
"413 684 CURVE",
"413 528 LINE",
"395 528 LINE",
"386 657 OFFCURVE",
"318 696 OFFCURVE",
"243 696 CURVE SMOOTH",
"170 696 OFFCURVE",
"136 648 OFFCURVE",
"136 595 CURVE SMOOTH",
"136 537 OFFCURVE",
"152 490 OFFCURVE",
"282 396 CURVE SMOOTH",
"402 308 OFFCURVE",
"439 249 OFFCURVE",
"439 173 CURVE SMOOTH",
"439 173 LINE SMOOTH"
);
},
{
closed = 1;
nodes = (
"223 -73 LINE",
"223 779 LINE",
"264 779 LINE",
"264 -73 LINE"
);
},
{
closed = 1;
nodes = (
"439 108 OFFCURVE",
"386 3 OFFCURVE",
"264 -7 CURVE",
"264 -73 LINE",
"223 -73 LINE",
"223 -8 LINE",
"170 -5 OFFCURVE",
"123 9 OFFCURVE",
"63 35 CURVE",
"63 183 LINE",
"82 183 LINE",
"92 72 OFFCURVE",
"152 33 OFFCURVE",
"223 27 CURVE",
"223 351 LINE",
"146 412 OFFCURVE",
"68 464 OFFCURVE",
"68 571 CURVE SMOOTH",
"68 641 OFFCURVE",
"125 720 OFFCURVE",
"223 730 CURVE",
"223 779 LINE",
"264 779 LINE",
"264 731 LINE",
"306 729 OFFCURVE",
"338 718 OFFCURVE",
"413 684 CURVE",
"413 528 LINE",
"395 528 LINE",
"387 645 OFFCURVE",
"331 688 OFFCURVE",
"264 695 CURVE",
"264 409 LINE",
"344 348 OFFCURVE",
"439 285 OFFCURVE",
"439 173 CURVE SMOOTH",
"439 173 LINE SMOOTH"
);
},
{
closed = 1;
nodes = (
"223 695 LINE",
"164 687 OFFCURVE",
"136 643 OFFCURVE",
"136 595 CURVE SMOOTH",
"136 547 OFFCURVE",
"147 507 OFFCURVE",
"223 442 CURVE",
"223 442 LINE"
);
},
{
closed = 1;
nodes = (
"370 200 OFFCURVE",
"346 247 OFFCURVE",
"264 317 CURVE",
"264 28 LINE",
"329 39 OFFCURVE",
"370 99 OFFCURVE",
"370 157 CURVE SMOOTH",
"370 157 LINE SMOOTH"
);
},
{
closed = 0;
nodes = (
"442 229 LINE",
"442 73 OFFCURVE",
"358 -8 OFFCURVE",
"242 -8 CURVE SMOOTH",
"159 -8 OFFCURVE",
"99 30 OFFCURVE",
"67 69 CURVE SMOOTH",
"60 78 OFFCURVE",
"62 83 OFFCURVE",
"78 103 CURVE SMOOTH",
"90 118 OFFCURVE",
"100 126 OFFCURVE",
"103 121 CURVE SMOOTH",
"124 78 OFFCURVE",
"179 31 OFFCURVE",
"227 31 CURVE SMOOTH",
"328 31 OFFCURVE",
"377 102 OFFCURVE",
"377 239 CURVE SMOOTH"
);
},
{
closed = 0;
nodes = (
"131 558 LINE",
"131 635 OFFCURVE",
"174 692 OFFCURVE",
"248 692 CURVE SMOOTH",
"297 692 OFFCURVE",
"335 667 OFFCURVE",
"359 616 CURVE SMOOTH",
"361 612 OFFCURVE",
"372 620 OFFCURVE",
"386 635 CURVE SMOOTH",
"394 644 OFFCURVE",
"403 654 OFFCURVE",
"400 659 CURVE SMOOTH",
"371 704 OFFCURVE",
"304 731 OFFCURVE",
"238 731 CURVE SMOOTH",
"124 731 OFFCURVE",
"73 658 OFFCURVE",
"73 569 CURVE SMOOTH"
);
},
{
closed = 1;
nodes = (
"434 67 OFFCURVE",
"358 -8 OFFCURVE",
"242 -8 CURVE SMOOTH",
"159 -8 OFFCURVE",
"99 30 OFFCURVE",
"67 69 CURVE SMOOTH",
"60 78 OFFCURVE",
"63 83 OFFCURVE",
"78 103 CURVE SMOOTH",
"90 118 OFFCURVE",
"100 126 OFFCURVE",
"103 121 CURVE SMOOTH",
"124 78 OFFCURVE",
"184 31 OFFCURVE",
"231 31 CURVE SMOOTH",
"333 31 OFFCURVE",
"370 99 OFFCURVE",
"370 157 CURVE SMOOTH",
"370 209 OFFCURVE",
"335 270 OFFCURVE",
"210 366 CURVE SMOOTH",
"98 452 OFFCURVE",
"72 493 OFFCURVE",
"72 573 CURVE SMOOTH",
"72 646 OFFCURVE",
"124 731 OFFCURVE",
"240 731 CURVE SMOOTH",
"323 731 OFFCURVE",
"369 698 OFFCURVE",
"400 659 CURVE SMOOTH",
"407 650 OFFCURVE",
"402 645 OFFCURVE",
"385 630 CURVE SMOOTH",
"368 614 OFFCURVE",
"358 613 OFFCURVE",
"355 619 CURVE SMOOTH",
"334 662 OFFCURVE",
"298 692 OFFCURVE",
"250 692 CURVE SMOOTH",
"164 692 OFFCURVE",
"136 644 OFFCURVE",
"136 595 CURVE SMOOTH",
"136 537 OFFCURVE",
"152 485 OFFCURVE",
"282 391 CURVE SMOOTH",
"402 303 OFFCURVE",
"434 249 OFFCURVE",
"434 173 CURVE SMOOTH",
"434 173 LINE SMOOTH"
);
},
{
closed = 1;
nodes = (
"271 -83 OFFCURVE",
"261 -83 OFFCURVE",
"243 -83 CURVE SMOOTH",
"225 -83 OFFCURVE",
"215 -83 OFFCURVE",
"215 -73 CURVE SMOOTH",
"220 354 LINE",
"215 779 LINE SMOOTH",
"215 788 OFFCURVE",
"225 789 OFFCURVE",
"243 789 CURVE SMOOTH",
"261 789 OFFCURVE",
"271 788 OFFCURVE",
"271 779 CURVE SMOOTH",
"266 354 LINE",
"271 -73 LINE"
);
},
{
closed = 1;
nodes = (
"434 67 OFFCURVE",
"358 -8 OFFCURVE",
"242 -8 CURVE SMOOTH",
"159 -8 OFFCURVE",
"99 30 OFFCURVE",
"67 69 CURVE SMOOTH",
"60 78 OFFCURVE",
"63 83 OFFCURVE",
"78 103 CURVE SMOOTH",
"90 118 OFFCURVE",
"100 126 OFFCURVE",
"103 121 CURVE SMOOTH",
"124 78 OFFCURVE",
"184 31 OFFCURVE",
"231 31 CURVE SMOOTH",
"333 31 OFFCURVE",
"370 99 OFFCURVE",
"370 157 CURVE SMOOTH",
"370 209 OFFCURVE",
"335 270 OFFCURVE",
"210 366 CURVE SMOOTH",
"98 452 OFFCURVE",
"72 493 OFFCURVE",
"72 573 CURVE SMOOTH",
"72 646 OFFCURVE",
"124 731 OFFCURVE",
"240 731 CURVE SMOOTH",
"323 731 OFFCURVE",
"369 698 OFFCURVE",
"400 659 CURVE SMOOTH",
"407 650 OFFCURVE",
"402 645 OFFCURVE",
"385 630 CURVE SMOOTH",
"368 614 OFFCURVE",
"358 613 OFFCURVE",
"355 619 CURVE SMOOTH",
"334 662 OFFCURVE",
"298 692 OFFCURVE",
"250 692 CURVE SMOOTH",
"164 692 OFFCURVE",
"136 644 OFFCURVE",
"136 595 CURVE SMOOTH",
"136 537 OFFCURVE",
"152 485 OFFCURVE",
"282 391 CURVE SMOOTH",
"402 303 OFFCURVE",
"434 249 OFFCURVE",
"434 173 CURVE SMOOTH",
"434 173 LINE SMOOTH"
);
},
{
closed = 1;
nodes = (
"271 -83 OFFCURVE",
"261 -83 OFFCURVE",
"243 -83 CURVE SMOOTH",
"225 -83 OFFCURVE",
"215 -83 OFFCURVE",
"215 -73 CURVE SMOOTH",
"215 32 OFFCURVE",
"220 257 OFFCURVE",
"220 354 CURVE SMOOTH",
"220 448 OFFCURVE",
"215 688 OFFCURVE",
"215 779 CURVE SMOOTH",
"215 788 OFFCURVE",
"225 789 OFFCURVE",
"243 789 CURVE SMOOTH",
"261 789 OFFCURVE",
"271 788 OFFCURVE",
"271 779 CURVE SMOOTH",
"271 688 OFFCURVE",
"266 447 OFFCURVE",
"266 354 CURVE SMOOTH",
"266 256 OFFCURVE",
"271 35 OFFCURVE",
"271 -73 CURVE SMOOTH",
"271 -73 LINE SMOOTH"
);
}
);
};
layerId = "67B138FD-4947-43F2-9353-3B08A6E9966B";
paths = (
{
closed = 1;
nodes = (
"534 -171 OFFCURVE",
"555 -169 OFFCURVE",
"555 -150 CURVE SMOOTH",
"555 -111 OFFCURVE",
"555 -65 OFFCURVE",
"554 -14 CURVE",
"759 9 OFFCURVE",
"889 156 OFFCURVE",
"889 354 CURVE SMOOTH",
"889 582 OFFCURVE",
"709 699 OFFCURVE",
"546 823 CURVE {name = hr01;}",
"547 985 OFFCURVE",
"551 1229 OFFCURVE",
"554 1413 CURVE",
"632 1399 OFFCURVE",
"691 1342 OFFCURVE",
"728 1267 CURVE SMOOTH",
"733 1256 OFFCURVE",
"753 1258 OFFCURVE",
"789 1291 CURVE SMOOTH",
"822 1322 OFFCURVE",
"835 1332 OFFCURVE",
"820 1350 CURVE SMOOTH",
"764 1420 OFFCURVE",
"686 1480 OFFCURVE",
"554 1495 CURVE",
"555 1534 OFFCURVE",
"555 1568 OFFCURVE",
"555 1595 CURVE SMOOTH",
"555 1614 OFFCURVE",
"535 1615 OFFCURVE",
"498 1615 CURVE SMOOTH",
"460 1615 OFFCURVE",
"441 1614 OFFCURVE",
"441 1595 CURVE SMOOTH",
"441 1568 OFFCURVE",
"441 1534 OFFCURVE",
"442 1495 CURVE",
"238 1473 OFFCURVE",
"148 1313 OFFCURVE",
"148 1174 CURVE SMOOTH",
"148 956 OFFCURVE",
"291 858 OFFCURVE",
"451 734 CURVE",
"451 511 OFFCURVE",
"446 289 OFFCURVE",
"443 67 CURVE",
"351 84 OFFCURVE",
"250 168 OFFCURVE",
"211 247 CURVE SMOOTH",
"206 258 OFFCURVE",
"183 242 OFFCURVE",
"159 210 CURVE SMOOTH",
"128 170 OFFCURVE",
"123 160 OFFCURVE",
"138 142 CURVE SMOOTH",
"196 71 OFFCURVE",
"299 0 OFFCURVE",
"442 -14 CURVE",
"441 -65 OFFCURVE",
"441 -112 OFFCURVE",
"441 -150 CURVE SMOOTH",
"441 -169 OFFCURVE",
"461 -171 OFFCURVE",
"498 -171 CURVE SMOOTH"
);
},
{
closed = 1;
nodes = (
"551 266 OFFCURVE",
"546 500 OFFCURVE",
"545 655 CURVE",
"709 510 OFFCURVE",
"757 409 OFFCURVE",
"757 321 CURVE SMOOTH",
"757 219 OFFCURVE",
"701 102 OFFCURVE",
"553 72 CURVE"
);
},
{
closed = 1;
nodes = (
"300 1035 OFFCURVE",
"278 1122 OFFCURVE",
"278 1218 CURVE SMOOTH",
"278 1304 OFFCURVE",
"320 1388 OFFCURVE",
"443 1411 CURVE",
"444 1255 OFFCURVE",
"448 1057 OFFCURVE",
"450 901 CURVE"
);
}
);
userData = {
com.adobe.type.autohint = "b''";
};
width = 998;
},
{
background = {
paths = (
{
closed = 1;
nodes = (
"439 104 OFFCURVE",
"380 -8 OFFCURVE",
"243 -8 CURVE SMOOTH",
"181 -8 OFFCURVE",
"131 5 OFFCURVE",
"63 35 CURVE",
"63 183 LINE",
"82 183 LINE",
"93 62 OFFCURVE",
"163 26 OFFCURVE",
"242 26 CURVE SMOOTH",
"320 26 OFFCURVE",
"370 92 OFFCURVE",
"370 157 CURVE SMOOTH",
"370 208 OFFCURVE",
"335 265 OFFCURVE",
"210 361 CURVE SMOOTH",
"98 447 OFFCURVE",
"68 491 OFFCURVE",
"68 571 CURVE SMOOTH",
"68 646 OFFCURVE",
"133 731 OFFCURVE",
"244 731 CURVE SMOOTH",
"298 731 OFFCURVE",
"326 723 OFFCURVE",
"413 684 CURVE",
"413 528 LINE",
"395 528 LINE",
"386 657 OFFCURVE",
"318 696 OFFCURVE",
"243 696 CURVE SMOOTH",
"170 696 OFFCURVE",
"136 648 OFFCURVE",
"136 595 CURVE SMOOTH",
"136 537 OFFCURVE",
"152 490 OFFCURVE",
"282 396 CURVE SMOOTH",
"402 308 OFFCURVE",
"439 249 OFFCURVE",
"439 173 CURVE SMOOTH",
"439 173 LINE SMOOTH"
);
},
{
closed = 1;
nodes = (
"223 -73 LINE",
"223 779 LINE",
"264 779 LINE",
"264 -73 LINE"
);
},
{
closed = 1;
nodes = (
"449 83 OFFCURVE",
"372 -8 OFFCURVE",
"243 -8 CURVE SMOOTH",
"181 -8 OFFCURVE",
"126 5 OFFCURVE",
"58 35 CURVE",
"58 183 LINE",
"86 183 LINE",
"98 62 OFFCURVE",
"163 21 OFFCURVE",
"242 21 CURVE SMOOTH",
"320 21 OFFCURVE",
"370 91 OFFCURVE",
"370 147 CURVE SMOOTH",
"370 186 OFFCURVE",
"335 235 OFFCURVE",
"210 332 CURVE SMOOTH",
"98 418 OFFCURVE",
"58 455 OFFCURVE",
"58 551 CURVE SMOOTH",
"58 671 OFFCURVE",
"147 731 OFFCURVE",
"244 731 CURVE SMOOTH",
"298 731 OFFCURVE",
"331 723 OFFCURVE",
"418 684 CURVE",
"418 528 LINE",
"390 528 LINE",
"381 657 OFFCURVE",
"318 701 OFFCURVE",
"243 701 CURVE SMOOTH",
"173 701 OFFCURVE",
"136 649 OFFCURVE",
"136 604 CURVE SMOOTH",
"136 563 OFFCURVE",
"152 520 OFFCURVE",
"282 425 CURVE SMOOTH",
"402 337 OFFCURVE",
"449 286 OFFCURVE",
"449 192 CURVE SMOOTH",
"449 192 LINE SMOOTH"
);
},
{
closed = 1;
nodes = (
"214 -73 LINE",
"214 779 LINE",
"272 779 LINE",
"272 -73 LINE"
);
},
{
closed = 1;
nodes = (
"449 92 OFFCURVE",
"383 6 OFFCURVE",
"272 -7 CURVE",
"272 -73 LINE",
"214 -73 LINE",
"214 -7 LINE",
"163 -4 OFFCURVE",
"115 10 OFFCURVE",
"58 35 CURVE",
"58 183 LINE",
"86 183 LINE",
"96 77 OFFCURVE",
"148 32 OFFCURVE",
"214 23 CURVE",
"214 329 LINE",
"132 392 OFFCURVE",
"58 438 OFFCURVE",
"58 551 CURVE SMOOTH",
"58 659 OFFCURVE",
"130 718 OFFCURVE",
"214 730 CURVE",
"214 779 LINE",
"272 779 LINE",
"272 730 LINE",
"312 727 OFFCURVE",
"347 716 OFFCURVE",
"418 684 CURVE",
"418 528 LINE",
"390 528 LINE",
"382 640 OFFCURVE",
"334 688 OFFCURVE",
"272 699 CURVE",
"272 432 LINE",
"357 370 OFFCURVE",
"449 309 OFFCURVE",
"449 192 CURVE SMOOTH",
"449 192 LINE SMOOTH"
);
},
{
closed = 1;
nodes = (
"214 698 LINE",
"163 686 OFFCURVE",
"136 643 OFFCURVE",
"136 604 CURVE SMOOTH",
"136 572 OFFCURVE",
"146 538 OFFCURVE",
"214 478 CURVE",
"214 478 LINE"
);
},
{
closed = 1;
nodes = (
"370 179 OFFCURVE",
"347 217 OFFCURVE",
"272 281 CURVE",
"272 25 LINE",
"333 40 OFFCURVE",
"370 98 OFFCURVE",
"370 147 CURVE SMOOTH",
"370 147 LINE SMOOTH"
);
},
{
closed = 0;
nodes = (
"442 219 LINE",
"442 96 OFFCURVE",
"373 -8 OFFCURVE",
"232 -8 CURVE SMOOTH",
"138 -8 OFFCURVE",
"80 42 OFFCURVE",
"59 79 CURVE SMOOTH",
"51 93 OFFCURVE",
"58 105 OFFCURVE",
"91 124 CURVE SMOOTH",
"136 150 OFFCURVE",
"155 150 OFFCURVE",
"158 144 CURVE SMOOTH",
"171 117 OFFCURVE",
"174 21 OFFCURVE",
"227 21 CURVE SMOOTH",
"283 21 OFFCURVE",
"314 114 OFFCURVE",
"314 220 CURVE SMOOTH"
);
},
{
closed = 1;
nodes = (
"448 63 OFFCURVE",
"358 -8 OFFCURVE",
"242 -8 CURVE SMOOTH",
"159 -8 OFFCURVE",
"99 30 OFFCURVE",
"67 69 CURVE SMOOTH",
"60 78 OFFCURVE",
"63 83 OFFCURVE",
"78 103 CURVE SMOOTH",
"90 118 OFFCURVE",
"100 126 OFFCURVE",
"103 121 CURVE SMOOTH",
"124 78 OFFCURVE",
"184 21 OFFCURVE",
"231 21 CURVE SMOOTH",
"333 21 OFFCURVE",
"370 95 OFFCURVE",
"370 137 CURVE SMOOTH",
"370 200 OFFCURVE",
"335 230 OFFCURVE",
"210 327 CURVE SMOOTH",
"98 413 OFFCURVE",
"59 453 OFFCURVE",
"59 559 CURVE SMOOTH",
"59 649 OFFCURVE",
"124 731 OFFCURVE",
"240 731 CURVE SMOOTH",
"323 731 OFFCURVE",
"369 698 OFFCURVE",
"400 659 CURVE SMOOTH",
"407 650 OFFCURVE",
"402 645 OFFCURVE",
"385 630 CURVE SMOOTH",
"368 614 OFFCURVE",
"358 613 OFFCURVE",
"355 619 CURVE SMOOTH",
"334 662 OFFCURVE",
"298 702 OFFCURVE",
"250 702 CURVE SMOOTH",
"164 702 OFFCURVE",
"136 652 OFFCURVE",
"136 609 CURVE SMOOTH",
"136 543 OFFCURVE",
"152 524 OFFCURVE",
"282 430 CURVE SMOOTH",
"402 342 OFFCURVE",
"448 292 OFFCURVE",
"448 190 CURVE SMOOTH",
"448 190 LINE SMOOTH"
);
},
{
closed = 0;
nodes = (
"200 558 LINE",
"200 635 OFFCURVE",
"210 703 OFFCURVE",
"262 703 CURVE SMOOTH",
"326 703 OFFCURVE",
"318 609 OFFCURVE",
"328 593 CURVE SMOOTH",
"336 579 OFFCURVE",
"349 576 OFFCURVE",
"399 612 CURVE SMOOTH",
"423 629 OFFCURVE",
"427 637 OFFCURVE",
"419 652 CURVE SMOOTH",
"395 699 OFFCURVE",
"317 731 OFFCURVE",
"252 731 CURVE SMOOTH",
"133 731 OFFCURVE",
"77 658 OFFCURVE",
"77 569 CURVE SMOOTH"
);
},
{
closed = 1;
nodes = (
"402 342 OFFCURVE",
"458 292 OFFCURVE",
"458 190 CURVE SMOOTH",
"458 68 OFFCURVE",
"378 -8 OFFCURVE",
"237 -8 CURVE SMOOTH",
"143 -8 OFFCURVE",
"70 42 OFFCURVE",
"49 79 CURVE SMOOTH",
"41 93 OFFCURVE",
"48 105 OFFCURVE",
"81 124 CURVE SMOOTH",
"126 150 OFFCURVE",
"145 150 OFFCURVE",
"148 144 CURVE SMOOTH",
"161 117 OFFCURVE",
"168 21 OFFCURVE",
"236 21 CURVE SMOOTH",
"327 21 OFFCURVE",
"379 85 OFFCURVE",
"379 137 CURVE SMOOTH",
"379 200 OFFCURVE",
"335 230 OFFCURVE",
"210 327 CURVE SMOOTH",
"98 413 OFFCURVE",
"49 453 OFFCURVE",
"49 559 CURVE",
"49 647 OFFCURVE",
"123 731 OFFCURVE",
"242 731 CURVE SMOOTH",
"324 731 OFFCURVE",
"409 699 OFFCURVE",
"434 652 CURVE SMOOTH",
"442 637 OFFCURVE",
"438 629 OFFCURVE",
"414 612 CURVE SMOOTH",
"364 576 OFFCURVE",
"351 579 OFFCURVE",
"342 593 CURVE SMOOTH",
"333 609 OFFCURVE",
"316 703 OFFCURVE",
"252 703 CURVE SMOOTH",
"189 703 OFFCURVE",
"126 667 OFFCURVE",
"126 609 CURVE",
"126 543 OFFCURVE",
"152 524 OFFCURVE",
"282 430 CURVE SMOOTH",
"282 430 LINE SMOOTH"
);
},
{
closed = 1;
nodes = (
"281 -83 OFFCURVE",
"261 -83 OFFCURVE",
"243 -83 CURVE SMOOTH",
"225 -83 OFFCURVE",
"206 -83 OFFCURVE",
"206 -73 CURVE SMOOTH",
"206 27 OFFCURVE",
"210 254 OFFCURVE",
"210 354 CURVE SMOOTH",
"210 462 OFFCURVE",
"206 692 OFFCURVE",
"206 779 CURVE SMOOTH",
"206 788 OFFCURVE",
"225 789 OFFCURVE",
"243 789 CURVE SMOOTH",
"261 789 OFFCURVE",
"281 788 OFFCURVE",
"281 779 CURVE SMOOTH",
"281 692 OFFCURVE",
"276 459 OFFCURVE",
"276 354 CURVE SMOOTH",
"276 257 OFFCURVE",
"281 28 OFFCURVE",
"281 -73 CURVE SMOOTH",
"281 -73 LINE SMOOTH"
);
}
);
};
layerId = "65425FA6-FA16-4213-8FC2-6D5B41D5C5D9";
paths = (
{
closed = 1;
nodes = (
"534 -171 OFFCURVE",
"575 -169 OFFCURVE",
"575 -150 CURVE SMOOTH",
"575 -112 OFFCURVE",
"575 -65 OFFCURVE",
"574 -12 CURVE",
"807 17 OFFCURVE",
"938 165 OFFCURVE",
"938 390 CURVE SMOOTH",
"938 635 OFFCURVE",
"744 758 OFFCURVE",
"566 888 CURVE {name = hr03;}",
"568 1054 OFFCURVE",
"572 1265 OFFCURVE",
"574 1425 CURVE",
"659 1380 OFFCURVE",
"684 1242 OFFCURVE",
"701 1215 CURVE SMOOTH",
"719 1186 OFFCURVE",
"746 1180 OFFCURVE",
"848 1253 CURVE SMOOTH",
"897 1288 OFFCURVE",
"905 1305 OFFCURVE",
"889 1335 CURVE SMOOTH",
"846 1416 OFFCURVE",
"714 1476 OFFCURVE",
"574 1493 CURVE",
"574 1533 OFFCURVE",
"575 1568 OFFCURVE",
"575 1595 CURVE SMOOTH",
"575 1614 OFFCURVE",
"535 1615 OFFCURVE",
"498 1615 CURVE SMOOTH",
"460 1615 OFFCURVE",
"421 1614 OFFCURVE",
"421 1595 CURVE SMOOTH {name = hr02;}",
"421 1567 OFFCURVE",
"422 1532 OFFCURVE",
"422 1492 CURVE",
"222 1461 OFFCURVE",
"100 1306 OFFCURVE",
"100 1144 CURVE SMOOTH",
"100 902 OFFCURVE",
"256 804 OFFCURVE",
"430 669 CURVE",
"429 509 OFFCURVE",
"426 259 OFFCURVE",
"423 59 CURVE {name = hr01;}",
"340 107 OFFCURVE",
"325 249 OFFCURVE",
"303 295 CURVE SMOOTH",
"298 306 OFFCURVE",
"259 308 OFFCURVE",
"166 254 CURVE SMOOTH",
"99 215 OFFCURVE",
"84 191 OFFCURVE",
"101 161 CURVE SMOOTH",
"139 94 OFFCURVE",
"260 6 OFFCURVE",
"422 -13 CURVE",
"421 -65 OFFCURVE",
"421 -112 OFFCURVE",
"421 -150 CURVE SMOOTH",
"421 -169 OFFCURVE",
"461 -171 OFFCURVE",
"498 -171 CURVE SMOOTH"
);
},
{
closed = 1;
nodes = (
"566 565 LINE",
"720 444 OFFCURVE",
"777 384 OFFCURVE",
"777 281 CURVE SMOOTH",
"777 193 OFFCURVE",
"703 88 OFFCURVE",
"573 54 CURVE {name = hr04;}"
);
},
{
closed = 1;
nodes = (
"290 1097 OFFCURVE",
"258 1143 OFFCURVE",
"258 1248 CURVE SMOOTH",
"258 1336 OFFCURVE",
"331 1400 OFFCURVE",
"422 1426 CURVE",
"424 1297 OFFCURVE",
"427 1136 OFFCURVE",
"429 990 CURVE"
);
}
);
userData = {
com.adobe.type.autohint = "b''";
};
width = 998;
}
);
unicode = 0024;
},
{
glyphname = percent;
lastChange = "2021-04-06 16:12:05 +0000";
layers = (
{
background = {
paths = (
{
closed = 1;
nodes = (
"191 -8 LINE",
"130 -8 LINE",
"496 731 LINE",
"554 731 LINE"
);
},
{
closed = 1;
nodes = (
"330 483 OFFCURVE",
"284 397 OFFCURVE",
"189 397 CURVE SMOOTH",
"93 397 OFFCURVE",
"49 487 OFFCURVE",
"49 564 CURVE SMOOTH",
"49 636 OFFCURVE",
"101 731 OFFCURVE",
"189 731 CURVE SMOOTH",
"290 731 OFFCURVE",
"330 639 OFFCURVE",
"330 564 CURVE SMOOTH",
"330 564 LINE SMOOTH"
);
},
{
closed = 1;
nodes = (
"147 692 OFFCURVE",
"115 631 OFFCURVE",
"115 564 CURVE SMOOTH",
"115 485 OFFCURVE",
"146 437 OFFCURVE",
"189 437 CURVE SMOOTH",
"241 437 OFFCURVE",
"265 488 OFFCURVE",
"265 564 CURVE SMOOTH",
"265 640 OFFCURVE",
"230 692 OFFCURVE",
"189 692 CURVE SMOOTH",
"189 692 LINE SMOOTH"
);
},
{
closed = 1;
nodes = (
"628 78 OFFCURVE",
"582 -8 OFFCURVE",
"487 -8 CURVE SMOOTH",
"391 -8 OFFCURVE",
"347 82 OFFCURVE",
"347 159 CURVE SMOOTH",
"347 231 OFFCURVE",
"399 326 OFFCURVE",
"487 326 CURVE SMOOTH",
"588 326 OFFCURVE",
"628 234 OFFCURVE",
"628 159 CURVE SMOOTH",
"628 159 LINE SMOOTH"
);
},
{
closed = 1;
nodes = (
"445 287 OFFCURVE",
"413 226 OFFCURVE",
"413 159 CURVE SMOOTH",
"413 80 OFFCURVE",
"444 31 OFFCURVE",
"487 31 CURVE SMOOTH",
"539 31 OFFCURVE",
"563 83 OFFCURVE",
"563 159 CURVE SMOOTH",
"563 235 OFFCURVE",
"528 287 OFFCURVE",
"487 287 CURVE SMOOTH",
"487 287 LINE SMOOTH"
);
},
{
closed = 1;
nodes = (
"330 645 OFFCURVE",
"284 731 OFFCURVE",
"189 731 CURVE SMOOTH",
"93 731 OFFCURVE",
"49 641 OFFCURVE",
"49 564 CURVE SMOOTH",
"49 492 OFFCURVE",
"101 397 OFFCURVE",
"189 397 CURVE SMOOTH",
"290 397 OFFCURVE",
"330 489 OFFCURVE",
"330 564 CURVE SMOOTH",
"330 564 LINE SMOOTH"
);
},
{
closed = 1;
nodes = (
"147 437 OFFCURVE",
"115 498 OFFCURVE",
"115 564 CURVE SMOOTH",
"115 643 OFFCURVE",
"146 692 OFFCURVE",
"189 692 CURVE SMOOTH",
"241 692 OFFCURVE",
"265 640 OFFCURVE",
"265 564 CURVE SMOOTH",
"265 488 OFFCURVE",
"230 437 OFFCURVE",
"189 437 CURVE SMOOTH",
"189 437 LINE SMOOTH"
);
}
);
};
layerId = "67B138FD-4947-43F2-9353-3B08A6E9966B";
paths = (
{
closed = 1;
nodes = (
"383 -17 OFFCURVE",
"393 -16 OFFCURVE",
"402 3 CURVE SMOOTH",
"1124 1478 LINE SMOOTH",
"1133 1496 OFFCURVE",
"1120 1498 OFFCURVE",
"1071 1498 CURVE SMOOTH",
"1025 1498 OFFCURVE",
"1014 1497 OFFCURVE",
"1005 1478 CURVE SMOOTH",
"278 3 LINE SMOOTH",
"269 -16 OFFCURVE",
"275 -17 OFFCURVE",
"330 -17 CURVE SMOOTH"
);
},
{
closed = 1;
nodes = (
"1192 -17 OFFCURVE",
"1286 160 OFFCURVE",
"1286 325 CURVE SMOOTH",
"1286 479 OFFCURVE",
"1206 668 OFFCURVE",
"998 668 CURVE SMOOTH",
"801 668 OFFCURVE",
"710 473 OFFCURVE",
"710 325 CURVE SMOOTH",
"710 168 OFFCURVE",
"801 -17 OFFCURVE",
"998 -17 CURVE SMOOTH"
);
},
{
closed = 1;
nodes = (
"909 64 OFFCURVE",
"845 164 OFFCURVE",
"845 325 CURVE SMOOTH",
"845 462 OFFCURVE",
"897 587 OFFCURVE",
"998 587 CURVE SMOOTH",
"1097 587 OFFCURVE",
"1153 481 OFFCURVE",
"1153 325 CURVE SMOOTH",
"1153 170 OFFCURVE",
"1103 64 OFFCURVE",
"998 64 CURVE SMOOTH"
);
},
{
closed = 1;
nodes = (
"582 813 OFFCURVE",
"676 990 OFFCURVE",
"676 1155 CURVE SMOOTH",
"676 1309 OFFCURVE",
"596 1498 OFFCURVE",
"388 1498 CURVE SMOOTH",
"191 1498 OFFCURVE",
"100 1303 OFFCURVE",
"100 1155 CURVE SMOOTH",
"100 998 OFFCURVE",
"191 813 OFFCURVE",
"388 813 CURVE SMOOTH"
);
},
{
closed = 1;
nodes = (
"299 894 OFFCURVE",
"235 994 OFFCURVE",
"235 1155 CURVE SMOOTH",
"235 1292 OFFCURVE",
"287 1417 OFFCURVE",
"388 1417 CURVE SMOOTH",
"487 1417 OFFCURVE",
"543 1311 OFFCURVE",
"543 1155 CURVE SMOOTH",
"543 1000 OFFCURVE",
"493 894 OFFCURVE",
"388 894 CURVE SMOOTH"
);
}
);
userData = {
com.adobe.type.autohint = "b''";
};
width = 1386;
},
{
background = {
paths = (
{
closed = 1;
nodes = (
"350 483 OFFCURVE",
"294 397 OFFCURVE",
"199 397 CURVE SMOOTH",
"103 397 OFFCURVE",
"49 487 OFFCURVE",
"49 564 CURVE SMOOTH",
"49 636 OFFCURVE",
"111 731 OFFCURVE",
"199 731 CURVE SMOOTH",
"300 731 OFFCURVE",
"350 639 OFFCURVE",
"350 564 CURVE SMOOTH",
"350 564 LINE SMOOTH"
);
},
{
closed = 1;
nodes = (
"220 -8 LINE",
"140 -8 LINE",
"505 731 LINE",
"583 731 LINE"
);
},
{
closed = 1;
nodes = (
"667 78 OFFCURVE",
"611 -8 OFFCURVE",
"517 -8 CURVE SMOOTH",
"420 -8 OFFCURVE",
"366 82 OFFCURVE",
"366 159 CURVE SMOOTH",
"366 231 OFFCURVE",
"428 326 OFFCURVE",
"517 326 CURVE SMOOTH",
"617 326 OFFCURVE",
"667 234 OFFCURVE",
"667 159 CURVE SMOOTH",
"667 159 LINE SMOOTH"
);
},
{
closed = 1;
nodes = (
"246 640 OFFCURVE",
"233 702 OFFCURVE",
"199 702 CURVE SMOOTH",
"163 702 OFFCURVE",
"154 631 OFFCURVE",
"154 564 CURVE SMOOTH",
"154 485 OFFCURVE",
"163 427 OFFCURVE",
"199 427 CURVE SMOOTH",
"242 427 OFFCURVE",
"246 488 OFFCURVE",
"246 564 CURVE SMOOTH",
"246 564 LINE SMOOTH"
);
},
{
closed = 1;
nodes = (
"563 235 OFFCURVE",
"553 296 OFFCURVE",
"517 296 CURVE SMOOTH",
"481 296 OFFCURVE",
"471 226 OFFCURVE",
"471 159 CURVE SMOOTH",
"471 80 OFFCURVE",
"481 21 OFFCURVE",
"517 21 CURVE SMOOTH",
"561 21 OFFCURVE",
"563 83 OFFCURVE",
"563 159 CURVE SMOOTH",
"563 159 LINE SMOOTH"
);
},
{
closed = 1;
nodes = (
"350 645 OFFCURVE",
"294 731 OFFCURVE",
"199 731 CURVE SMOOTH",
"103 731 OFFCURVE",
"49 641 OFFCURVE",
"49 564 CURVE SMOOTH",
"49 492 OFFCURVE",
"111 397 OFFCURVE",
"199 397 CURVE SMOOTH",
"300 397 OFFCURVE",
"350 489 OFFCURVE",
"350 564 CURVE SMOOTH",
"350 564 LINE SMOOTH"
);
},
{
closed = 1;
nodes = (
"246 488 OFFCURVE",
"233 427 OFFCURVE",
"199 427 CURVE SMOOTH",
"163 427 OFFCURVE",
"154 498 OFFCURVE",
"154 564 CURVE SMOOTH",
"154 643 OFFCURVE",
"163 702 OFFCURVE",
"199 702 CURVE SMOOTH",
"242 702 OFFCURVE",
"246 640 OFFCURVE",
"246 564 CURVE SMOOTH",
"246 564 LINE SMOOTH"
);
}
);
};
layerId = "65425FA6-FA16-4213-8FC2-6D5B41D5C5D9";
paths = (
{
closed = 1;
nodes = (
"442 -17 OFFCURVE",
"452 -15 OFFCURVE",
"461 3 CURVE SMOOTH",
"1184 1478 LINE SMOOTH",
"1193 1496 OFFCURVE",
"1176 1498 OFFCURVE",
"1111 1498 CURVE SMOOTH",
"1050 1498 OFFCURVE",
"1033 1495 OFFCURVE",
"1025 1478 CURVE SMOOTH",
"297 3 LINE SMOOTH",
"289 -14 OFFCURVE",
"297 -17 OFFCURVE",
"371 -17 CURVE SMOOTH"
);
},
{
closed = 1;
nodes = (
"1252 -17 OFFCURVE",
"1366 160 OFFCURVE",
"1366 325 CURVE SMOOTH",
"1366 479 OFFCURVE",
"1265 668 OFFCURVE",
"1058 668 CURVE SMOOTH",
"857 668 OFFCURVE",
"750 473 OFFCURVE",
"750 325 CURVE SMOOTH",
"750 168 OFFCURVE",
"861 -17 OFFCURVE",
"1058 -17 CURVE SMOOTH"
);
},
{
closed = 1;
nodes = (
"984 44 OFFCURVE",
"965 164 OFFCURVE",
"965 325 CURVE SMOOTH",
"965 478 OFFCURVE",
"984 607 OFFCURVE",
"1058 607 CURVE SMOOTH",
"1146 607 OFFCURVE",
"1153 481 OFFCURVE",
"1153 325 CURVE SMOOTH",
"1153 170 OFFCURVE",
"1146 44 OFFCURVE",
"1058 44 CURVE SMOOTH"
);
},
{
closed = 1;
nodes = (
"602 813 OFFCURVE",
"716 990 OFFCURVE",
"716 1155 CURVE SMOOTH",
"716 1309 OFFCURVE",
"615 1498 OFFCURVE",
"408 1498 CURVE SMOOTH",
"207 1498 OFFCURVE",
"100 1303 OFFCURVE",
"100 1155 CURVE SMOOTH",
"100 998 OFFCURVE",
"211 813 OFFCURVE",
"408 813 CURVE SMOOTH"
);
},
{
closed = 1;
nodes = (
"334 874 OFFCURVE",
"315 994 OFFCURVE",
"315 1155 CURVE SMOOTH",
"315 1308 OFFCURVE",
"334 1437 OFFCURVE",
"408 1437 CURVE SMOOTH",
"496 1437 OFFCURVE",
"503 1311 OFFCURVE",
"503 1155 CURVE SMOOTH",
"503 1000 OFFCURVE",
"496 874 OFFCURVE",
"408 874 CURVE SMOOTH"
);
}
);
userData = {
com.adobe.type.autohint = "b''";
};
width = 1466;
}
);
unicode = 0025;
},
{
glyphname = ampersand;
lastChange = "2021-04-06 16:12:05 +0000";
layers = (
{
background = {
paths = (
{
closed = 1;
nodes = (
"217 731 OFFCURVE",
"140 676 OFFCURVE",
"140 548 CURVE SMOOTH",
"140 381 OFFCURVE",
"342 101 OFFCURVE",
"492 -14 CURVE SMOOTH",
"500 -20 OFFCURVE",
"507 -18 OFFCURVE",
"536 -5 CURVE SMOOTH",
"566 9 OFFCURVE",
"574 18 OFFCURVE",
"568 21 CURVE SMOOTH",
"394 115 OFFCURVE",
"206 383 OFFCURVE",
"206 555 CURVE SMOOTH",
"206 618 OFFCURVE",
"247 692 OFFCURVE",
"291 692 CURVE SMOOTH",
"335 692 OFFCURVE",
"366 649 OFFCURVE",
"366 590 CURVE SMOOTH",
"366 447 OFFCURVE",
"49 357 OFFCURVE",
"49 147 CURVE SMOOTH",
"49 23 OFFCURVE",
"127 -8 OFFCURVE",
"226 -8 CURVE SMOOTH",
"400 -8 OFFCURVE",
"522 254 OFFCURVE",
"562 420 CURVE SMOOTH",
"563 425 OFFCURVE",
"555 427 OFFCURVE",
"524 437 CURVE SMOOTH",
"490 448 OFFCURVE",
"478 449 OFFCURVE",
"479 444 CURVE SMOOTH",
"502 356 OFFCURVE",
"386 34 OFFCURVE",
"224 34 CURVE SMOOTH",
"151 34 OFFCURVE",
"117 85 OFFCURVE",
"117 153 CURVE SMOOTH",
"117 327 OFFCURVE",
"431 461 OFFCURVE",
"431 599 CURVE SMOOTH",
"431 684 OFFCURVE",
"379 731 OFFCURVE",
"291 731 CURVE SMOOTH",
"291 731 LINE SMOOTH"
);
}
);
};
layerId = "67B138FD-4947-43F2-9353-3B08A6E9966B";
paths = (
{
closed = 1;
nodes = (
"1024 -41 OFFCURVE",
"1039 -37 OFFCURVE",
"1097 -10 CURVE SMOOTH",
"1159 19 OFFCURVE",
"1176 37 OFFCURVE",
"1163 44 CURVE SMOOTH",
"1070 94 OFFCURVE",
"975 169 OFFCURVE",
"885 258 CURVE",
"1016 440 OFFCURVE",
"1107 678 OFFCURVE",
"1150 860 CURVE SMOOTH",
"1152 870 OFFCURVE",
"1137 875 OFFCURVE",
"1074 895 CURVE SMOOTH",
"1004 917 OFFCURVE",
"979 920 OFFCURVE",
"982 910 CURVE SMOOTH",
"1009 805 OFFCURVE",
"940 539 OFFCURVE",
"813 334 CURVE",
"697 464 OFFCURVE",
"595 615 OFFCURVE",
"524 763 CURVE",
"696 925 OFFCURVE",
"883 1075 OFFCURVE",
"883 1227 CURVE SMOOTH",
"883 1400 OFFCURVE",
"776 1498 OFFCURVE",
"596 1498 CURVE SMOOTH",
"445 1498 OFFCURVE",
"286 1384 OFFCURVE",
"286 1122 CURVE SMOOTH",
"286 1020 OFFCURVE",
"323 898 OFFCURVE",
"382 770 CURVE",
"235 643 OFFCURVE",
"100 498 OFFCURVE",
"100 301 CURVE SMOOTH",
"100 48 OFFCURVE",
"260 -17 OFFCURVE",
"462 -17 CURVE SMOOTH {name = hr01;}",
"591 -17 OFFCURVE",
"706 53 OFFCURVE",
"805 159 CURVE",
"874 85 OFFCURVE",
"943 21 OFFCURVE",
"1007 -28 CURVE SMOOTH"
);
},
{
closed = 1;
nodes = (
"309 70 OFFCURVE",
"240 174 OFFCURVE",
"240 313 CURVE SMOOTH",
"240 442 OFFCURVE",
"324 560 OFFCURVE",
"432 672 CURVE",
"515 520 OFFCURVE",
"625 365 OFFCURVE",
"739 232 CURVE",
"659 136 OFFCURVE",
"563 70 OFFCURVE",
"458 70 CURVE SMOOTH"
);
},
{
closed = 1;
nodes = (
"444 956 OFFCURVE",
"422 1052 OFFCURVE",
"422 1137 CURVE SMOOTH",
"422 1265 OFFCURVE",
"505 1417 OFFCURVE",
"596 1417 CURVE SMOOTH",
"687 1417 OFFCURVE",
"749 1330 OFFCURVE",
"749 1208 CURVE SMOOTH",
"749 1079 OFFCURVE",
"624 972 OFFCURVE",
"484 855 CURVE"
);
}
);
userData = {
com.adobe.type.autohint = "b''";
};
width = 1267;
},
{
background = {
paths = (
{
closed = 1;
nodes = (
"217 731 OFFCURVE",
"140 676 OFFCURVE",
"140 548 CURVE SMOOTH",
"140 381 OFFCURVE",
"342 101 OFFCURVE",
"492 -14 CURVE SMOOTH",
"500 -20 OFFCURVE",
"507 -18 OFFCURVE",
"536 -5 CURVE SMOOTH",
"566 9 OFFCURVE",
"574 18 OFFCURVE",
"568 21 CURVE SMOOTH",
"394 115 OFFCURVE",
"206 383 OFFCURVE",
"206 555 CURVE SMOOTH",
"206 618 OFFCURVE",
"247 692 OFFCURVE",
"291 692 CURVE SMOOTH",
"335 692 OFFCURVE",
"366 649 OFFCURVE",
"366 590 CURVE SMOOTH",
"366 447 OFFCURVE",
"49 357 OFFCURVE",
"49 147 CURVE SMOOTH",
"49 23 OFFCURVE",
"127 -8 OFFCURVE",
"226 -8 CURVE SMOOTH",
"400 -8 OFFCURVE",
"522 254 OFFCURVE",
"562 420 CURVE SMOOTH",
"563 425 OFFCURVE",
"555 427 OFFCURVE",
"524 437 CURVE SMOOTH",
"490 448 OFFCURVE",
"478 449 OFFCURVE",
"479 444 CURVE SMOOTH",
"502 356 OFFCURVE",
"386 34 OFFCURVE",
"224 34 CURVE SMOOTH",
"151 34 OFFCURVE",
"117 85 OFFCURVE",
"117 153 CURVE SMOOTH",
"117 327 OFFCURVE",
"431 461 OFFCURVE",
"431 599 CURVE SMOOTH",
"431 684 OFFCURVE",
"379 731 OFFCURVE",
"291 731 CURVE SMOOTH",
"291 731 LINE SMOOTH"
);
},
{
closed = 1;
nodes = (
"217 731 OFFCURVE",
"125 676 OFFCURVE",
"125 548 CURVE SMOOTH",
"125 381 OFFCURVE",
"314 108 OFFCURVE",
"472 -14 CURVE SMOOTH",
"480 -20 OFFCURVE",
"524 -10 OFFCURVE",
"552 15 CURVE SMOOTH",
"587 46 OFFCURVE",
"589 57 OFFCURVE",
"583 60 CURVE SMOOTH",
"292 206 OFFCURVE",
"233 418 OFFCURVE",
"233 555 CURVE SMOOTH",
"233 647 OFFCURVE",
"247 702 OFFCURVE",
"291 702 CURVE SMOOTH",
"325 702 OFFCURVE",
"332 649 OFFCURVE",
"332 590 CURVE SMOOTH",
"332 447 OFFCURVE",
"39 357 OFFCURVE",
"39 147 CURVE SMOOTH",
"39 23 OFFCURVE",
"127 -8 OFFCURVE",
"226 -8 CURVE SMOOTH",
"400 -8 OFFCURVE",
"522 239 OFFCURVE",
"562 405 CURVE SMOOTH",
"563 410 OFFCURVE",
"531 427 OFFCURVE",
"500 437 CURVE SMOOTH",
"466 448 OFFCURVE",
"439 449 OFFCURVE",
"440 444 CURVE SMOOTH",
"463 356 OFFCURVE",
"379 21 OFFCURVE",
"233 21 CURVE SMOOTH",
"183 21 OFFCURVE",
"167 92 OFFCURVE",
"167 158 CURVE SMOOTH",
"167 332 OFFCURVE",
"441 461 OFFCURVE",
"441 599 CURVE SMOOTH",
"441 684 OFFCURVE",
"379 731 OFFCURVE",
"291 731 CURVE SMOOTH",
"291 731 LINE SMOOTH"
);
},
{
closed = 1;
nodes = (
"217 731 OFFCURVE",
"125 676 OFFCURVE",
"125 548 CURVE SMOOTH",
"125 381 OFFCURVE",
"314 113 OFFCURVE",
"472 -8 CURVE SMOOTH",
"480 -15 OFFCURVE",
"524 -4 OFFCURVE",
"552 21 CURVE SMOOTH",
"587 51 OFFCURVE",
"589 62 OFFCURVE",
"583 65 CURVE SMOOTH",
"292 211 OFFCURVE",
"233 418 OFFCURVE",
"233 555 CURVE SMOOTH",
"233 647 OFFCURVE",
"247 702 OFFCURVE",
"291 702 CURVE SMOOTH",
"325 702 OFFCURVE",
"332 649 OFFCURVE",
"332 590 CURVE SMOOTH",
"332 408 OFFCURVE",
"39 381 OFFCURVE",
"39 147 CURVE SMOOTH",
"39 23 OFFCURVE",
"127 -8 OFFCURVE",
"226 -8 CURVE SMOOTH",
"400 -8 OFFCURVE",
"522 239 OFFCURVE",
"562 405 CURVE SMOOTH",
"563 410 OFFCURVE",
"559 417 OFFCURVE",
"500 437 CURVE SMOOTH",
"444 456 OFFCURVE",
"438 453 OFFCURVE",
"440 444 CURVE SMOOTH",
"465 356 OFFCURVE",
"413 65 OFFCURVE",
"268 65 CURVE SMOOTH",
"200 65 OFFCURVE",
"167 107 OFFCURVE",
"167 177 CURVE SMOOTH",
"167 389 OFFCURVE",
"441 461 OFFCURVE",
"441 599 CURVE SMOOTH",
"441 684 OFFCURVE",
"379 731 OFFCURVE",
"291 731 CURVE SMOOTH",
"291 731 LINE SMOOTH"
);
}
);
};
layerId = "65425FA6-FA16-4213-8FC2-6D5B41D5C5D9";
paths = (
{
closed = 1;
nodes = (
"586 -17 OFFCURVE",
"698 44 OFFCURVE",
"793 139 CURVE",
"852 79 OFFCURVE",
"910 27 OFFCURVE",
"967 -17 CURVE SMOOTH {name = hr01;}",
"984 -30 OFFCURVE",
"1073 -9 OFFCURVE",
"1131 42 CURVE SMOOTH",
"1202 104 OFFCURVE",
"1207 127 OFFCURVE",
"1194 134 CURVE SMOOTH",
"1090 186 OFFCURVE",
"1001 242 OFFCURVE",
"924 300 CURVE",
"1034 466 OFFCURVE",
"1112 667 OFFCURVE",
"1150 830 CURVE SMOOTH",
"1152 840 OFFCURVE",
"1144 854 OFFCURVE",
"1024 895 CURVE SMOOTH",
"910 934 OFFCURVE",
"897 928 OFFCURVE",
"902 910 CURVE SMOOTH",
"931 807 OFFCURVE",
"908 567 OFFCURVE",
"828 381 CURVE",
"685 510 OFFCURVE",
"598 648 OFFCURVE",
"546 780 CURVE",
"706 940 OFFCURVE",
"903 1060 OFFCURVE",
"903 1227 CURVE SMOOTH",
"903 1400 OFFCURVE",
"776 1498 OFFCURVE",
"596 1498 CURVE SMOOTH",
"445 1498 OFFCURVE",
"256 1384 OFFCURVE",
"256 1122 CURVE SMOOTH {name = hr02;}",
"256 1019 OFFCURVE",
"291 897 OFFCURVE",
"349 770 CURVE",
"210 656 OFFCURVE",
"80 524 OFFCURVE",
"80 301 CURVE SMOOTH",
"80 48 OFFCURVE",
"260 -17 OFFCURVE",
"462 -17 CURVE SMOOTH"
);
},
{
closed = 1;
nodes = (
"409 133 OFFCURVE",
"342 220 OFFCURVE",
"342 363 CURVE SMOOTH {name = hr03;}",
"342 466 OFFCURVE",
"374 553 OFFCURVE",
"422 629 CURVE",
"505 484 OFFCURVE",
"611 339 OFFCURVE",
"723 214 CURVE",
"674 164 OFFCURVE",
"616 133 OFFCURVE",
"548 133 CURVE SMOOTH {name = hr04;}"
);
},
{
closed = 1;
nodes = (
"486 985 OFFCURVE",
"478 1065 OFFCURVE",
"478 1137 CURVE SMOOTH",
"478 1326 OFFCURVE",
"505 1438 OFFCURVE",
"596 1438 CURVE SMOOTH",
"666 1438 OFFCURVE",
"679 1330 OFFCURVE",
"679 1208 CURVE SMOOTH",
"679 1076 OFFCURVE",
"604 984 OFFCURVE",
"507 899 CURVE"
);
}
);
userData = {
com.adobe.type.autohint = "b''";
};
width = 1267;
}
);
unicode = 0026;
},
{
glyphname = quotesingle;
lastChange = "2021-04-06 16:12:05 +0000";
layers = (
{
background = {
paths = (
{
closed = 1;
nodes = (
"145 638 OFFCURVE",
"140 607 OFFCURVE",
"131 557 CURVE SMOOTH",
"104 408 LINE",
"81 408 LINE",
"54 558 LINE SMOOTH",
"46 600 OFFCURVE",
"43 628 OFFCURVE",
"43 643 CURVE SMOOTH",
"43 685 OFFCURVE",
"59 704 OFFCURVE",
"91 704 CURVE SMOOTH",
"129 704 OFFCURVE",
"145 674 OFFCURVE",
"145 650 CURVE SMOOTH",
"145 650 LINE SMOOTH"
);
},
{
closed = 1;
nodes = (
"144 447 OFFCURVE",
"50 369 OFFCURVE",
"46 380 CURVE SMOOTH",
"44 389 OFFCURVE",
"118 450 OFFCURVE",
"118 545 CURVE SMOOTH",
"118 556 OFFCURVE",
"112 567 OFFCURVE",
"109 567 CURVE SMOOTH",
"104 567 OFFCURVE",
"94 554 OFFCURVE",
"83 554 CURVE SMOOTH",
"62 554 OFFCURVE",
"44 580 OFFCURVE",
"44 610 CURVE SMOOTH",
"44 645 OFFCURVE",
"68 664 OFFCURVE",
"87 664 CURVE SMOOTH",
"129 664 OFFCURVE",
"144 614 OFFCURVE",
"144 563 CURVE SMOOTH",
"144 563 LINE SMOOTH"
);
}
);
};
layerId = "67B138FD-4947-43F2-9353-3B08A6E9966B";
paths = (
{
closed = 1;
nodes = (
"180 816 OFFCURVE",
"230 814 OFFCURVE",
"233 830 CURVE SMOOTH",
"284 1154 LINE SMOOTH",
"301 1264 OFFCURVE",
"308 1308 OFFCURVE",
"308 1339 CURVE SMOOTH",
"308 1403 OFFCURVE",
"277 1457 OFFCURVE",
"207 1457 CURVE SMOOTH",
"135 1457 OFFCURVE",
"104 1417 OFFCURVE",
"104 1323 CURVE SMOOTH",
"104 1288 OFFCURVE",
"116 1248 OFFCURVE",
"130 1154 CURVE SMOOTH",
"178 830 LINE SMOOTH"
);
}
);
userData = {
com.adobe.type.autohint = "b''";
};
width = 412;
},
{
background = {
paths = (
{
closed = 1;
nodes = (
"150 597 OFFCURVE",
"147 551 OFFCURVE",
"136 503 CURVE SMOOTH",
"104 354 LINE",
"83 354 LINE",
"50 504 LINE SMOOTH",
"41 545 OFFCURVE",
"39 588 OFFCURVE",
"39 604 CURVE SMOOTH",
"39 650 OFFCURVE",
"65 665 OFFCURVE",
"94 665 CURVE SMOOTH",
"124 665 OFFCURVE",
"150 643 OFFCURVE",
"150 610 CURVE SMOOTH",
"150 610 LINE SMOOTH"
);
},
{
closed = 1;
nodes = (
"145 599 OFFCURVE",
"140 568 OFFCURVE",
"131 518 CURVE SMOOTH",
"104 369 LINE",
"81 369 LINE",
"54 519 LINE SMOOTH",
"46 561 OFFCURVE",
"43 589 OFFCURVE",
"43 604 CURVE SMOOTH",
"43 646 OFFCURVE",
"59 665 OFFCURVE",
"91 665 CURVE SMOOTH",
"129 665 OFFCURVE",
"145 635 OFFCURVE",
"145 611 CURVE SMOOTH",
"145 611 LINE SMOOTH"
);
},
{
closed = 1;
nodes = (
"145 638 OFFCURVE",
"140 607 OFFCURVE",
"131 557 CURVE SMOOTH",
"104 408 LINE",
"81 408 LINE",
"54 558 LINE SMOOTH",
"46 600 OFFCURVE",
"43 628 OFFCURVE",
"43 643 CURVE SMOOTH",
"43 685 OFFCURVE",
"59 704 OFFCURVE",
"91 704 CURVE SMOOTH",
"129 704 OFFCURVE",
"145 674 OFFCURVE",
"145 650 CURVE SMOOTH",
"145 650 LINE SMOOTH"
);
}
);
};
layerId = "65425FA6-FA16-4213-8FC2-6D5B41D5C5D9";
paths = (
{
closed = 1;
nodes = (
"184 764 OFFCURVE",
"224 762 OFFCURVE",
"227 776 CURVE SMOOTH",
"299 1103 LINE SMOOTH",
"322 1207 OFFCURVE",
"330 1287 OFFCURVE",
"330 1315 CURVE SMOOTH",
"330 1407 OFFCURVE",
"276 1457 OFFCURVE",
"205 1457 CURVE SMOOTH",
"135 1457 OFFCURVE",
"85 1420 OFFCURVE",
"85 1302 CURVE SMOOTH",
"85 1267 OFFCURVE",
"90 1194 OFFCURVE",
"109 1105 CURVE SMOOTH",
"181 776 LINE SMOOTH"
);
}
);
userData = {
com.adobe.type.autohint = "b''";
};
width = 412;
}
);
unicode = 0027;
},
{
glyphname = parenleft;
lastChange = "2021-04-06 16:12:05 +0000";
layers = (
{
background = {
paths = (
{
closed = 1;
nodes = (
"371 -258 OFFCURVE",
"377 -267 OFFCURVE",
"372 -270 CURVE SMOOTH",
"365 -275 OFFCURVE",
"340 -270 OFFCURVE",
"314 -256 CURVE SMOOTH",
"207 -195 OFFCURVE",
"77 -63 OFFCURVE",
"77 245 CURVE SMOOTH",
"77 538 OFFCURVE",
"201 687 OFFCURVE",
"314 735 CURVE SMOOTH",
"353 752 OFFCURVE",
"373 741 OFFCURVE",
"373 742 CURVE",
"377 738 OFFCURVE",
"372 730 OFFCURVE",
"339 717 CURVE SMOOTH",
"264 687 OFFCURVE",
"142 525 OFFCURVE",
"142 241 CURVE SMOOTH",
"142 -44 OFFCURVE",
"267 -205 OFFCURVE",
"339 -242 CURVE SMOOTH",
"339 -242 LINE SMOOTH"
);
},
{
closed = 1;
nodes = (
"367 719 OFFCURVE",
"374 728 OFFCURVE",
"369 731 CURVE SMOOTH",
"361 736 OFFCURVE",
"336 731 OFFCURVE",
"311 717 CURVE SMOOTH",
"203 656 OFFCURVE",
"73 524 OFFCURVE",
"73 216 CURVE SMOOTH",
"73 -77 OFFCURVE",
"197 -226 OFFCURVE",
"311 -274 CURVE SMOOTH",
"338 -286 OFFCURVE",
"362 -286 OFFCURVE",
"369 -281 CURVE SMOOTH",
"374 -277 OFFCURVE",
"369 -269 OFFCURVE",
"335 -256 CURVE SMOOTH",
"260 -226 OFFCURVE",
"138 -64 OFFCURVE",
"138 220 CURVE SMOOTH",
"138 505 OFFCURVE",
"264 666 OFFCURVE",
"335 703 CURVE SMOOTH",
"335 703 LINE SMOOTH"
);
}
);
};
layerId = "67B138FD-4947-43F2-9353-3B08A6E9966B";
paths = (
{
closed = 1;
nodes = (
"818 -607 OFFCURVE",
"808 -589 OFFCURVE",
"734 -560 CURVE SMOOTH",
"570 -496 OFFCURVE",
"303 -141 OFFCURVE",
"303 482 CURVE SMOOTH",
"303 1106 OFFCURVE",
"578 1459 OFFCURVE",
"734 1540 CURVE SMOOTH",
"805 1577 OFFCURVE",
"819 1596 OFFCURVE",
"808 1602 CURVE SMOOTH",
"791 1612 OFFCURVE",
"737 1602 OFFCURVE",
"681 1571 CURVE SMOOTH",
"445 1439 OFFCURVE",
"161 1150 OFFCURVE",
"161 473 CURVE SMOOTH",
"161 -168 OFFCURVE",
"433 -494 OFFCURVE",
"681 -601 CURVE SMOOTH",
"739 -626 OFFCURVE",
"792 -627 OFFCURVE",
"808 -615 CURVE SMOOTH"
);
}
);
userData = {
com.adobe.type.autohint = "b''";
};
width = 705;
},
{
background = {
paths = (
{
closed = 1;
nodes = (
"367 -259 OFFCURVE",
"374 -268 OFFCURVE",
"369 -271 CURVE SMOOTH",
"361 -275 OFFCURVE",
"336 -271 OFFCURVE",
"311 -256 CURVE SMOOTH",
"203 -196 OFFCURVE",
"75 -61 OFFCURVE",
"75 248 CURVE SMOOTH",
"75 540 OFFCURVE",
"197 686 OFFCURVE",
"311 735 CURVE SMOOTH",
"338 746 OFFCURVE",
"362 746 OFFCURVE",
"369 741 CURVE SMOOTH",
"374 738 OFFCURVE",
"369 729 OFFCURVE",
"335 716 CURVE SMOOTH",
"260 687 OFFCURVE",
"138 525 OFFCURVE",
"138 240 CURVE SMOOTH",
"138 -44 OFFCURVE",
"264 -205 OFFCURVE",
"335 -242 CURVE SMOOTH",
"335 -242 LINE SMOOTH"
);
},
{
closed = 1;
nodes = (
"367 719 OFFCURVE",
"374 728 OFFCURVE",
"369 731 CURVE SMOOTH",
"361 736 OFFCURVE",
"336 731 OFFCURVE",
"311 717 CURVE SMOOTH",
"203 656 OFFCURVE",
"73 524 OFFCURVE",
"73 216 CURVE SMOOTH",
"73 -77 OFFCURVE",
"197 -226 OFFCURVE",
"311 -274 CURVE SMOOTH",
"338 -286 OFFCURVE",
"362 -286 OFFCURVE",
"369 -281 CURVE SMOOTH",
"374 -277 OFFCURVE",
"369 -269 OFFCURVE",
"335 -256 CURVE SMOOTH",
"260 -226 OFFCURVE",
"138 -64 OFFCURVE",
"138 220 CURVE SMOOTH",
"138 505 OFFCURVE",
"264 666 OFFCURVE",
"335 703 CURVE SMOOTH",
"335 703 LINE SMOOTH"
);
},
{
closed = 0;
nodes = (
"173 215 LINE",
"173 478 OFFCURVE",
"275 656 OFFCURVE",
"335 683 CURVE SMOOTH",
"366 697 OFFCURVE",
"376 708 OFFCURVE",
"369 713 CURVE SMOOTH",
"358 721 OFFCURVE",
"338 718 OFFCURVE",
"311 707 CURVE SMOOTH",
"198 658 OFFCURVE",
"63 512 OFFCURVE",
"63 219 CURVE SMOOTH"
);
}
);
};
layerId = "65425FA6-FA16-4213-8FC2-6D5B41D5C5D9";
paths = (
{
closed = 1;
nodes = (
"845 -599 OFFCURVE",
"822 -575 OFFCURVE",
"755 -544 CURVE SMOOTH",
"625 -484 OFFCURVE",
"401 -67 OFFCURVE",
"401 483 CURVE SMOOTH",
"401 1063 OFFCURVE",
"610 1443 OFFCURVE",
"755 1529 CURVE SMOOTH",
"823 1570 OFFCURVE",
"839 1580 OFFCURVE",
"832 1591 CURVE SMOOTH",
"819 1611 OFFCURVE",
"754 1609 OFFCURVE",
"703 1581 CURVE SMOOTH",
"481 1459 OFFCURVE",
"164 1135 OFFCURVE",
"161 473 CURVE SMOOTH",
"158 -168 OFFCURVE",
"455 -489 OFFCURVE",
"703 -596 CURVE SMOOTH",
"761 -621 OFFCURVE",
"806 -627 OFFCURVE",
"830 -610 CURVE SMOOTH"
);
}
);
userData = {
com.adobe.type.autohint = "b''";
};
width = 728;
}
);
unicode = 0028;
},
{
glyphname = parenright;
lastChange = "2021-04-06 16:12:05 +0000";
layers = (
{
background = {
paths = (
{
closed = 1;
nodes = (
"-46 -253 OFFCURVE",
"-52 -262 OFFCURVE",
"-47 -265 CURVE SMOOTH",
"-39 -270 OFFCURVE",
"-14 -265 OFFCURVE",
"11 -251 CURVE SMOOTH",
"119 -191 OFFCURVE",
"248 -59 OFFCURVE",
"248 250 CURVE SMOOTH",
"248 543 OFFCURVE",
"124 691 OFFCURVE",
"11 740 CURVE SMOOTH",
"-16 752 OFFCURVE",
"-40 752 OFFCURVE",
"-47 746 CURVE SMOOTH",
"-52 743 OFFCURVE",
"-47 735 OFFCURVE",
"-13 721 CURVE SMOOTH",
"61 692 OFFCURVE",
"183 530 OFFCURVE",
"183 246 CURVE SMOOTH",
"183 -39 OFFCURVE",
"58 -200 OFFCURVE",
"-13 -237 CURVE SMOOTH",
"-13 -237 LINE SMOOTH"
);
}
);
};
layerId = "67B138FD-4947-43F2-9353-3B08A6E9966B";
paths = (
{
closed = 1;
nodes = (
"-86 -591 OFFCURVE",
"-32 -581 OFFCURVE",
"24 -550 CURVE SMOOTH",
"260 -418 OFFCURVE",
"544 -129 OFFCURVE",
"544 548 CURVE SMOOTH",
"544 1189 OFFCURVE",
"272 1515 OFFCURVE",
"24 1622 CURVE SMOOTH",
"-34 1647 OFFCURVE",
"-88 1648 OFFCURVE",
"-104 1636 CURVE SMOOTH",
"-114 1628 OFFCURVE",
"-103 1610 OFFCURVE",
"-29 1581 CURVE SMOOTH",
"135 1517 OFFCURVE",
"401 1161 OFFCURVE",
"401 538 CURVE SMOOTH",
"401 -86 OFFCURVE",
"126 -438 OFFCURVE",
"-30 -519 CURVE SMOOTH",
"-101 -556 OFFCURVE",
"-114 -575 OFFCURVE",
"-103 -581 CURVE SMOOTH"
);
}
);
userData = {
com.adobe.type.autohint = "b''";
};
width = 705;
},
{
background = {
paths = (
{
closed = 1;
nodes = (
"-46 -253 OFFCURVE",
"-52 -262 OFFCURVE",
"-47 -265 CURVE SMOOTH",
"-39 -270 OFFCURVE",
"-14 -265 OFFCURVE",
"11 -251 CURVE SMOOTH",
"119 -191 OFFCURVE",
"248 -59 OFFCURVE",
"248 250 CURVE SMOOTH",
"248 543 OFFCURVE",
"124 691 OFFCURVE",
"11 740 CURVE SMOOTH",
"-16 752 OFFCURVE",
"-40 752 OFFCURVE",
"-47 746 CURVE SMOOTH",
"-52 743 OFFCURVE",
"-47 735 OFFCURVE",
"-13 721 CURVE SMOOTH",
"61 692 OFFCURVE",
"183 530 OFFCURVE",
"183 246 CURVE SMOOTH",
"183 -39 OFFCURVE",
"58 -200 OFFCURVE",
"-13 -237 CURVE SMOOTH",
"-13 -237 LINE SMOOTH"
);
},
{
closed = 1;
nodes = (
"248 -59 OFFCURVE",
"119 -191 OFFCURVE",
"11 -251 CURVE SMOOTH",
"-14 -265 OFFCURVE",
"-39 -270 OFFCURVE",
"-47 -265 CURVE SMOOTH",
"-52 -262 OFFCURVE",
"-46 -253 OFFCURVE",
"-13 -237 CURVE SMOOTH",
"58 -200 OFFCURVE",
"183 -39 OFFCURVE",
"183 246 CURVE SMOOTH",
"183 530 OFFCURVE",
"61 692 OFFCURVE",
"-13 721 CURVE SMOOTH",
"-47 735 OFFCURVE",
"-52 743 OFFCURVE",
"-47 746 CURVE SMOOTH",
"-40 752 OFFCURVE",
"-16 752 OFFCURVE",
"11 740 CURVE SMOOTH",
"124 691 OFFCURVE",
"248 543 OFFCURVE",
"248 250 CURVE SMOOTH",
"248 250 LINE SMOOTH"
);
}
);
};
layerId = "65425FA6-FA16-4213-8FC2-6D5B41D5C5D9";
paths = (
{
closed = 1;
nodes = (
"-92 -630 OFFCURVE",
"-26 -628 OFFCURVE",
"25 -600 CURVE SMOOTH",
"246 -478 OFFCURVE",
"564 -154 OFFCURVE",
"567 508 CURVE SMOOTH",
"570 1149 OFFCURVE",
"273 1470 OFFCURVE",
"25 1577 CURVE SMOOTH",
"-33 1602 OFFCURVE",
"-79 1608 OFFCURVE",
"-103 1591 CURVE SMOOTH",
"-118 1580 OFFCURVE",
"-95 1556 OFFCURVE",
"-28 1525 CURVE SMOOTH",
"102 1465 OFFCURVE",
"327 1049 OFFCURVE",
"327 499 CURVE SMOOTH",
"327 -81 OFFCURVE",
"117 -462 OFFCURVE",
"-28 -548 CURVE SMOOTH",
"-96 -589 OFFCURVE",
"-112 -599 OFFCURVE",
"-105 -610 CURVE SMOOTH"
);
}
);
userData = {
com.adobe.type.autohint = "b''";
};
width = 728;
}
);
unicode = 0029;
},
{
glyphname = asterisk;
lastChange = "2021-04-06 16:12:05 +0000";
layers = (
{
background = {
paths = (
{
closed = 1;
nodes = (
"428 575 OFFCURVE",
"330 565 OFFCURVE",
"297 547 CURVE",
"333 526 OFFCURVE",
"428 515 OFFCURVE",
"428 457 CURVE SMOOTH",
"428 434 OFFCURVE",
"414 417 OFFCURVE",
"397 417 CURVE SMOOTH",
"362 417 OFFCURVE",
"316 499 OFFCURVE",
"287 528 CURVE",
"287 476 OFFCURVE",
"312 430 OFFCURVE",
"312 381 CURVE SMOOTH",
"312 353 OFFCURVE",
"301 324 OFFCURVE",
"277 324 CURVE SMOOTH",
"256 324 OFFCURVE",
"246 355 OFFCURVE",
"246 379 CURVE SMOOTH",
"246 426 OFFCURVE",
"264 482 OFFCURVE",
"272 529 CURVE",
"242 500 OFFCURVE",
"195 417 OFFCURVE",
"162 417 CURVE SMOOTH",
"146 417 OFFCURVE",
"129 432 OFFCURVE",
"129 455 CURVE SMOOTH",
"129 513 OFFCURVE",
"228 532 OFFCURVE",
"262 547 CURVE",
"228 572 OFFCURVE",
"129 573 OFFCURVE",
"129 638 CURVE SMOOTH",
"129 661 OFFCURVE",
"142 677 OFFCURVE",
"160 677 CURVE SMOOTH",
"195 677 OFFCURVE",
"243 596 OFFCURVE",
"271 566 CURVE",
"267 610 OFFCURVE",
"246 680 OFFCURVE",
"246 713 CURVE SMOOTH",
"246 741 OFFCURVE",
"257 771 OFFCURVE",
"281 771 CURVE SMOOTH",
"302 771 OFFCURVE",
"312 739 OFFCURVE",
"312 715 CURVE SMOOTH",
"312 668 OFFCURVE",
"293 614 OFFCURVE",
"287 566 CURVE",
"320 595 OFFCURVE",
"363 676 OFFCURVE",
"396 676 CURVE SMOOTH",
"413 676 OFFCURVE",
"428 659 OFFCURVE",
"428 637 CURVE SMOOTH",
"428 637 LINE SMOOTH"
);
},
{
closed = 1;
nodes = (
"239 592 OFFCURVE",
"214 687 OFFCURVE",
"214 736 CURVE SMOOTH",
"214 758 OFFCURVE",
"221 762 OFFCURVE",
"247 762 CURVE SMOOTH",
"278 762 OFFCURVE",
"284 759 OFFCURVE",
"284 736 CURVE SMOOTH",
"284 687 OFFCURVE",
"256 591 OFFCURVE",
"261 553 CURVE",
"249 539 LINE",
"236 553 LINE"
);
},
{
closed = 1;
nodes = (
"203 552 OFFCURVE",
"105 558 OFFCURVE",
"58 573 CURVE SMOOTH",
"37 580 OFFCURVE",
"36 587 OFFCURVE",
"44 612 CURVE SMOOTH",
"53 642 OFFCURVE",
"58 646 OFFCURVE",
"79 639 CURVE SMOOTH",
"126 624 OFFCURVE",
"208 568 OFFCURVE",
"247 561 CURVE",
"256 545 LINE",
"239 537 LINE"
);
},
{
closed = 1;
nodes = (
"229 505 OFFCURVE",
"194 414 OFFCURVE",
"165 374 CURVE SMOOTH",
"152 356 OFFCURVE",
"144 357 OFFCURVE",
"123 372 CURVE SMOOTH",
"98 391 OFFCURVE",
"95 396 OFFCURVE",
"109 414 CURVE SMOOTH",
"138 454 OFFCURVE",
"216 515 OFFCURVE",
"235 550 CURVE",
"253 554 LINE",
"255 535 LINE"
);
},
{
closed = 1;
nodes = (
"282 516 OFFCURVE",
"358 454 OFFCURVE",
"387 414 CURVE SMOOTH",
"400 396 OFFCURVE",
"397 389 OFFCURVE",
"375 374 CURVE SMOOTH",
"351 356 OFFCURVE",
"345 355 OFFCURVE",
"331 373 CURVE SMOOTH",
"302 413 OFFCURVE",
"269 507 OFFCURVE",
"242 535 CURVE",
"243 553 LINE",
"262 550 LINE"
);
},
{
closed = 1;
nodes = (
"288 570 OFFCURVE",
"371 623 OFFCURVE",
"418 638 CURVE SMOOTH",
"439 645 OFFCURVE",
"444 639 OFFCURVE",
"452 614 CURVE SMOOTH",
"462 585 OFFCURVE",
"461 579 OFFCURVE",
"439 572 CURVE SMOOTH",
"393 557 OFFCURVE",
"293 554 OFFCURVE",
"258 537 CURVE",
"241 544 LINE",
"250 561 LINE"
);
},
{
closed = 1;
nodes = (
"240 624 OFFCURVE",
"216 679 OFFCURVE",
"216 746 CURVE SMOOTH",
"216 761 OFFCURVE",
"222 762 OFFCURVE",
"249 762 CURVE SMOOTH",
"280 762 OFFCURVE",
"285 761 OFFCURVE",
"285 746 CURVE SMOOTH",
"285 679 OFFCURVE",
"258 624 OFFCURVE",
"273 553 CURVE",
"251 534 LINE",
"228 553 LINE"
);
},
{
closed = 1;
nodes = (
"240 624 OFFCURVE",
"216 679 OFFCURVE",
"216 746 CURVE SMOOTH",
"216 761 OFFCURVE",
"222 762 OFFCURVE",
"249 762 CURVE SMOOTH",
"280 762 OFFCURVE",
"285 761 OFFCURVE",
"285 746 CURVE SMOOTH",
"285 679 OFFCURVE",
"258 624 OFFCURVE",
"273 553 CURVE",
"251 534 LINE",
"228 553 LINE"
);
},
{
closed = 1;
nodes = (
"174 561 OFFCURVE",
"114 556 OFFCURVE",
"50 576 CURVE SMOOTH",
"36 581 OFFCURVE",
"37 586 OFFCURVE",
"45 613 CURVE SMOOTH",
"55 642 OFFCURVE",
"57 647 OFFCURVE",
"71 642 CURVE SMOOTH",
"136 621 OFFCURVE",
"180 578 OFFCURVE",
"251 570 CURVE",
"263 544 LINE",
"238 528 LINE"
);
},
{
closed = 1;
nodes = (
"213 479 OFFCURVE",
"200 420 OFFCURVE",
"160 366 CURVE SMOOTH",
"151 354 OFFCURVE",
"147 356 OFFCURVE",
"124 373 CURVE SMOOTH",
"99 391 OFFCURVE",
"95 394 OFFCURVE",
"104 407 CURVE SMOOTH",
"144 461 OFFCURVE",
"198 490 OFFCURVE",
"228 556 CURVE",
"257 558 LINE",
"264 529 LINE"
);
},
{
closed = 1;
nodes = (
"303 491 OFFCURVE",
"355 460 OFFCURVE",
"394 406 CURVE SMOOTH",
"403 393 OFFCURVE",
"399 390 OFFCURVE",
"377 373 CURVE SMOOTH",
"352 355 OFFCURVE",
"347 353 OFFCURVE",
"338 365 CURVE SMOOTH",
"299 419 OFFCURVE",
"288 480 OFFCURVE",
"235 529 CURVE",
"242 557 LINE",
"271 555 LINE"
);
},
{
closed = 1;
nodes = (
"320 580 OFFCURVE",
"365 620 OFFCURVE",
"429 641 CURVE SMOOTH",
"443 645 OFFCURVE",
"446 640 OFFCURVE",
"454 614 CURVE SMOOTH",
"464 585 OFFCURVE",
"465 579 OFFCURVE",
"450 575 CURVE SMOOTH",
"386 554 OFFCURVE",
"325 563 OFFCURVE",
"263 527 CURVE",
"238 542 LINE",
"249 570 LINE"
);
},
{
closed = 0;
nodes = (
"250 547 LINE"
);
}
);
};
layerId = "67B138FD-4947-43F2-9353-3B08A6E9966B";
paths = (
{
closed = 1;
nodes = (
"711 722 OFFCURVE",
"721 728 OFFCURVE",
"772 765 CURVE SMOOTH",
"817 798 OFFCURVE",
"826 806 OFFCURVE",
"808 831 CURVE SMOOTH",
"735 930 OFFCURVE",
"642 992 OFFCURVE",
"577 1099 CURVE",
"692 1149 OFFCURVE",
"804 1139 OFFCURVE",
"922 1177 CURVE SMOOTH",
"952 1186 OFFCURVE",
"949 1197 OFFCURVE",
"930 1257 CURVE SMOOTH",
"912 1311 OFFCURVE",
"908 1322 OFFCURVE",
"878 1312 CURVE SMOOTH",
"761 1274 OFFCURVE",
"674 1205 OFFCURVE",
"552 1175 CURVE",
"540 1300 OFFCURVE",
"585 1404 OFFCURVE",
"585 1528 CURVE SMOOTH",
"585 1559 OFFCURVE",
"574 1560 OFFCURVE",
"511 1560 CURVE SMOOTH",
"454 1560 OFFCURVE",
"443 1559 OFFCURVE",
"443 1528 CURVE SMOOTH {name = hr02;}",
"443 1405 OFFCURVE",
"482 1300 OFFCURVE",
"472 1175 CURVE {name = hr01;}",
"349 1202 OFFCURVE",
"264 1277 OFFCURVE",
"146 1315 CURVE SMOOTH",
"117 1325 OFFCURVE",
"112 1315 OFFCURVE",
"93 1255 CURVE SMOOTH",
"75 1201 OFFCURVE",
"73 1190 OFFCURVE",
"102 1180 CURVE SMOOTH",
"219 1142 OFFCURVE",
"331 1147 OFFCURVE",
"447 1099 CURVE",
"384 991 OFFCURVE",
"286 933 OFFCURVE",
"213 833 CURVE SMOOTH",
"195 808 OFFCURVE",
"203 800 OFFCURVE",
"254 763 CURVE SMOOTH",
"300 730 OFFCURVE",
"310 724 OFFCURVE",
"328 749 CURVE SMOOTH",
"400 849 OFFCURVE",
"430 956 OFFCURVE",
"512 1052 CURVE",
"595 958 OFFCURVE",
"620 847 OFFCURVE",
"693 747 CURVE SMOOTH"
);
}
);
userData = {
com.adobe.type.autohint = "b''";
};
width = 1025;
},
{
background = {
paths = (
{
closed = 1;
nodes = (
"240 624 OFFCURVE",
"216 679 OFFCURVE",
"216 746 CURVE SMOOTH",
"216 761 OFFCURVE",
"222 762 OFFCURVE",
"249 762 CURVE SMOOTH",
"280 762 OFFCURVE",
"285 761 OFFCURVE",
"285 746 CURVE SMOOTH",
"285 679 OFFCURVE",
"258 624 OFFCURVE",
"273 553 CURVE",
"251 534 LINE",
"228 553 LINE"
);
},
{
closed = 1;
nodes = (
"240 624 OFFCURVE",
"216 679 OFFCURVE",
"216 746 CURVE SMOOTH",
"216 761 OFFCURVE",
"222 762 OFFCURVE",
"249 762 CURVE SMOOTH",
"280 762 OFFCURVE",
"285 761 OFFCURVE",
"285 746 CURVE SMOOTH",
"285 679 OFFCURVE",
"258 624 OFFCURVE",
"273 553 CURVE",
"251 534 LINE",
"228 553 LINE"
);
},
{
closed = 1;
nodes = (
"240 624 OFFCURVE",
"216 679 OFFCURVE",
"216 746 CURVE SMOOTH",
"216 761 OFFCURVE",
"222 762 OFFCURVE",
"249 762 CURVE SMOOTH",
"280 762 OFFCURVE",
"285 761 OFFCURVE",
"285 746 CURVE SMOOTH",
"285 679 OFFCURVE",
"258 624 OFFCURVE",
"273 553 CURVE",
"251 534 LINE",
"228 553 LINE"
);
},
{
closed = 1;
nodes = (
"240 624 OFFCURVE",
"216 679 OFFCURVE",
"216 746 CURVE SMOOTH",
"216 761 OFFCURVE",
"222 762 OFFCURVE",
"249 762 CURVE SMOOTH",
"280 762 OFFCURVE",
"285 761 OFFCURVE",
"285 746 CURVE SMOOTH",
"285 679 OFFCURVE",
"258 624 OFFCURVE",
"273 553 CURVE",
"251 534 LINE",
"228 553 LINE"
);
},
{
closed = 1;
nodes = (
"174 561 OFFCURVE",
"114 556 OFFCURVE",
"50 576 CURVE SMOOTH",
"36 581 OFFCURVE",
"37 586 OFFCURVE",
"45 613 CURVE SMOOTH",
"55 642 OFFCURVE",
"57 647 OFFCURVE",
"71 642 CURVE SMOOTH",
"136 621 OFFCURVE",
"180 578 OFFCURVE",
"251 570 CURVE",
"263 544 LINE",
"238 528 LINE"
);
},
{
closed = 1;
nodes = (
"174 561 OFFCURVE",
"114 556 OFFCURVE",
"50 576 CURVE SMOOTH",
"36 581 OFFCURVE",
"37 586 OFFCURVE",
"45 613 CURVE SMOOTH",
"55 642 OFFCURVE",
"57 647 OFFCURVE",
"71 642 CURVE SMOOTH",
"136 621 OFFCURVE",
"180 578 OFFCURVE",
"251 570 CURVE",
"263 544 LINE",
"238 528 LINE"
);
},
{
closed = 1;
nodes = (
"174 561 OFFCURVE",
"114 556 OFFCURVE",
"50 576 CURVE SMOOTH",
"36 581 OFFCURVE",
"37 586 OFFCURVE",
"45 613 CURVE SMOOTH",
"55 642 OFFCURVE",
"57 647 OFFCURVE",
"71 642 CURVE SMOOTH",
"136 621 OFFCURVE",
"180 578 OFFCURVE",
"251 570 CURVE",
"263 544 LINE",
"238 528 LINE"
);
},
{
closed = 1;
nodes = (
"174 561 OFFCURVE",
"114 556 OFFCURVE",
"50 576 CURVE SMOOTH",
"36 581 OFFCURVE",
"37 586 OFFCURVE",
"45 613 CURVE SMOOTH",
"55 642 OFFCURVE",
"57 647 OFFCURVE",
"71 642 CURVE SMOOTH",
"136 621 OFFCURVE",
"180 578 OFFCURVE",
"251 570 CURVE",
"263 544 LINE",
"238 528 LINE"
);
},
{
closed = 1;
nodes = (
"213 479 OFFCURVE",
"200 420 OFFCURVE",
"160 366 CURVE SMOOTH",
"151 354 OFFCURVE",
"147 356 OFFCURVE",
"124 373 CURVE SMOOTH",
"99 391 OFFCURVE",
"95 394 OFFCURVE",
"104 407 CURVE SMOOTH",
"144 461 OFFCURVE",
"198 490 OFFCURVE",
"228 556 CURVE",
"257 558 LINE",
"264 529 LINE"
);
},
{
closed = 1;
nodes = (
"213 479 OFFCURVE",
"200 420 OFFCURVE",
"160 366 CURVE SMOOTH",
"151 354 OFFCURVE",
"147 356 OFFCURVE",
"124 373 CURVE SMOOTH",
"99 391 OFFCURVE",
"95 394 OFFCURVE",
"104 407 CURVE SMOOTH",
"144 461 OFFCURVE",
"198 490 OFFCURVE",
"228 556 CURVE",
"257 558 LINE",
"264 529 LINE"
);
},
{
closed = 1;
nodes = (
"213 479 OFFCURVE",
"200 420 OFFCURVE",
"160 366 CURVE SMOOTH",
"151 354 OFFCURVE",
"147 356 OFFCURVE",
"124 373 CURVE SMOOTH",
"99 391 OFFCURVE",
"95 394 OFFCURVE",
"104 407 CURVE SMOOTH",
"144 461 OFFCURVE",
"198 490 OFFCURVE",
"228 556 CURVE",
"257 558 LINE",
"264 529 LINE"
);
},
{
closed = 1;
nodes = (
"213 479 OFFCURVE",
"200 420 OFFCURVE",
"160 366 CURVE SMOOTH",
"151 354 OFFCURVE",
"147 356 OFFCURVE",
"124 373 CURVE SMOOTH",
"99 391 OFFCURVE",
"95 394 OFFCURVE",
"104 407 CURVE SMOOTH",
"144 461 OFFCURVE",
"198 490 OFFCURVE",
"228 556 CURVE",
"257 558 LINE",
"264 529 LINE"
);
},
{
closed = 1;
nodes = (
"303 491 OFFCURVE",
"355 460 OFFCURVE",
"394 406 CURVE SMOOTH",
"403 393 OFFCURVE",
"399 390 OFFCURVE",
"377 373 CURVE SMOOTH",
"352 355 OFFCURVE",
"347 353 OFFCURVE",
"338 365 CURVE SMOOTH",
"299 419 OFFCURVE",
"288 480 OFFCURVE",
"235 529 CURVE",
"242 557 LINE",
"271 555 LINE"
);
},
{
closed = 1;
nodes = (
"303 491 OFFCURVE",
"355 460 OFFCURVE",
"394 406 CURVE SMOOTH",
"403 393 OFFCURVE",
"399 390 OFFCURVE",
"377 373 CURVE SMOOTH",
"352 355 OFFCURVE",
"347 353 OFFCURVE",
"338 365 CURVE SMOOTH",
"299 419 OFFCURVE",
"288 480 OFFCURVE",
"235 529 CURVE",
"242 557 LINE",
"271 555 LINE"
);
},
{
closed = 1;
nodes = (
"303 491 OFFCURVE",
"355 460 OFFCURVE",
"394 406 CURVE SMOOTH",
"403 393 OFFCURVE",
"399 390 OFFCURVE",
"377 373 CURVE SMOOTH",
"352 355 OFFCURVE",
"347 353 OFFCURVE",
"338 365 CURVE SMOOTH",
"299 419 OFFCURVE",
"288 480 OFFCURVE",
"235 529 CURVE",
"242 557 LINE",
"271 555 LINE"
);
},
{
closed = 1;
nodes = (
"303 491 OFFCURVE",
"355 460 OFFCURVE",
"394 406 CURVE SMOOTH",
"403 393 OFFCURVE",
"399 390 OFFCURVE",
"377 373 CURVE SMOOTH",
"352 355 OFFCURVE",
"347 353 OFFCURVE",
"338 365 CURVE SMOOTH",
"299 419 OFFCURVE",
"288 480 OFFCURVE",
"235 529 CURVE",
"242 557 LINE",
"271 555 LINE"
);
},
{
closed = 1;
nodes = (
"320 580 OFFCURVE",
"365 620 OFFCURVE",
"429 641 CURVE SMOOTH",
"443 645 OFFCURVE",
"446 640 OFFCURVE",
"454 614 CURVE SMOOTH",
"464 585 OFFCURVE",
"465 579 OFFCURVE",
"450 575 CURVE SMOOTH",
"386 554 OFFCURVE",
"325 563 OFFCURVE",
"263 527 CURVE",
"238 542 LINE",
"249 570 LINE"
);
},
{
closed = 1;
nodes = (
"320 580 OFFCURVE",
"365 620 OFFCURVE",
"429 641 CURVE SMOOTH",
"443 645 OFFCURVE",
"446 640 OFFCURVE",
"454 614 CURVE SMOOTH",
"464 585 OFFCURVE",
"465 579 OFFCURVE",
"450 575 CURVE SMOOTH",
"386 554 OFFCURVE",
"325 563 OFFCURVE",
"263 527 CURVE",
"238 542 LINE",
"249 570 LINE"
);
},
{
closed = 1;
nodes = (
"320 580 OFFCURVE",
"365 620 OFFCURVE",
"429 641 CURVE SMOOTH",
"443 645 OFFCURVE",
"446 640 OFFCURVE",
"454 614 CURVE SMOOTH",
"464 585 OFFCURVE",
"465 579 OFFCURVE",
"450 575 CURVE SMOOTH",
"386 554 OFFCURVE",
"325 563 OFFCURVE",
"263 527 CURVE",
"238 542 LINE",
"249 570 LINE"
);
},
{
closed = 1;
nodes = (
"320 580 OFFCURVE",
"365 620 OFFCURVE",
"429 641 CURVE SMOOTH",
"443 645 OFFCURVE",
"446 640 OFFCURVE",
"454 614 CURVE SMOOTH",
"464 585 OFFCURVE",
"465 579 OFFCURVE",
"450 575 CURVE SMOOTH",
"386 554 OFFCURVE",
"325 563 OFFCURVE",
"263 527 CURVE",
"238 542 LINE",
"249 570 LINE"
);
},
{
closed = 1;
nodes = (
"245 624 OFFCURVE",
"192 674 OFFCURVE",
"192 741 CURVE SMOOTH",
"192 756 OFFCURVE",
"200 762 OFFCURVE",
"249 762 CURVE SMOOTH",
"301 762 OFFCURVE",
"310 756 OFFCURVE",
"310 741 CURVE SMOOTH",
"310 674 OFFCURVE",
"253 624 OFFCURVE",
"268 553 CURVE",
"251 534 LINE",
"233 553 LINE"
);
},
{
closed = 0;
nodes = (
"250 547 LINE"
);
},
{
closed = 1;
nodes = (
"245 624 OFFCURVE",
"192 674 OFFCURVE",
"192 741 CURVE SMOOTH",
"192 756 OFFCURVE",
"200 762 OFFCURVE",
"249 762 CURVE SMOOTH",
"301 762 OFFCURVE",
"310 756 OFFCURVE",
"310 741 CURVE SMOOTH",
"310 674 OFFCURVE",
"253 624 OFFCURVE",
"268 553 CURVE",
"251 534 LINE",
"233 553 LINE"
);
},
{
closed = 0;
nodes = (
"250 547 LINE"
);
},
{
closed = 1;
nodes = (
"176 566 OFFCURVE",
"111 532 OFFCURVE",
"47 552 CURVE SMOOTH",
"33 557 OFFCURVE",
"30 566 OFFCURVE",
"46 613 CURVE SMOOTH",
"61 662 OFFCURVE",
"69 669 OFFCURVE",
"84 665 CURVE SMOOTH",
"148 644 OFFCURVE",
"178 575 OFFCURVE",
"250 566 CURVE",
"263 544 LINE",
"239 533 LINE"
);
},
{
closed = 1;
nodes = (
"209 483 OFFCURVE",
"222 411 OFFCURVE",
"182 357 CURVE SMOOTH",
"173 344 OFFCURVE",
"164 345 OFFCURVE",
"124 374 CURVE SMOOTH",
"82 404 OFFCURVE",
"78 414 OFFCURVE",
"87 426 CURVE SMOOTH",
"126 481 OFFCURVE",
"202 488 OFFCURVE",
"232 554 CURVE",
"257 559 LINE",
"260 533 LINE"
);
},
{
closed = 1;
nodes = (
"298 489 OFFCURVE",
"371 479 OFFCURVE",
"410 425 CURVE SMOOTH",
"419 412 OFFCURVE",
"416 403 OFFCURVE",
"376 374 CURVE SMOOTH",
"334 344 OFFCURVE",
"324 343 OFFCURVE",
"315 355 CURVE SMOOTH",
"275 410 OFFCURVE",
"291 483 OFFCURVE",
"238 532 CURVE",
"240 558 LINE",
"266 553 LINE"
);
},
{
closed = 1;
nodes = (
"320 576 OFFCURVE",
"352 642 OFFCURVE",
"416 662 CURVE SMOOTH",
"430 667 OFFCURVE",
"438 661 OFFCURVE",
"453 614 CURVE SMOOTH",
"469 565 OFFCURVE",
"467 555 OFFCURVE",
"453 550 CURVE SMOOTH",
"388 529 OFFCURVE",
"323 567 OFFCURVE",
"260 532 CURVE",
"237 542 LINE",
"249 565 LINE"
);
},
{
closed = 1;
nodes = (
"474 566 OFFCURVE",
"467 555 OFFCURVE",
"453 550 CURVE SMOOTH",
"393 531 OFFCURVE",
"333 562 OFFCURVE",
"275 538 CURVE",
"310 487 OFFCURVE",
"374 474 OFFCURVE",
"410 425 CURVE SMOOTH",
"419 412 OFFCURVE",
"418 398 OFFCURVE",
"378 369 CURVE SMOOTH",
"336 339 OFFCURVE",
"324 343 OFFCURVE",
"315 355 CURVE SMOOTH",
"278 405 OFFCURVE",
"289 472 OFFCURVE",
"249 521 CURVE",
"210 471 OFFCURVE",
"219 406 OFFCURVE",
"182 357 CURVE SMOOTH",
"173 344 OFFCURVE",
"161 340 OFFCURVE",
"121 369 CURVE SMOOTH",
"80 399 OFFCURVE",
"78 414 OFFCURVE",
"87 426 CURVE SMOOTH",
"123 476 OFFCURVE",
"190 487 OFFCURVE",
"224 540 CURVE",
"165 561 OFFCURVE",
"106 533 OFFCURVE",
"47 552 CURVE SMOOTH",
"33 557 OFFCURVE",
"25 568 OFFCURVE",
"41 615 CURVE SMOOTH",
"57 664 OFFCURVE",
"69 669 OFFCURVE",
"84 665 CURVE SMOOTH",
"143 645 OFFCURVE",
"173 585 OFFCURVE",
"234 569 CURVE",
"236 632 OFFCURVE",
"192 680 OFFCURVE",
"192 741 CURVE SMOOTH",
"192 756 OFFCURVE",
"200 767 OFFCURVE",
"249 767 CURVE SMOOTH",
"301 767 OFFCURVE",
"310 756 OFFCURVE",
"310 741 CURVE SMOOTH",
"310 679 OFFCURVE",
"262 631 OFFCURVE",
"266 569 CURVE",
"326 586 OFFCURVE",
"357 643 OFFCURVE",
"416 662 CURVE SMOOTH",
"430 667 OFFCURVE",
"443 662 OFFCURVE",
"458 615 CURVE SMOOTH",
"458 615 LINE SMOOTH"
);
},
{
closed = 0;
nodes = (
"250 547 LINE"
);
}
);
};
layerId = "65425FA6-FA16-4213-8FC2-6D5B41D5C5D9";
paths = (
{
closed = 1;
nodes = (
"663 702 OFFCURVE",
"689 694 OFFCURVE",
"774 756 CURVE SMOOTH",
"857 816 OFFCURVE",
"858 844 OFFCURVE",
"840 869 CURVE SMOOTH",
"766 971 OFFCURVE",
"634 997 OFFCURVE",
"563 1103 CURVE",
"682 1151 OFFCURVE",
"806 1087 OFFCURVE",
"927 1126 CURVE SMOOTH",
"956 1136 OFFCURVE",
"971 1160 OFFCURVE",
"938 1260 CURVE SMOOTH",
"907 1357 OFFCURVE",
"881 1366 OFFCURVE",
"852 1356 CURVE SMOOTH",
"732 1317 OFFCURVE",
"667 1200 OFFCURVE",
"544 1164 CURVE",
"536 1293 OFFCURVE",
"635 1391 OFFCURVE",
"635 1518 CURVE SMOOTH",
"635 1549 OFFCURVE",
"616 1570 OFFCURVE",
"511 1570 CURVE SMOOTH",
"409 1570 OFFCURVE",
"393 1549 OFFCURVE",
"393 1518 CURVE SMOOTH",
"393 1392 OFFCURVE",
"484 1294 OFFCURVE",
"480 1166 CURVE",
"355 1198 OFFCURVE",
"293 1322 OFFCURVE",
"172 1361 CURVE SMOOTH",
"142 1371 OFFCURVE",
"116 1360 OFFCURVE",
"83 1259 CURVE SMOOTH",
"52 1163 OFFCURVE",
"67 1141 OFFCURVE",
"97 1131 CURVE SMOOTH",
"217 1092 OFFCURVE",
"338 1149 OFFCURVE",
"459 1105 CURVE",
"390 997 OFFCURVE",
"253 976 OFFCURVE",
"178 872 CURVE SMOOTH",
"159 847 OFFCURVE",
"163 818 OFFCURVE",
"248 756 CURVE SMOOTH",
"330 696 OFFCURVE",
"355 705 OFFCURVE",
"373 730 CURVE SMOOTH",
"448 832 OFFCURVE",
"431 965 OFFCURVE",
"510 1066 CURVE",
"592 967 OFFCURVE",
"569 830 OFFCURVE",
"644 727 CURVE SMOOTH"
);
}
);
userData = {
com.adobe.type.autohint = "b''";
};
width = 1025;
}
);
unicode = 002A;
},
{
glyphname = plus;
lastChange = "2021-04-06 16:05:48 +0000";
layers = (
{
layerId = "67B138FD-4947-43F2-9353-3B08A6E9966B";
paths = (
{
closed = 1;
nodes = (
"1046 0 LINE",
"1046 530 LINE",
"1576 530 LINE",
"1576 652 LINE",
"1046 652 LINE",
"1046 1182 LINE",
"924 1182 LINE",
"924 652 LINE",
"394 652 LINE",
"394 530 LINE",
"924 530 LINE",
"924 0 LINE"
);
}
);
userData = {
com.adobe.type.autohint = "b''";
};
width = 1970;
},
{
layerId = "65425FA6-FA16-4213-8FC2-6D5B41D5C5D9";
paths = (
{
closed = 1;
nodes = (
"1046 0 LINE",
"1046 530 LINE",
"1576 530 LINE",
"1576 652 LINE",
"1046 652 LINE",
"1046 1182 LINE",
"924 1182 LINE",
"924 652 LINE",
"394 652 LINE",
"394 530 LINE",
"924 530 LINE",
"924 0 LINE"
);
}
);
userData = {
com.adobe.type.autohint = "b''";
};
width = 1970;
}
);
unicode = 002B;
},
{
glyphname = comma;
lastChange = "2021-04-06 16:12:05 +0000";
layers = (
{
background = {
paths = (
{
closed = 1;
nodes = (
"124 15 OFFCURVE",
"100 -8 OFFCURVE",
"77 -8 CURVE SMOOTH",
"53 -8 OFFCURVE",
"30 16 OFFCURVE",
"30 49 CURVE SMOOTH",
"30 86 OFFCURVE",
"56 105 OFFCURVE",
"77 105 CURVE SMOOTH",
"97 105 OFFCURVE",
"124 84 OFFCURVE",
"124 49 CURVE SMOOTH",
"124 49 LINE SMOOTH"
);
},
{
closed = 1;
nodes = (
"144 -114 OFFCURVE",
"50 -193 OFFCURVE",
"46 -181 CURVE SMOOTH",
"44 -172 OFFCURVE",
"118 -111 OFFCURVE",
"118 -16 CURVE SMOOTH",
"118 -6 OFFCURVE",
"112 5 OFFCURVE",
"109 5 CURVE SMOOTH",
"104 5 OFFCURVE",
"94 -8 OFFCURVE",
"83 -8 CURVE SMOOTH",
"62 -8 OFFCURVE",
"44 19 OFFCURVE",
"44 49 CURVE SMOOTH",
"44 84 OFFCURVE",
"68 103 OFFCURVE",
"87 103 CURVE SMOOTH",
"129 103 OFFCURVE",
"144 52 OFFCURVE",
"144 1 CURVE SMOOTH",
"144 1 LINE SMOOTH"
);
}
);
};
layerId = "67B138FD-4947-43F2-9353-3B08A6E9966B";
paths = (
{
closed = 1;
nodes = (
"109 -423 OFFCURVE",
"316 -250 OFFCURVE",
"316 3 CURVE SMOOTH",
"316 115 OFFCURVE",
"282 225 OFFCURVE",
"192 225 CURVE SMOOTH",
"150 225 OFFCURVE",
"96 183 OFFCURVE",
"96 107 CURVE SMOOTH {name = hr01;}",
"96 41 OFFCURVE",
"136 -17 OFFCURVE",
"181 -17 CURVE SMOOTH",
"206 -17 OFFCURVE",
"229 12 OFFCURVE",
"239 12 CURVE SMOOTH",
"247 12 OFFCURVE",
"259 -12 OFFCURVE",
"259 -35 CURVE SMOOTH",
"259 -244 OFFCURVE",
"96 -378 OFFCURVE",
"102 -397 CURVE SMOOTH"
);
}
);
userData = {
com.adobe.type.autohint = "b''";
};
width = 407;
},
{
background = {
paths = (
{
closed = 1;
nodes = (
"937 442 OFFCURVE",
"912 415 OFFCURVE",
"895 364 CURVE",
"880 415 OFFCURVE",
"853 442 OFFCURVE",
"800 442 CURVE SMOOTH",
"730 442 OFFCURVE",
"671 386 OFFCURVE",
"671 237 CURVE SMOOTH",
"671 85 OFFCURVE",
"702 32 OFFCURVE",
"755 -3 CURVE SMOOTH",
"769 -13 OFFCURVE",
"774 -11 OFFCURVE",
"792 24 CURVE SMOOTH",
"808 55 OFFCURVE",
"805 63 OFFCURVE",
"792 65 CURVE SMOOTH",
"751 73 OFFCURVE",
"713 123 OFFCURVE",
"713 222 CURVE SMOOTH",
"713 312 OFFCURVE",
"746 334 OFFCURVE",
"805 334 CURVE SMOOTH",
"850 334 OFFCURVE",
"871 310 OFFCURVE",
"871 285 CURVE SMOOTH",
"871 270 OFFCURVE",
"869 263 OFFCURVE",
"869 251 CURVE SMOOTH",
"869 247 OFFCURVE",
"875 244 OFFCURVE",
"895 244 CURVE SMOOTH",
"918 244 OFFCURVE",
"922 247 OFFCURVE",
"922 251 CURVE SMOOTH",
"921 265 OFFCURVE",
"921 270 OFFCURVE",
"921 285 CURVE SMOOTH",
"921 310 OFFCURVE",
"943 337 OFFCURVE",
"986 337 CURVE SMOOTH",
"1061 337 OFFCURVE",
"1082 310 OFFCURVE",
"1082 91 CURVE SMOOTH",
"1082 -186 OFFCURVE",
"1028 -193 OFFCURVE",
"995 -193 CURVE SMOOTH",
"955 -193 OFFCURVE",
"939 -181 OFFCURVE",
"939 -123 CURVE SMOOTH",
"939 -110 OFFCURVE",
"945 -71 OFFCURVE",
"949 -55 CURVE SMOOTH",
"953 -42 OFFCURVE",
"954 -37 OFFCURVE",
"950 -34 CURVE SMOOTH",
"947 -32 OFFCURVE",
"939 -36 OFFCURVE",
"931 -54 CURVE SMOOTH",
"923 -72 OFFCURVE",
"907 -104 OFFCURVE",
"907 -154 CURVE SMOOTH",
"907 -211 OFFCURVE",
"931 -278 OFFCURVE",
"993 -278 CURVE SMOOTH",
"1072 -278 OFFCURVE",
"1149 -233 OFFCURVE",
"1149 94 CURVE SMOOTH",
"1149 401 OFFCURVE",
"1089 442 OFFCURVE",
"990 442 CURVE SMOOTH",
"990 442 LINE SMOOTH"
);
},
{
closed = 1;
nodes = (
"309 442 OFFCURVE",
"277 415 OFFCURVE",
"260 364 CURVE",
"245 415 OFFCURVE",
"218 442 OFFCURVE",
"165 442 CURVE SMOOTH",
"96 442 OFFCURVE",
"37 386 OFFCURVE",
"37 237 CURVE SMOOTH",
"37 97 OFFCURVE",
"65 23 OFFCURVE",
"105 -6 CURVE SMOOTH",
"116 -13 OFFCURVE",
"127 -14 OFFCURVE",
"151 24 CURVE SMOOTH",
"169 54 OFFCURVE",
"166 67 OFFCURVE",
"152 73 CURVE SMOOTH",
"112 88 OFFCURVE",
"79 127 OFFCURVE",
"79 241 CURVE SMOOTH",
"79 300 OFFCURVE",
"110 322 OFFCURVE",
"166 322 CURVE SMOOTH",
"209 322 OFFCURVE",
"229 284 OFFCURVE",
"231 265 CURVE SMOOTH",
"232 254 OFFCURVE",
"229 243 OFFCURVE",
"229 232 CURVE SMOOTH",
"229 228 OFFCURVE",
"241 222 OFFCURVE",
"260 222 CURVE SMOOTH",
"283 222 OFFCURVE",
"293 227 OFFCURVE",
"292 231 CURVE SMOOTH",
"292 245 OFFCURVE",
"287 250 OFFCURVE",
"292 265 CURVE SMOOTH",
"298 288 OFFCURVE",
"314 322 OFFCURVE",
"356 322 CURVE SMOOTH",
"427 322 OFFCURVE",
"447 299 OFFCURVE",
"447 91 CURVE SMOOTH",
"447 -186 OFFCURVE",
"394 -193 OFFCURVE",
"360 -193 CURVE SMOOTH",
"320 -193 OFFCURVE",
"304 -181 OFFCURVE",
"304 -123 CURVE SMOOTH",
"304 -110 OFFCURVE",
"310 -71 OFFCURVE",
"314 -55 CURVE SMOOTH",
"318 -42 OFFCURVE",
"319 -37 OFFCURVE",
"315 -34 CURVE SMOOTH",
"312 -32 OFFCURVE",
"304 -36 OFFCURVE",
"296 -54 CURVE SMOOTH",
"288 -72 OFFCURVE",
"272 -104 OFFCURVE",
"272 -154 CURVE SMOOTH",
"272 -211 OFFCURVE",
"296 -278 OFFCURVE",
"358 -278 CURVE SMOOTH",
"437 -278 OFFCURVE",
"515 -233 OFFCURVE",
"515 94 CURVE SMOOTH",
"515 401 OFFCURVE",
"455 442 OFFCURVE",
"355 442 CURVE SMOOTH",
"355 442 LINE SMOOTH"
);
}
);
};
layerId = "65425FA6-FA16-4213-8FC2-6D5B41D5C5D9";
paths = (
{
closed = 1;
nodes = (
"130 -423 OFFCURVE",
"358 -286 OFFCURVE",
"358 56 CURVE SMOOTH",
"358 185 OFFCURVE",
"308 296 OFFCURVE",
"212 296 CURVE SMOOTH",
"149 296 OFFCURVE",
"96 238 OFFCURVE",
"96 138 CURVE SMOOTH {name = hr01;}",
"96 37 OFFCURVE",
"158 -17 OFFCURVE",
"212 -17 CURVE SMOOTH",
"242 -17 OFFCURVE",
"250 10 OFFCURVE",
"260 10 CURVE SMOOTH",
"268 10 OFFCURVE",
"273 -21 OFFCURVE",
"273 -56 CURVE SMOOTH",
"273 -227 OFFCURVE",
"117 -378 OFFCURVE",
"123 -397 CURVE SMOOTH"
);
}
);
userData = {
com.adobe.type.autohint = "b''";
};
width = 449;
}
);
unicode = 002C;
},
{
glyphname = hyphen;
lastChange = "2021-04-06 16:12:05 +0000";
layers = (
{
background = {
paths = (
{
closed = 1;
nodes = (
"427 651 OFFCURVE",
"411 601 OFFCURVE",
"298 358 CURVE SMOOTH",
"220 191 OFFCURVE",
"185 41 OFFCURVE",
"185 0 CURVE SMOOTH",
"185 -11 OFFCURVE",
"181 -11 OFFCURVE",
"147 -2 CURVE SMOOTH",
"119 5 OFFCURVE",
"111 10 OFFCURVE",
"113 21 CURVE SMOOTH",
"118 62 OFFCURVE",
"177 230 OFFCURVE",
"247 381 CURVE SMOOTH",
"352 606 OFFCURVE",
"357 652 OFFCURVE",
"357 661 CURVE SMOOTH",
"357 670 OFFCURVE",
"355 676 OFFCURVE",
"345 676 CURVE SMOOTH",
"291 676 OFFCURVE",
"238 676 OFFCURVE",
"185 676 CURVE SMOOTH",
"140 676 OFFCURVE",
"101 675 OFFCURVE",
"63 660 CURVE SMOOTH",
"59 658 OFFCURVE",
"53 666 OFFCURVE",
"49 686 CURVE SMOOTH",
"45 709 OFFCURVE",
"45 719 OFFCURVE",
"51 720 CURVE SMOOTH",
"89 728 OFFCURVE",
"131 728 OFFCURVE",
"199 728 CURVE SMOOTH",
"269 728 OFFCURVE",
"338 728 OFFCURVE",
"407 728 CURVE SMOOTH",
"418 728 OFFCURVE",
"419 720 OFFCURVE",
"424 700 CURVE SMOOTH",
"430 676 OFFCURVE",
"427 673 OFFCURVE",
"427 662 CURVE SMOOTH",
"427 662 LINE SMOOTH"
);
},
{
closed = 1;
nodes = (
"428 639 OFFCURVE",
"401 601 OFFCURVE",
"288 358 CURVE SMOOTH",
"210 191 OFFCURVE",
"185 41 OFFCURVE",
"185 0 CURVE SMOOTH",
"185 -11 OFFCURVE",
"181 -11 OFFCURVE",
"147 -2 CURVE SMOOTH",
"119 5 OFFCURVE",
"111 10 OFFCURVE",
"113 21 CURVE SMOOTH",
"118 62 OFFCURVE",
"177 230 OFFCURVE",
"247 381 CURVE SMOOTH",
"352 606 OFFCURVE",
"357 643 OFFCURVE",
"357 669 CURVE SMOOTH",
"357 678 OFFCURVE",
"355 684 OFFCURVE",
"345 684 CURVE SMOOTH",
"185 684 LINE SMOOTH",
"140 684 OFFCURVE",
"101 675 OFFCURVE",
"63 660 CURVE SMOOTH",
"59 658 OFFCURVE",
"53 666 OFFCURVE",
"49 686 CURVE SMOOTH",
"45 709 OFFCURVE",
"45 719 OFFCURVE",
"51 720 CURVE SMOOTH",
"89 728 OFFCURVE",
"131 728 OFFCURVE",
"199 728 CURVE SMOOTH",
"407 728 LINE SMOOTH",
"415 728 OFFCURVE",
"418 725 OFFCURVE",
"424 700 CURVE SMOOTH",
"427 690 OFFCURVE",
"428 685 OFFCURVE",
"428 674 CURVE SMOOTH",
"428 674 LINE SMOOTH"
);
}
);
};
layerId = "67B138FD-4947-43F2-9353-3B08A6E9966B";
paths = (
{
closed = 1;
nodes = (
"490 505 LINE SMOOTH",
"510 505 OFFCURVE",
"517 507 OFFCURVE",
"517 551 CURVE SMOOTH",
"517 591 OFFCURVE",
"509 594 OFFCURVE",
"488 594 CURVE SMOOTH",
"147 594 LINE SMOOTH",
"124 594 OFFCURVE",
"118 591 OFFCURVE",
"118 551 CURVE SMOOTH",
"118 508 OFFCURVE",
"123 505 OFFCURVE",
"144 505 CURVE SMOOTH"
);
}
);
userData = {
com.adobe.type.autohint = "b''";
};
width = 635;
},
{
background = {
paths = (
{
closed = 1;
nodes = (
"540 215 OFFCURVE",
"542 217 OFFCURVE",
"542 243 CURVE SMOOTH",
"542 267 OFFCURVE",
"539 270 OFFCURVE",
"532 270 CURVE SMOOTH",
"387 270 LINE SMOOTH",
"379 270 OFFCURVE",
"377 268 OFFCURVE",
"377 243 CURVE SMOOTH",
"377 217 OFFCURVE",
"379 215 OFFCURVE",
"386 215 CURVE SMOOTH",
"533 215 LINE"
);
},
{
closed = 1;
nodes = (
"540 215 OFFCURVE",
"542 217 OFFCURVE",
"542 243 CURVE SMOOTH",
"542 267 OFFCURVE",
"539 270 OFFCURVE",
"532 270 CURVE SMOOTH",
"387 270 LINE SMOOTH",
"379 270 OFFCURVE",
"377 268 OFFCURVE",
"377 243 CURVE SMOOTH",
"377 217 OFFCURVE",
"379 215 OFFCURVE",
"386 215 CURVE SMOOTH",
"533 215 LINE"
);
},
{
closed = 1;
nodes = (
"233 230 OFFCURVE",
"236 232 OFFCURVE",
"236 251 CURVE SMOOTH",
"236 270 OFFCURVE",
"232 271 OFFCURVE",
"223 271 CURVE SMOOTH",
"67 271 LINE SMOOTH",
"56 271 OFFCURVE",
"54 270 OFFCURVE",
"54 251 CURVE SMOOTH",
"54 232 OFFCURVE",
"56 230 OFFCURVE",
"65 230 CURVE SMOOTH",
"224 230 LINE"
);
},
{
closed = 1;
nodes = (
"540 215 OFFCURVE",
"542 217 OFFCURVE",
"542 243 CURVE SMOOTH",
"542 267 OFFCURVE",
"539 270 OFFCURVE",
"532 270 CURVE SMOOTH",
"387 270 LINE SMOOTH",
"379 270 OFFCURVE",
"377 268 OFFCURVE",
"377 243 CURVE SMOOTH",
"377 217 OFFCURVE",
"379 215 OFFCURVE",
"386 215 CURVE SMOOTH",
"533 215 LINE"
);
},
{
closed = 1;
nodes = (
"540 215 OFFCURVE",
"542 217 OFFCURVE",
"542 243 CURVE SMOOTH",
"542 267 OFFCURVE",
"539 270 OFFCURVE",
"532 270 CURVE SMOOTH",
"387 270 LINE SMOOTH",
"379 270 OFFCURVE",
"377 268 OFFCURVE",
"377 243 CURVE SMOOTH",
"377 217 OFFCURVE",
"379 215 OFFCURVE",
"386 215 CURVE SMOOTH",
"533 215 LINE"
);
},
{
closed = 1;
nodes = (
"526 230 OFFCURVE",
"529 232 OFFCURVE",
"529 251 CURVE SMOOTH",
"529 270 OFFCURVE",
"525 271 OFFCURVE",
"516 271 CURVE SMOOTH",
"360 271 LINE SMOOTH",
"349 271 OFFCURVE",
"347 270 OFFCURVE",
"347 251 CURVE SMOOTH",
"347 232 OFFCURVE",
"349 230 OFFCURVE",
"358 230 CURVE SMOOTH",
"517 230 LINE"
);
},
{
closed = 1;
nodes = (
"252 225 OFFCURVE",
"254 225 OFFCURVE",
"254 251 CURVE SMOOTH",
"254 276 OFFCURVE",
"251 278 OFFCURVE",
"244 278 CURVE SMOOTH",
"45 278 LINE SMOOTH",
"38 278 OFFCURVE",
"35 276 OFFCURVE",
"35 251 CURVE SMOOTH",
"35 225 OFFCURVE",
"37 225 OFFCURVE",
"44 225 CURVE SMOOTH",
"245 225 LINE"
);
}
);
};
layerId = "65425FA6-FA16-4213-8FC2-6D5B41D5C5D9";
paths = (
{
closed = 1;
nodes = (
"598 472 LINE SMOOTH",
"613 472 OFFCURVE",
"618 493 OFFCURVE",
"618 551 CURVE SMOOTH",
"618 604 OFFCURVE",
"612 630 OFFCURVE",
"596 630 CURVE SMOOTH",
"140 630 LINE SMOOTH",
"123 630 OFFCURVE",
"118 604 OFFCURVE",
"118 551 CURVE SMOOTH",
"118 493 OFFCURVE",
"121 472 OFFCURVE",
"137 472 CURVE SMOOTH"
);
}
);
width = 736;
}
);
unicode = 002D;
},
{
glyphname = period;
lastChange = "2021-04-06 16:12:05 +0000";
layers = (
{
background = {
paths = (
{
closed = 1;
nodes = (
"124 15 OFFCURVE",
"100 -8 OFFCURVE",
"77 -8 CURVE SMOOTH",
"53 -8 OFFCURVE",
"30 16 OFFCURVE",
"30 49 CURVE SMOOTH",
"30 86 OFFCURVE",
"56 105 OFFCURVE",
"77 105 CURVE SMOOTH",
"97 105 OFFCURVE",
"124 84 OFFCURVE",
"124 49 CURVE SMOOTH",
"124 49 LINE SMOOTH"
);
},
{
closed = 1;
nodes = (
"128 15 OFFCURVE",
"109 -8 OFFCURVE",
"86 -8 CURVE SMOOTH",
"62 -8 OFFCURVE",
"44 16 OFFCURVE",
"44 49 CURVE SMOOTH",
"44 86 OFFCURVE",
"65 105 OFFCURVE",
"86 105 CURVE SMOOTH",
"107 105 OFFCURVE",
"128 84 OFFCURVE",
"128 49 CURVE SMOOTH",
"128 49 LINE SMOOTH"
);
},
{
closed = 1;
nodes = (
"137 12 OFFCURVE",
"114 -15 OFFCURVE",
"81 -15 CURVE SMOOTH",
"46 -15 OFFCURVE",
"25 12 OFFCURVE",
"25 43 CURVE SMOOTH",
"25 75 OFFCURVE",
"49 99 OFFCURVE",
"81 99 CURVE SMOOTH",
"111 99 OFFCURVE",
"137 76 OFFCURVE",
"137 43 CURVE SMOOTH",
"137 43 LINE SMOOTH"
);
}
);
};
layerId = "67B138FD-4947-43F2-9353-3B08A6E9966B";
paths = (
{
closed = 1;
nodes = (
"239 -18 OFFCURVE",
"281 32 OFFCURVE",
"281 108 CURVE SMOOTH",
"281 184 OFFCURVE",
"233 230 OFFCURVE",
"188 230 CURVE SMOOTH",
"143 230 OFFCURVE",
"96 188 OFFCURVE",
"96 108 CURVE SMOOTH",
"96 34 OFFCURVE",
"136 -18 OFFCURVE",
"188 -18 CURVE SMOOTH"
);
}
);
userData = {
com.adobe.type.autohint = "b''";
};
width = 377;
},
{
background = {
paths = (
{
closed = 1;
nodes = (
"310 15 OFFCURVE",
"285 -8 OFFCURVE",
"262 -8 CURVE SMOOTH",
"238 -8 OFFCURVE",
"215 16 OFFCURVE",
"215 49 CURVE SMOOTH",
"215 86 OFFCURVE",
"242 105 OFFCURVE",
"262 105 CURVE SMOOTH",
"283 105 OFFCURVE",
"310 84 OFFCURVE",
"310 49 CURVE SMOOTH",
"310 49 LINE SMOOTH"
);
},
{
closed = 1;
nodes = (
"314 15 OFFCURVE",
"295 -8 OFFCURVE",
"271 -8 CURVE SMOOTH",
"248 -8 OFFCURVE",
"229 16 OFFCURVE",
"229 49 CURVE SMOOTH",
"229 86 OFFCURVE",
"251 105 OFFCURVE",
"271 105 CURVE SMOOTH",
"292 105 OFFCURVE",
"314 84 OFFCURVE",
"314 49 CURVE SMOOTH",
"314 49 LINE SMOOTH"
);
},
{
closed = 1;
nodes = (
"128 15 OFFCURVE",
"109 -8 OFFCURVE",
"86 -8 CURVE SMOOTH",
"62 -8 OFFCURVE",
"44 16 OFFCURVE",
"44 49 CURVE SMOOTH",
"44 86 OFFCURVE",
"65 105 OFFCURVE",
"86 105 CURVE SMOOTH",
"107 105 OFFCURVE",
"128 84 OFFCURVE",
"128 49 CURVE SMOOTH",
"128 49 LINE SMOOTH"
);
}
);
};
layerId = "65425FA6-FA16-4213-8FC2-6D5B41D5C5D9";
paths = (
{
closed = 1;
nodes = (
"273 -17 OFFCURVE",
"325 45 OFFCURVE",
"325 141 CURVE SMOOTH",
"325 243 OFFCURVE",
"273 295 OFFCURVE",
"211 295 CURVE SMOOTH",
"153 295 OFFCURVE",
"96 242 OFFCURVE",
"96 141 CURVE SMOOTH",
"96 43 OFFCURVE",
"152 -17 OFFCURVE",
"211 -17 CURVE SMOOTH"
);
}
);
userData = {
com.adobe.type.autohint = "b''";
};
width = 421;
}
);
unicode = 002E;
},
{
glyphname = slash;
lastChange = "2021-04-06 16:12:05 +0000";
layers = (
{
background = {
paths = (
{
closed = 1;
nodes = (
"43 -15 LINE",
"1 -15 LINE",
"251 722 LINE",
"291 722 LINE"
);
},
{
closed = 1;
nodes = (
"57 -16 LINE",
"1 -16 LINE",
"269 773 LINE",
"322 773 LINE"
);
}
);
};
layerId = "67B138FD-4947-43F2-9353-3B08A6E9966B";
paths = (
{
closed = 1;
nodes = (
"105 -35 OFFCURVE",
"118 -28 OFFCURVE",
"122 -16 CURVE SMOOTH",
"653 1564 LINE SMOOTH",
"658 1579 OFFCURVE",
"648 1584 OFFCURVE",
"605 1584 CURVE SMOOTH",
"561 1584 OFFCURVE",
"549 1579 OFFCURVE",
"544 1564 CURVE SMOOTH",
"8 -16 LINE SMOOTH",
"4 -28 OFFCURVE",
"12 -35 OFFCURVE",
"59 -35 CURVE SMOOTH"
);
}
);
width = 633;
},
{
background = {
paths = (
{
closed = 1;
nodes = (
"43 -15 LINE",
"1 -15 LINE",
"251 722 LINE",
"291 722 LINE"
);
},
{
closed = 1;
nodes = (
"77 -16 LINE",
"1 -16 LINE",
"269 773 LINE",
"343 773 LINE"
);
}
);
};
layerId = "65425FA6-FA16-4213-8FC2-6D5B41D5C5D9";
paths = (
{
closed = 1;
nodes = (
"125 -35 OFFCURVE",
"158 -28 OFFCURVE",
"162 -16 CURVE SMOOTH",
"693 1564 LINE SMOOTH",
"698 1579 OFFCURVE",
"668 1584 OFFCURVE",
"625 1584 CURVE SMOOTH",
"581 1584 OFFCURVE",
"549 1579 OFFCURVE",
"544 1564 CURVE SMOOTH",
"8 -16 LINE SMOOTH",
"4 -28 OFFCURVE",
"32 -35 OFFCURVE",
"79 -35 CURVE SMOOTH"
);
}
);
width = 697;
}
);
unicode = 002F;
},
{
glyphname = zero;
lastChange = "2021-04-06 16:12:05 +0000";
layers = (
{
background = {
paths = (
{
closed = 1;
nodes = (
"428 192 OFFCURVE",
"396 -8 OFFCURVE",
"233 -8 CURVE SMOOTH",
"87 -8 OFFCURVE",
"39 191 OFFCURVE",
"39 361 CURVE SMOOTH",
"39 549 OFFCURVE",
"91 731 OFFCURVE",
"233 731 CURVE SMOOTH",
"390 731 OFFCURVE",
"428 550 OFFCURVE",
"428 361 CURVE SMOOTH",
"428 361 LINE SMOOTH"
);
},
{
closed = 1;
nodes = (
"151 692 OFFCURVE",
"105 566 OFFCURVE",
"105 361 CURVE SMOOTH",
"105 156 OFFCURVE",
"152 31 OFFCURVE",
"233 31 CURVE SMOOTH",
"321 31 OFFCURVE",
"363 162 OFFCURVE",
"363 361 CURVE SMOOTH",
"363 566 OFFCURVE",
"318 692 OFFCURVE",
"233 692 CURVE SMOOTH",
"233 692 LINE SMOOTH"
);
}
);
};
layerId = "67B138FD-4947-43F2-9353-3B08A6E9966B";
paths = (
{
closed = 1;
nodes = (
"811 -17 OFFCURVE",
"876 393 OFFCURVE",
"876 740 CURVE SMOOTH",
"876 1127 OFFCURVE",
"798 1498 OFFCURVE",
"478 1498 CURVE SMOOTH",
"187 1498 OFFCURVE",
"80 1124 OFFCURVE",
"80 740 CURVE SMOOTH",
"80 391 OFFCURVE",
"179 -17 OFFCURVE",
"478 -17 CURVE SMOOTH"
);
},
{
closed = 1;
nodes = (
"311 64 OFFCURVE",
"215 320 OFFCURVE",
"215 740 CURVE SMOOTH",
"215 1160 OFFCURVE",
"309 1417 OFFCURVE",
"478 1417 CURVE SMOOTH",
"651 1417 OFFCURVE",
"743 1160 OFFCURVE",
"743 740 CURVE SMOOTH",
"743 331 OFFCURVE",
"657 64 OFFCURVE",
"478 64 CURVE SMOOTH"
);
}
);
userData = {
com.adobe.type.autohint = "b''";
};
width = 956;
},
{
background = {
paths = (
{
closed = 1;
nodes = (
"428 192 OFFCURVE",
"396 -8 OFFCURVE",
"233 -8 CURVE SMOOTH",
"87 -8 OFFCURVE",
"39 191 OFFCURVE",
"39 361 CURVE SMOOTH",
"39 549 OFFCURVE",
"91 731 OFFCURVE",
"233 731 CURVE SMOOTH",
"390 731 OFFCURVE",
"428 550 OFFCURVE",
"428 361 CURVE SMOOTH",
"428 361 LINE SMOOTH"
);
},
{
closed = 1;
nodes = (
"363 566 OFFCURVE",
"318 692 OFFCURVE",
"233 692 CURVE SMOOTH",
"151 692 OFFCURVE",
"105 566 OFFCURVE",
"105 361 CURVE SMOOTH",
"105 156 OFFCURVE",
"152 31 OFFCURVE",
"233 31 CURVE SMOOTH",
"321 31 OFFCURVE",
"363 162 OFFCURVE",
"363 361 CURVE SMOOTH",
"363 361 LINE SMOOTH"
);
}
);
};
layerId = "65425FA6-FA16-4213-8FC2-6D5B41D5C5D9";
paths = (
{
closed = 1;
nodes = (
"800 -17 OFFCURVE",
"896 393 OFFCURVE",
"896 740 CURVE SMOOTH",
"896 1127 OFFCURVE",
"789 1498 OFFCURVE",
"478 1498 CURVE SMOOTH",
"199 1498 OFFCURVE",
"60 1124 OFFCURVE",
"60 740 CURVE SMOOTH",
"60 391 OFFCURVE",
"185 -17 OFFCURVE",
"478 -17 CURVE SMOOTH"
);
},
{
closed = 1;
nodes = (
"346 43 OFFCURVE",
"322 320 OFFCURVE",
"322 740 CURVE SMOOTH",
"322 1160 OFFCURVE",
"349 1438 OFFCURVE",
"478 1438 CURVE SMOOTH",
"617 1438 OFFCURVE",
"636 1160 OFFCURVE",
"636 740 CURVE SMOOTH {name = hr01;}",
"636 331 OFFCURVE",
"609 43 OFFCURVE",
"478 43 CURVE SMOOTH"
);
}
);
userData = {
com.adobe.type.autohint = "b''";
};
width = 956;
}
);
unicode = 0030;
},
{
glyphname = one;
lastChange = "2021-04-06 16:12:05 +0000";
layers = (
{
background = {
paths = (
{
closed = 1;
nodes = (
"252 683 OFFCURVE",
"257 509 OFFCURVE",
"257 380 CURVE SMOOTH",
"257 251 OFFCURVE",
"252 37 OFFCURVE",
"252 12 CURVE SMOOTH",
"252 -8 OFFCURVE",
"262 -8 OFFCURVE",
"287 -8 CURVE SMOOTH",
"312 -8 OFFCURVE",
"322 -8 OFFCURVE",
"322 12 CURVE SMOOTH",
"322 37 OFFCURVE",
"317 251 OFFCURVE",
"317 380 CURVE SMOOTH",
"317 509 OFFCURVE",
"322 683 OFFCURVE",
"322 711 CURVE SMOOTH",
"322 731 OFFCURVE",
"312 731 OFFCURVE",
"287 731 CURVE SMOOTH",
"263 731 OFFCURVE",
"252 731 OFFCURVE",
"252 711 CURVE SMOOTH",
"252 711 LINE SMOOTH"
);
},
{
closed = 1;
nodes = (
"175 512 OFFCURVE",
"307 661 OFFCURVE",
"323 699 CURVE",
"323 699 OFFCURVE",
"266 744 OFFCURVE",
"259 722 CURVE SMOOTH",
"246 679 OFFCURVE",
"117 511 OFFCURVE",
"100 493 CURVE SMOOTH",
"93 487 OFFCURVE",
"101 478 OFFCURVE",
"117 464 CURVE SMOOTH",
"132 452 OFFCURVE",
"143 445 OFFCURVE",
"147 455 CURVE SMOOTH",
"147 455 LINE SMOOTH"
);
}
);
};
layerId = "67B138FD-4947-43F2-9353-3B08A6E9966B";
paths = (
{
closed = 1;
nodes = (
"640 -17 OFFCURVE",
"660 -17 OFFCURVE",
"660 24 CURVE SMOOTH",
"660 76 OFFCURVE",
"650 510 OFFCURVE",
"650 774 CURVE SMOOTH {name = hr03;}",
"650 998 OFFCURVE",
"658 1223 OFFCURVE",
"660 1447 CURVE SMOOTH",
"660 1488 OFFCURVE",
"638 1488 OFFCURVE",
"588 1488 CURVE SMOOTH",
"538 1488 OFFCURVE",
"516 1488 OFFCURVE",
"516 1447 CURVE SMOOTH {name = hr02;}",
"516 1402 OFFCURVE",
"255 1054 OFFCURVE",
"204 1000 CURVE SMOOTH",
"191 986 OFFCURVE",
"206 968 OFFCURVE",
"239 941 CURVE SMOOTH",
"270 916 OFFCURVE",
"292 902 OFFCURVE",
"302 922 CURVE SMOOTH",
"334 987 OFFCURVE",
"433 1150 OFFCURVE",
"518 1263 CURVE",
"521 1129 OFFCURVE",
"526 919 OFFCURVE",
"526 774 CURVE SMOOTH {name = hr01;}",
"526 510 OFFCURVE",
"516 76 OFFCURVE",
"516 24 CURVE SMOOTH",
"516 -17 OFFCURVE",
"536 -17 OFFCURVE",
"588 -17 CURVE SMOOTH"
);
}
);
userData = {
com.adobe.type.autohint = "b''";
};
width = 956;
},
{
background = {
paths = (
{
closed = 1;
nodes = (
"322 -8 OFFCURVE",
"312 -8 OFFCURVE",
"287 -8 CURVE SMOOTH",
"262 -8 OFFCURVE",
"252 -8 OFFCURVE",
"252 12 CURVE SMOOTH",
"252 37 OFFCURVE",
"257 249 OFFCURVE",
"257 378 CURVE SMOOTH",
"257 449 OFFCURVE",
"254 551 OFFCURVE",
"253 617 CURVE",
"211 562 OFFCURVE",
"163 482 OFFCURVE",
"147 450 CURVE SMOOTH",
"143 441 OFFCURVE",
"132 447 OFFCURVE",
"117 459 CURVE SMOOTH",
"101 473 OFFCURVE",
"93 482 OFFCURVE",
"100 488 CURVE SMOOTH",
"125 515 OFFCURVE",
"252 685 OFFCURVE",
"252 707 CURVE SMOOTH",
"252 727 OFFCURVE",
"263 727 OFFCURVE",
"287 727 CURVE SMOOTH",
"312 727 OFFCURVE",
"322 727 OFFCURVE",
"322 707 CURVE SMOOTH",
"321 597 OFFCURVE",
"317 487 OFFCURVE",
"317 378 CURVE SMOOTH",
"317 249 OFFCURVE",
"322 37 OFFCURVE",
"322 12 CURVE SMOOTH",
"322 12 LINE SMOOTH"
);
},
{
closed = 1;
nodes = (
"252 683 OFFCURVE",
"257 509 OFFCURVE",
"257 380 CURVE SMOOTH",
"257 251 OFFCURVE",
"252 37 OFFCURVE",
"252 12 CURVE SMOOTH",
"252 -8 OFFCURVE",
"262 -8 OFFCURVE",
"287 -8 CURVE SMOOTH",
"312 -8 OFFCURVE",
"322 -8 OFFCURVE",
"322 12 CURVE SMOOTH",
"322 37 OFFCURVE",
"317 251 OFFCURVE",
"317 380 CURVE SMOOTH",
"317 509 OFFCURVE",
"322 683 OFFCURVE",
"322 711 CURVE SMOOTH",
"322 731 OFFCURVE",
"312 731 OFFCURVE",
"287 731 CURVE SMOOTH",
"263 731 OFFCURVE",
"252 731 OFFCURVE",
"252 711 CURVE SMOOTH",
"252 711 LINE SMOOTH"
);
},
{
closed = 1;
nodes = (
"175 512 OFFCURVE",
"307 661 OFFCURVE",
"323 699 CURVE",
"323 699 OFFCURVE",
"266 744 OFFCURVE",
"259 722 CURVE SMOOTH",
"246 679 OFFCURVE",
"117 511 OFFCURVE",
"100 493 CURVE SMOOTH",
"93 487 OFFCURVE",
"101 478 OFFCURVE",
"117 464 CURVE SMOOTH",
"132 452 OFFCURVE",
"143 445 OFFCURVE",
"147 455 CURVE SMOOTH",
"147 455 LINE SMOOTH"
);
},
{
closed = 0;
nodes = (
"174 -5 LINE",
"214 -5 OFFCURVE",
"236 19 OFFCURVE",
"236 416 CURVE SMOOTH",
"236 663 OFFCURVE",
"229 695 OFFCURVE",
"229 705 CURVE SMOOTH",
"230 717 OFFCURVE",
"239 724 OFFCURVE",
"281 724 CURVE SMOOTH",
"333 724 OFFCURVE",
"340 719 OFFCURVE",
"340 707 CURVE SMOOTH",
"340 696 OFFCURVE",
"338 405 OFFCURVE",
"338 280 CURVE SMOOTH",
"338 24 OFFCURVE",
"292 -39 OFFCURVE",
"176 -39 CURVE SMOOTH"
);
},
{
closed = 1;
nodes = (
"231 678 OFFCURVE",
"241 504 OFFCURVE",
"241 375 CURVE SMOOTH",
"241 247 OFFCURVE",
"231 37 OFFCURVE",
"231 12 CURVE SMOOTH",
"231 -8 OFFCURVE",
"262 -8 OFFCURVE",
"287 -8 CURVE SMOOTH",
"312 -8 OFFCURVE",
"343 -8 OFFCURVE",
"343 12 CURVE SMOOTH",
"343 37 OFFCURVE",
"333 247 OFFCURVE",
"333 375 CURVE SMOOTH",
"333 504 OFFCURVE",
"343 678 OFFCURVE",
"343 707 CURVE SMOOTH",
"343 727 OFFCURVE",
"312 727 OFFCURVE",
"287 727 CURVE SMOOTH",
"263 727 OFFCURVE",
"231 727 OFFCURVE",
"231 707 CURVE SMOOTH",
"231 707 LINE SMOOTH"
);
},
{
closed = 1;
nodes = (
"180 525 OFFCURVE",
"244 657 OFFCURVE",
"277 693 CURVE",
"277 693 OFFCURVE",
"242 733 OFFCURVE",
"235 711 CURVE SMOOTH",
"222 668 OFFCURVE",
"104 513 OFFCURVE",
"85 496 CURVE SMOOTH",
"79 489 OFFCURVE",
"85 479 OFFCURVE",
"118 455 CURVE SMOOTH",
"139 439 OFFCURVE",
"156 436 OFFCURVE",
"159 446 CURVE SMOOTH",
"159 446 LINE SMOOTH"
);
}
);
};
layerId = "65425FA6-FA16-4213-8FC2-6D5B41D5C5D9";
paths = (
{
closed = 1;
nodes = (
"640 -17 OFFCURVE",
"703 -17 OFFCURVE",
"703 24 CURVE SMOOTH",
"703 76 OFFCURVE",
"683 505 OFFCURVE",
"683 769 CURVE SMOOTH {name = hr03;}",
"683 1033 OFFCURVE",
"703 1389 OFFCURVE",
"703 1447 CURVE SMOOTH",
"703 1488 OFFCURVE",
"638 1488 OFFCURVE",
"588 1488 CURVE SMOOTH",
"538 1488 OFFCURVE",
"476 1488 OFFCURVE",
"473 1447 CURVE SMOOTH {name = hr02;}",
"469 1400 OFFCURVE",
"226 1063 OFFCURVE",
"175 1015 CURVE SMOOTH",
"161 1002 OFFCURVE",
"175 980 OFFCURVE",
"241 931 CURVE SMOOTH",
"285 898 OFFCURVE",
"319 893 OFFCURVE",
"325 914 CURVE SMOOTH",
"353 1018 OFFCURVE",
"418 1169 OFFCURVE",
"479 1281 CURVE",
"485 1140 OFFCURVE",
"493 936 OFFCURVE",
"493 769 CURVE SMOOTH {name = hr01;}",
"493 505 OFFCURVE",
"473 76 OFFCURVE",
"473 24 CURVE SMOOTH",
"473 -17 OFFCURVE",
"536 -17 OFFCURVE",
"588 -17 CURVE SMOOTH"
);
}
);
userData = {
com.adobe.type.autohint = "b''";
};
width = 956;
}
);
unicode = 0031;
},
{
glyphname = two;
lastChange = "2021-04-06 16:12:05 +0000";
layers = (
{
background = {
paths = (
{
closed = 1;
nodes = (
"415 688 OFFCURVE",
"335 731 OFFCURVE",
"245 731 CURVE SMOOTH",
"157 731 OFFCURVE",
"88 690 OFFCURVE",
"59 640 CURVE SMOOTH",
"56 635 OFFCURVE",
"59 625 OFFCURVE",
"68 616 CURVE SMOOTH",
"82 601 OFFCURVE",
"96 595 OFFCURVE",
"98 599 CURVE SMOOTH",
"121 639 OFFCURVE",
"171 692 OFFCURVE",
"235 692 CURVE SMOOTH",
"301 692 OFFCURVE",
"349 637 OFFCURVE",
"349 577 CURVE SMOOTH",
"349 514 OFFCURVE",
"328 471 OFFCURVE",
"197 335 CURVE SMOOTH",
"90 226 OFFCURVE",
"45 183 OFFCURVE",
"45 52 CURVE SMOOTH",
"45 0 OFFCURVE",
"56 -8 OFFCURVE",
"79 -8 CURVE SMOOTH",
"269 -8 LINE SMOOTH",
"337 -8 OFFCURVE",
"378 -8 OFFCURVE",
"417 0 CURVE SMOOTH",
"423 1 OFFCURVE",
"422 11 OFFCURVE",
"418 34 CURVE SMOOTH",
"415 54 OFFCURVE",
"409 57 OFFCURVE",
"405 55 CURVE SMOOTH",
"378 45 OFFCURVE",
"356 42 OFFCURVE",
"283 42 CURVE SMOOTH",
"123 42 LINE SMOOTH",
"111 42 OFFCURVE",
"110 57 OFFCURVE",
"110 73 CURVE SMOOTH",
"110 147 OFFCURVE",
"126 184 OFFCURVE",
"236 296 CURVE SMOOTH",
"391 454 OFFCURVE",
"415 508 OFFCURVE",
"415 574 CURVE SMOOTH",
"415 574 LINE SMOOTH"
);
}
);
};
layerId = "67B138FD-4947-43F2-9353-3B08A6E9966B";
paths = (
{
closed = 1;
nodes = (
"550 -16 LINE SMOOTH",
"690 -16 OFFCURVE",
"775 -16 OFFCURVE",
"854 0 CURVE SMOOTH",
"866 2 OFFCURVE",
"865 22 OFFCURVE",
"857 69 CURVE SMOOTH",
"850 111 OFFCURVE",
"838 116 OFFCURVE",
"829 113 CURVE SMOOTH",
"774 92 OFFCURVE",
"729 76 OFFCURVE",
"580 76 CURVE SMOOTH",
"262 76 LINE SMOOTH",
"238 76 OFFCURVE",
"236 118 OFFCURVE",
"236 150 CURVE SMOOTH",
"236 301 OFFCURVE",
"259 392 OFFCURVE",
"484 622 CURVE SMOOTH",
"800 945 OFFCURVE",
"849 1034 OFFCURVE",
"849 1196 CURVE SMOOTH",
"849 1386 OFFCURVE",
"697 1498 OFFCURVE",
"511 1498 CURVE SMOOTH",
"308 1498 OFFCURVE",
"198 1418 OFFCURVE",
"130 1330 CURVE SMOOTH",
"119 1316 OFFCURVE",
"121 1293 OFFCURVE",
"149 1261 CURVE SMOOTH",
"177 1229 OFFCURVE",
"206 1212 OFFCURVE",
"211 1227 CURVE SMOOTH",
"241 1317 OFFCURVE",
"351 1418 OFFCURVE",
"481 1418 CURVE SMOOTH",
"628 1418 OFFCURVE",
"715 1295 OFFCURVE",
"715 1172 CURVE SMOOTH",
"715 1057 OFFCURVE",
"673 949 OFFCURVE",
"403 672 CURVE SMOOTH",
"184 447 OFFCURVE",
"102 375 OFFCURVE",
"102 106 CURVE SMOOTH",
"102 0 OFFCURVE",
"125 -16 OFFCURVE",
"171 -16 CURVE SMOOTH"
);
}
);
userData = {
com.adobe.type.autohint = "b''";
};
width = 956;
},
{
background = {
paths = (
{
closed = 1;
nodes = (
"422 11 OFFCURVE",
"423 1 OFFCURVE",
"417 0 CURVE SMOOTH",
"378 -8 OFFCURVE",
"337 -8 OFFCURVE",
"269 -8 CURVE SMOOTH",
"83 -8 LINE SMOOTH",
"61 -8 OFFCURVE",
"50 0 OFFCURVE",
"50 52 CURVE SMOOTH",
"50 183 OFFCURVE",
"90 218 OFFCURVE",
"197 328 CURVE SMOOTH",
"328 463 OFFCURVE",
"349 516 OFFCURVE",
"349 572 CURVE SMOOTH",
"349 632 OFFCURVE",
"307 692 OFFCURVE",
"235 692 CURVE SMOOTH",
"171 692 OFFCURVE",
"118 643 OFFCURVE",
"103 599 CURVE SMOOTH",
"101 592 OFFCURVE",
"86 600 OFFCURVE",
"73 616 CURVE SMOOTH",
"59 631 OFFCURVE",
"58 643 OFFCURVE",
"63 649 CURVE SMOOTH",
"97 692 OFFCURVE",
"150 731 OFFCURVE",
"250 731 CURVE SMOOTH",
"340 731 OFFCURVE",
"415 677 OFFCURVE",
"415 584 CURVE SMOOTH",
"415 505 OFFCURVE",
"391 462 OFFCURVE",
"236 304 CURVE SMOOTH",
"126 191 OFFCURVE",
"115 147 OFFCURVE",
"115 73 CURVE SMOOTH",
"115 57 OFFCURVE",
"116 37 OFFCURVE",
"128 37 CURVE SMOOTH",
"283 37 LINE SMOOTH",
"356 37 OFFCURVE",
"378 45 OFFCURVE",
"405 55 CURVE SMOOTH",
"409 57 OFFCURVE",
"415 54 OFFCURVE",
"418 34 CURVE SMOOTH",
"418 34 LINE SMOOTH"
);
},
{
closed = 0;
nodes = (
"282 558 LINE",
"282 635 OFFCURVE",
"272 703 OFFCURVE",
"220 703 CURVE SMOOTH",
"156 703 OFFCURVE",
"164 609 OFFCURVE",
"154 593 CURVE SMOOTH",
"146 579 OFFCURVE",
"133 576 OFFCURVE",
"83 612 CURVE SMOOTH",
"59 629 OFFCURVE",
"55 637 OFFCURVE",
"62 652 CURVE SMOOTH",
"87 699 OFFCURVE",
"165 731 OFFCURVE",
"230 731 CURVE SMOOTH",
"349 731 OFFCURVE",
"405 658 OFFCURVE",
"405 569 CURVE SMOOTH"
);
},
{
closed = 1;
nodes = (
"427 21 OFFCURVE",
"423 1 OFFCURVE",
"417 0 CURVE SMOOTH",
"378 -8 OFFCURVE",
"337 -8 OFFCURVE",
"269 -8 CURVE SMOOTH",
"74 -8 LINE SMOOTH",
"51 -8 OFFCURVE",
"40 0 OFFCURVE",
"40 52 CURVE SMOOTH",
"40 183 OFFCURVE",
"108 260 OFFCURVE",
"227 358 CURVE SMOOTH",
"281 404 OFFCURVE",
"298 482 OFFCURVE",
"298 572 CURVE SMOOTH",
"298 637 OFFCURVE",
"282 703 OFFCURVE",
"230 703 CURVE SMOOTH",
"167 703 OFFCURVE",
"159 663 OFFCURVE",
"145 593 CURVE SMOOTH",
"142 581 OFFCURVE",
"114 579 OFFCURVE",
"80 606 CURVE SMOOTH",
"46 632 OFFCURVE",
"48 647 OFFCURVE",
"54 654 CURVE SMOOTH",
"87 697 OFFCURVE",
"146 731 OFFCURVE",
"245 731 CURVE SMOOTH",
"351 731 OFFCURVE",
"424 677 OFFCURVE",
"424 584 CURVE SMOOTH",
"424 505 OFFCURVE",
"391 450 OFFCURVE",
"283 354 CURVE SMOOTH",
"212 292 OFFCURVE",
"166 179 OFFCURVE",
"166 63 CURVE SMOOTH",
"166 48 OFFCURVE",
"172 27 OFFCURVE",
"184 27 CURVE SMOOTH",
"283 27 LINE SMOOTH",
"356 27 OFFCURVE",
"378 64 OFFCURVE",
"405 75 CURVE SMOOTH",
"409 76 OFFCURVE",
"420 64 OFFCURVE",
"423 43 CURVE SMOOTH",
"423 43 LINE SMOOTH"
);
},
{
closed = 1;
nodes = (
"427 21 OFFCURVE",
"423 1 OFFCURVE",
"417 0 CURVE SMOOTH",
"378 -8 OFFCURVE",
"337 -8 OFFCURVE",
"269 -8 CURVE SMOOTH",
"69 -8 LINE SMOOTH",
"50 -8 OFFCURVE",
"40 0 OFFCURVE",
"40 52 CURVE SMOOTH",
"40 154 OFFCURVE",
"78 200 OFFCURVE",
"186 321 CURVE SMOOTH",
"305 456 OFFCURVE",
"298 489 OFFCURVE",
"298 572 CURVE SMOOTH",
"298 646 OFFCURVE",
"282 703 OFFCURVE",
"230 703 CURVE SMOOTH",
"173 703 OFFCURVE",
"159 663 OFFCURVE",
"145 593 CURVE SMOOTH",
"142 581 OFFCURVE",
"114 579 OFFCURVE",
"80 606 CURVE SMOOTH",
"46 632 OFFCURVE",
"48 647 OFFCURVE",
"54 654 CURVE SMOOTH",
"87 697 OFFCURVE",
"146 731 OFFCURVE",
"245 731 CURVE SMOOTH",
"351 731 OFFCURVE",
"424 690 OFFCURVE",
"424 579 CURVE SMOOTH",
"424 523 OFFCURVE",
"381 460 OFFCURVE",
"241 304 CURVE SMOOTH",
"184 241 OFFCURVE",
"167 195 OFFCURVE",
"167 105 CURVE SMOOTH",
"167 72 OFFCURVE",
"182 57 OFFCURVE",
"193 57 CURVE SMOOTH",
"283 57 LINE SMOOTH",
"356 57 OFFCURVE",
"378 74 OFFCURVE",
"405 84 CURVE SMOOTH",
"409 86 OFFCURVE",
"420 64 OFFCURVE",
"423 43 CURVE SMOOTH",
"423 43 LINE SMOOTH"
);
}
);
};
layerId = "65425FA6-FA16-4213-8FC2-6D5B41D5C5D9";
paths = (
{
closed = 1;
nodes = (
"550 -16 LINE SMOOTH",
"691 -16 OFFCURVE",
"775 -16 OFFCURVE",
"854 0 CURVE SMOOTH",
"866 2 OFFCURVE",
"879 16 OFFCURVE",
"867 89 CURVE SMOOTH",
"856 158 OFFCURVE",
"838 176 OFFCURVE",
"829 173 CURVE SMOOTH",
"774 152 OFFCURVE",
"729 116 OFFCURVE",
"580 116 CURVE SMOOTH",
"396 116 LINE SMOOTH",
"372 116 OFFCURVE",
"341 147 OFFCURVE",
"341 216 CURVE SMOOTH",
"341 399 OFFCURVE",
"378 493 OFFCURVE",
"493 622 CURVE SMOOTH",
"818 987 OFFCURVE",
"869 1040 OFFCURVE",
"869 1186 CURVE SMOOTH",
"869 1413 OFFCURVE",
"719 1498 OFFCURVE",
"501 1498 CURVE SMOOTH",
"298 1498 OFFCURVE",
"178 1428 OFFCURVE",
"110 1340 CURVE SMOOTH",
"99 1326 OFFCURVE",
"94 1294 OFFCURVE",
"163 1241 CURVE SMOOTH",
"234 1186 OFFCURVE",
"291 1190 OFFCURVE",
"296 1214 CURVE SMOOTH",
"326 1357 OFFCURVE",
"354 1439 OFFCURVE",
"471 1439 CURVE SMOOTH",
"577 1439 OFFCURVE",
"611 1324 OFFCURVE",
"611 1172 CURVE SMOOTH",
"611 1001 OFFCURVE",
"552 846 OFFCURVE",
"380 657 CURVE SMOOTH",
"157 412 OFFCURVE",
"82 316 OFFCURVE",
"82 106 CURVE SMOOTH",
"82 0 OFFCURVE",
"102 -16 OFFCURVE",
"141 -16 CURVE SMOOTH"
);
}
);
userData = {
com.adobe.type.autohint = "b''";
};
width = 956;
}
);
unicode = 0032;
},
{
glyphname = three;
lastChange = "2021-04-06 16:12:05 +0000";
layers = (
{
background = {
paths = (
{
closed = 1;
nodes = (
"85 25 OFFCURVE",
"147 -8 OFFCURVE",
"228 -8 CURVE SMOOTH",
"356 -8 OFFCURVE",
"428 86 OFFCURVE",
"428 209 CURVE SMOOTH",
"428 329 OFFCURVE",
"389 378 OFFCURVE",
"324 418 CURVE",
"378 449 OFFCURVE",
"395 484 OFFCURVE",
"395 569 CURVE SMOOTH",
"395 663 OFFCURVE",
"339 731 OFFCURVE",
"225 731 CURVE SMOOTH",
"171 731 OFFCURVE",
"104 692 OFFCURVE",
"78 654 CURVE SMOOTH",
"75 649 OFFCURVE",
"79 640 OFFCURVE",
"87 630 CURVE SMOOTH",
"102 615 OFFCURVE",
"112 607 OFFCURVE",
"114 611 CURVE SMOOTH",
"134 646 OFFCURVE",
"171 692 OFFCURVE",
"235 692 CURVE SMOOTH",
"301 692 OFFCURVE",
"337 631 OFFCURVE",
"337 558 CURVE SMOOTH",
"337 484 OFFCURVE",
"304 434 OFFCURVE",
"218 434 CURVE SMOOTH",
"214 434 OFFCURVE",
"212 432 OFFCURVE",
"210 417 CURVE SMOOTH",
"209 408 OFFCURVE",
"212 396 OFFCURVE",
"214 396 CURVE SMOOTH",
"292 401 OFFCURVE",
"362 351 OFFCURVE",
"362 220 CURVE SMOOTH",
"362 114 OFFCURVE",
"313 31 OFFCURVE",
"212 31 CURVE SMOOTH",
"164 31 OFFCURVE",
"110 68 OFFCURVE",
"88 101 CURVE SMOOTH",
"85 106 OFFCURVE",
"73 98 OFFCURVE",
"63 83 CURVE SMOOTH",
"53 67 OFFCURVE",
"51 62 OFFCURVE",
"56 56 CURVE SMOOTH",
"56 56 LINE SMOOTH"
);
}
);
};
layerId = "67B138FD-4947-43F2-9353-3B08A6E9966B";
paths = (
{
closed = 1;
nodes = (
"744 -17 OFFCURVE",
"866 197 OFFCURVE",
"866 448 CURVE SMOOTH",
"866 677 OFFCURVE",
"765 805 OFFCURVE",
"625 857 CURVE",
"736 905 OFFCURVE",
"809 1016 OFFCURVE",
"809 1166 CURVE SMOOTH",
"809 1347 OFFCURVE",
"705 1498 OFFCURVE",
"471 1498 CURVE SMOOTH",
"337 1498 OFFCURVE",
"199 1441 OFFCURVE",
"140 1350 CURVE SMOOTH",
"133 1340 OFFCURVE",
"151 1320 OFFCURVE",
"169 1301 CURVE SMOOTH",
"198 1270 OFFCURVE",
"219 1254 OFFCURVE",
"223 1262 CURVE SMOOTH",
"273 1366 OFFCURVE",
"351 1418 OFFCURVE",
"451 1418 CURVE SMOOTH",
"603 1418 OFFCURVE",
"691 1300 OFFCURVE",
"691 1142 CURVE SMOOTH {name = hr01;}",
"691 991 OFFCURVE",
"612 889 OFFCURVE",
"437 889 CURVE SMOOTH",
"427 889 OFFCURVE",
"423 884 OFFCURVE",
"420 854 CURVE SMOOTH",
"418 835 OFFCURVE",
"423 811 OFFCURVE",
"428 811 CURVE SMOOTH",
"617 825 OFFCURVE",
"732 683 OFFCURVE",
"732 450 CURVE SMOOTH",
"732 233 OFFCURVE",
"617 64 OFFCURVE",
"424 64 CURVE SMOOTH",
"326 64 OFFCURVE",
"226 150 OFFCURVE",
"181 217 CURVE SMOOTH",
"174 227 OFFCURVE",
"140 201 OFFCURVE",
"119 170 CURVE SMOOTH",
"98 138 OFFCURVE",
"93 127 OFFCURVE",
"105 115 CURVE SMOOTH",
"165 52 OFFCURVE",
"290 -17 OFFCURVE",
"456 -17 CURVE SMOOTH"
);
}
);
userData = {
com.adobe.type.autohint = "b''";
};
width = 956;
},
{
background = {
paths = (
{
closed = 1;
nodes = (
"423 96 OFFCURVE",
"363 -8 OFFCURVE",
"223 -8 CURVE SMOOTH",
"142 -8 OFFCURVE",
"81 25 OFFCURVE",
"51 56 CURVE SMOOTH",
"46 62 OFFCURVE",
"48 67 OFFCURVE",
"58 83 CURVE SMOOTH",
"68 98 OFFCURVE",
"85 111 OFFCURVE",
"88 106 CURVE SMOOTH",
"110 73 OFFCURVE",
"159 31 OFFCURVE",
"207 31 CURVE SMOOTH",
"301 31 OFFCURVE",
"357 114 OFFCURVE",
"357 220 CURVE SMOOTH",
"357 334 OFFCURVE",
"301 403 OFFCURVE",
"209 396 CURVE SMOOTH",
"207 396 OFFCURVE",
"204 408 OFFCURVE",
"205 417 CURVE SMOOTH",
"207 432 OFFCURVE",
"209 434 OFFCURVE",
"213 434 CURVE SMOOTH",
"299 434 OFFCURVE",
"337 484 OFFCURVE",
"337 558 CURVE SMOOTH",
"337 635 OFFCURVE",
"294 692 OFFCURVE",
"220 692 CURVE SMOOTH",
"171 692 OFFCURVE",
"133 667 OFFCURVE",
"109 616 CURVE SMOOTH",
"107 612 OFFCURVE",
"97 620 OFFCURVE",
"83 635 CURVE SMOOTH",
"74 644 OFFCURVE",
"65 654 OFFCURVE",
"68 659 CURVE SMOOTH",
"97 704 OFFCURVE",
"165 731 OFFCURVE",
"230 731 CURVE SMOOTH",
"344 731 OFFCURVE",
"395 658 OFFCURVE",
"395 569 CURVE SMOOTH",
"395 496 OFFCURVE",
"359 442 OFFCURVE",
"305 418 CURVE",
"374 393 OFFCURVE",
"423 331 OFFCURVE",
"423 219 CURVE SMOOTH",
"423 219 LINE SMOOTH"
);
},
{
closed = 1;
nodes = (
"51 53 OFFCURVE",
"102 -8 OFFCURVE",
"207 -8 CURVE SMOOTH",
"345 -8 OFFCURVE",
"432 65 OFFCURVE",
"432 229 CURVE SMOOTH",
"432 366 OFFCURVE",
"355 434 OFFCURVE",
"313 456 CURVE",
"378 472 OFFCURVE",
"416 514 OFFCURVE",
"416 598 CURVE SMOOTH",
"416 678 OFFCURVE",
"325 731 OFFCURVE",
"230 731 CURVE SMOOTH",
"128 731 OFFCURVE",
"71 695 OFFCURVE",
"48 651 CURVE SMOOTH",
"41 637 OFFCURVE",
"48 626 OFFCURVE",
"87 613 CURVE SMOOTH",
"132 598 OFFCURVE",
"149 607 OFFCURVE",
"150 615 CURVE SMOOTH",
"159 677 OFFCURVE",
"176 702 OFFCURVE",
"226 702 CURVE SMOOTH",
"269 702 OFFCURVE",
"305 664 OFFCURVE",
"305 604 CURVE SMOOTH",
"305 515 OFFCURVE",
"281 483 OFFCURVE",
"205 483 CURVE SMOOTH",
"200 483 OFFCURVE",
"194 483 OFFCURVE",
"192 457 CURVE SMOOTH",
"191 434 OFFCURVE",
"195 430 OFFCURVE",
"203 430 CURVE SMOOTH",
"267 430 OFFCURVE",
"303 385 OFFCURVE",
"303 229 CURVE SMOOTH",
"303 84 OFFCURVE",
"260 21 OFFCURVE",
"201 21 CURVE SMOOTH",
"161 21 OFFCURVE",
"141 64 OFFCURVE",
"138 126 CURVE SMOOTH",
"137 134 OFFCURVE",
"121 145 OFFCURVE",
"76 134 CURVE SMOOTH",
"36 125 OFFCURVE",
"26 113 OFFCURVE",
"32 99 CURVE SMOOTH",
"32 99 LINE SMOOTH"
);
},
{
closed = 0;
nodes = (
"217 21 LINE",
"161 21 OFFCURVE",
"159 116 OFFCURVE",
"150 139 CURVE SMOOTH",
"145 153 OFFCURVE",
"133 153 OFFCURVE",
"85 126 CURVE SMOOTH",
"50 107 OFFCURVE",
"39 96 OFFCURVE",
"49 80 CURVE SMOOTH",
"81 31 OFFCURVE",
"134 -8 OFFCURVE",
"223 -8 CURVE SMOOTH"
);
},
{
closed = 0;
nodes = (
"208 732 LINE",
"149 732 OFFCURVE",
"92 698 OFFCURVE",
"62 651 CURVE SMOOTH",
"56 642 OFFCURVE",
"64 623 OFFCURVE",
"99 601 CURVE SMOOTH",
"141 574 OFFCURVE",
"156 583 OFFCURVE",
"156 599 CURVE SMOOTH",
"156 642 OFFCURVE",
"174 703 OFFCURVE",
"214 703 CURVE SMOOTH"
);
},
{
closed = 1;
nodes = (
"433 96 OFFCURVE",
"363 -8 OFFCURVE",
"223 -8 CURVE SMOOTH",
"128 -8 OFFCURVE",
"70 42 OFFCURVE",
"49 79 CURVE SMOOTH",
"41 93 OFFCURVE",
"48 105 OFFCURVE",
"81 124 CURVE SMOOTH",
"126 150 OFFCURVE",
"145 150 OFFCURVE",
"148 144 CURVE SMOOTH",
"161 117 OFFCURVE",
"164 21 OFFCURVE",
"217 21 CURVE SMOOTH",
"273 21 OFFCURVE",
"305 114 OFFCURVE",
"305 220 CURVE SMOOTH",
"305 334 OFFCURVE",
"285 399 OFFCURVE",
"209 386 CURVE SMOOTH",
"207 386 OFFCURVE",
"201 391 OFFCURVE",
"200 417 CURVE SMOOTH",
"200 435 OFFCURVE",
"204 444 OFFCURVE",
"213 444 CURVE SMOOTH",
"273 444 OFFCURVE",
"282 484 OFFCURVE",
"282 558 CURVE SMOOTH",
"282 635 OFFCURVE",
"272 703 OFFCURVE",
"220 703 CURVE SMOOTH",
"156 703 OFFCURVE",
"164 609 OFFCURVE",
"154 593 CURVE SMOOTH",
"146 579 OFFCURVE",
"133 576 OFFCURVE",
"83 612 CURVE SMOOTH",
"59 629 OFFCURVE",
"55 637 OFFCURVE",
"62 652 CURVE SMOOTH",
"87 699 OFFCURVE",
"165 731 OFFCURVE",
"230 731 CURVE SMOOTH",
"349 731 OFFCURVE",
"405 658 OFFCURVE",
"405 569 CURVE SMOOTH",
"405 496 OFFCURVE",
"364 435 OFFCURVE",
"305 418 CURVE",
"377 401 OFFCURVE",
"433 331 OFFCURVE",
"433 219 CURVE SMOOTH",
"433 219 LINE SMOOTH"
);
}
);
};
layerId = "65425FA6-FA16-4213-8FC2-6D5B41D5C5D9";
paths = (
{
closed = 1;
nodes = (
"744 -17 OFFCURVE",
"886 197 OFFCURVE",
"886 448 CURVE SMOOTH",
"886 677 OFFCURVE",
"772 822 OFFCURVE",
"625 857 CURVE",
"745 890 OFFCURVE",
"829 1016 OFFCURVE",
"829 1166 CURVE SMOOTH",
"829 1347 OFFCURVE",
"715 1498 OFFCURVE",
"471 1498 CURVE SMOOTH",
"337 1498 OFFCURVE",
"179 1431 OFFCURVE",
"128 1335 CURVE SMOOTH",
"112 1305 OFFCURVE",
"120 1288 OFFCURVE",
"169 1253 CURVE SMOOTH",
"271 1180 OFFCURVE",
"298 1186 OFFCURVE",
"316 1215 CURVE SMOOTH",
"336 1247 OFFCURVE",
"319 1439 OFFCURVE",
"451 1439 CURVE SMOOTH",
"557 1439 OFFCURVE",
"578 1300 OFFCURVE",
"578 1142 CURVE SMOOTH {name = hr01;}",
"578 991 OFFCURVE",
"559 909 OFFCURVE",
"437 909 CURVE SMOOTH",
"417 909 OFFCURVE",
"409 890 OFFCURVE",
"410 854 CURVE SMOOTH",
"411 800 OFFCURVE",
"423 790 OFFCURVE",
"428 791 CURVE SMOOTH",
"584 818 OFFCURVE",
"624 683 OFFCURVE",
"624 450 CURVE SMOOTH",
"624 233 OFFCURVE",
"559 43 OFFCURVE",
"444 43 CURVE SMOOTH",
"336 43 OFFCURVE",
"330 240 OFFCURVE",
"303 295 CURVE SMOOTH",
"298 306 OFFCURVE",
"259 308 OFFCURVE",
"166 254 CURVE SMOOTH",
"99 215 OFFCURVE",
"84 191 OFFCURVE",
"101 161 CURVE SMOOTH",
"144 85 OFFCURVE",
"262 -17 OFFCURVE",
"456 -17 CURVE SMOOTH"
);
}
);
userData = {
com.adobe.type.autohint = "b''";
};
width = 956;
}
);
unicode = 0033;
},
{
glyphname = four;
lastChange = "2021-04-06 16:12:05 +0000";
layers = (
{
background = {
paths = (
{
closed = 1;
nodes = (
"301 683 OFFCURVE",
"306 509 OFFCURVE",
"306 380 CURVE SMOOTH",
"306 251 OFFCURVE",
"301 37 OFFCURVE",
"301 12 CURVE SMOOTH",
"301 -8 OFFCURVE",
"311 -8 OFFCURVE",
"336 -8 CURVE SMOOTH",
"361 -8 OFFCURVE",
"371 -8 OFFCURVE",
"371 12 CURVE SMOOTH",
"371 37 OFFCURVE",
"366 251 OFFCURVE",
"366 380 CURVE SMOOTH",
"366 509 OFFCURVE",
"371 683 OFFCURVE",
"371 711 CURVE SMOOTH",
"371 731 OFFCURVE",
"360 731 OFFCURVE",
"336 731 CURVE SMOOTH",
"312 731 OFFCURVE",
"301 731 OFFCURVE",
"301 711 CURVE SMOOTH",
"301 711 LINE SMOOTH"
);
},
{
closed = 1;
nodes = (
"290 679 OFFCURVE",
"259 656 OFFCURVE",
"152 489 CURVE SMOOTH",
"75 369 OFFCURVE",
"49 309 OFFCURVE",
"49 228 CURVE SMOOTH",
"49 205 OFFCURVE",
"61 198 OFFCURVE",
"83 198 CURVE SMOOTH",
"273 198 LINE SMOOTH",
"341 198 OFFCURVE",
"387 199 OFFCURVE",
"421 206 CURVE SMOOTH",
"427 207 OFFCURVE",
"427 216 OFFCURVE",
"423 239 CURVE SMOOTH",
"419 260 OFFCURVE",
"413 262 OFFCURVE",
"409 261 CURVE SMOOTH",
"377 248 OFFCURVE",
"332 246 OFFCURVE",
"288 247 CURVE SMOOTH",
"127 250 LINE SMOOTH",
"117 250 OFFCURVE",
"115 252 OFFCURVE",
"115 264 CURVE SMOOTH",
"115 314 OFFCURVE",
"129 354 OFFCURVE",
"191 455 CURVE SMOOTH",
"309 644 OFFCURVE",
"351 661 OFFCURVE",
"367 699 CURVE",
"367 699 OFFCURVE",
"310 744 OFFCURVE",
"303 722 CURVE SMOOTH",
"303 722 LINE SMOOTH"
);
},
{
closed = 1;
nodes = (
"305 293 OFFCURVE",
"306 339 OFFCURVE",
"306 378 CURVE SMOOTH",
"306 455 OFFCURVE",
"304 546 OFFCURVE",
"303 614 CURVE",
"276 582 OFFCURVE",
"240 534 OFFCURVE",
"191 455 CURVE SMOOTH",
"129 354 OFFCURVE",
"115 314 OFFCURVE",
"115 264 CURVE SMOOTH",
"115 252 OFFCURVE",
"117 247 OFFCURVE",
"127 247 CURVE SMOOTH",
"288 247 LINE SMOOTH",
"293 247 OFFCURVE",
"299 246 OFFCURVE",
"305 246 CURVE",
"305 246 LINE"
);
},
{
closed = 1;
nodes = (
"371 -8 OFFCURVE",
"361 -8 OFFCURVE",
"336 -8 CURVE SMOOTH",
"311 -8 OFFCURVE",
"301 -8 OFFCURVE",
"301 12 CURVE SMOOTH",
"301 27 OFFCURVE",
"303 108 OFFCURVE",
"304 198 CURVE",
"294 198 OFFCURVE",
"284 198 OFFCURVE",
"273 198 CURVE SMOOTH",
"83 198 LINE SMOOTH",
"61 198 OFFCURVE",
"49 205 OFFCURVE",
"49 228 CURVE SMOOTH",
"49 309 OFFCURVE",
"75 369 OFFCURVE",
"152 489 CURVE SMOOTH",
"255 649 OFFCURVE",
"287 673 OFFCURVE",
"301 712 CURVE",
"303 727 OFFCURVE",
"314 727 OFFCURVE",
"336 727 CURVE SMOOTH",
"360 727 OFFCURVE",
"371 727 OFFCURVE",
"371 707 CURVE SMOOTH",
"371 678 OFFCURVE",
"366 507 OFFCURVE",
"366 378 CURVE SMOOTH",
"366 340 OFFCURVE",
"367 295 OFFCURVE",
"367 250 CURVE",
"383 253 OFFCURVE",
"397 256 OFFCURVE",
"409 261 CURVE SMOOTH",
"413 262 OFFCURVE",
"419 260 OFFCURVE",
"423 239 CURVE SMOOTH",
"427 216 OFFCURVE",
"427 207 OFFCURVE",
"421 206 CURVE SMOOTH",
"406 203 OFFCURVE",
"389 201 OFFCURVE",
"368 200 CURVE",
"369 109 OFFCURVE",
"371 27 OFFCURVE",
"371 12 CURVE SMOOTH",
"371 12 LINE SMOOTH"
);
},
{
closed = 1;
nodes = (
"301 683 OFFCURVE",
"306 509 OFFCURVE",
"306 380 CURVE SMOOTH",
"306 251 OFFCURVE",
"301 37 OFFCURVE",
"301 12 CURVE SMOOTH",
"301 -8 OFFCURVE",
"311 -8 OFFCURVE",
"336 -8 CURVE SMOOTH",
"361 -8 OFFCURVE",
"371 -8 OFFCURVE",
"371 12 CURVE SMOOTH",
"371 37 OFFCURVE",
"366 251 OFFCURVE",
"366 380 CURVE SMOOTH",
"366 509 OFFCURVE",
"370 683 OFFCURVE",
"370 711 CURVE SMOOTH",
"370 731 OFFCURVE",
"359 731 OFFCURVE",
"335 731 CURVE SMOOTH",
"310 731 OFFCURVE",
"301 731 OFFCURVE",
"301 711 CURVE SMOOTH",
"301 711 LINE SMOOTH"
);
},
{
closed = 1;
nodes = (
"290 679 OFFCURVE",
"264 656 OFFCURVE",
"157 489 CURVE SMOOTH",
"80 369 OFFCURVE",
"49 309 OFFCURVE",
"49 228 CURVE SMOOTH",
"49 205 OFFCURVE",
"61 198 OFFCURVE",
"83 198 CURVE SMOOTH",
"273 198 LINE SMOOTH",
"341 198 OFFCURVE",
"387 199 OFFCURVE",
"421 206 CURVE SMOOTH",
"427 207 OFFCURVE",
"427 216 OFFCURVE",
"423 239 CURVE SMOOTH",
"419 260 OFFCURVE",
"413 262 OFFCURVE",
"409 261 CURVE SMOOTH",
"377 248 OFFCURVE",
"332 242 OFFCURVE",
"288 242 CURVE SMOOTH",
"127 242 LINE SMOOTH",
"117 242 OFFCURVE",
"115 252 OFFCURVE",
"115 264 CURVE SMOOTH",
"115 314 OFFCURVE",
"124 354 OFFCURVE",
"187 455 CURVE SMOOTH",
"304 644 OFFCURVE",
"346 661 OFFCURVE",
"362 699 CURVE",
"362 699 OFFCURVE",
"310 744 OFFCURVE",
"303 722 CURVE SMOOTH",
"303 722 LINE SMOOTH"
);
}
);
};
layerId = "67B138FD-4947-43F2-9353-3B08A6E9966B";
paths = (
{
closed = 1;
nodes = (
"740 -17 OFFCURVE",
"760 -17 OFFCURVE",
"760 24 CURVE SMOOTH",
"760 55 OFFCURVE",
"757 223 OFFCURVE",
"754 409 CURVE",
"796 411 OFFCURVE",
"832 415 OFFCURVE",
"863 421 CURVE SMOOTH",
"875 423 OFFCURVE",
"874 443 OFFCURVE",
"866 490 CURVE SMOOTH",
"859 532 OFFCURVE",
"847 537 OFFCURVE",
"838 534 CURVE SMOOTH",
"813 524 OFFCURVE",
"783 516 OFFCURVE",
"752 510 CURVE {name = hr02;}",
"751 605 OFFCURVE",
"750 700 OFFCURVE",
"750 779 CURVE SMOOTH {name = hr01;}",
"750 1043 OFFCURVE",
"757 1389 OFFCURVE",
"757 1447 CURVE SMOOTH",
"757 1488 OFFCURVE",
"735 1488 OFFCURVE",
"685 1488 CURVE SMOOTH",
"635 1488 OFFCURVE",
"620 1482 OFFCURVE",
"617 1457 CURVE SMOOTH",
"611 1412 OFFCURVE",
"531 1329 OFFCURVE",
"321 1002 CURVE SMOOTH",
"163 756 OFFCURVE",
"101 633 OFFCURVE",
"101 467 CURVE SMOOTH",
"101 420 OFFCURVE",
"124 405 OFFCURVE",
"170 405 CURVE SMOOTH",
"622 405 LINE",
"619 220 OFFCURVE",
"616 55 OFFCURVE",
"616 24 CURVE SMOOTH",
"616 -17 OFFCURVE",
"636 -17 OFFCURVE",
"688 -17 CURVE SMOOTH"
);
},
{
closed = 1;
nodes = (
"239 495 OFFCURVE",
"235 516 OFFCURVE",
"235 541 CURVE SMOOTH",
"235 644 OFFCURVE",
"254 726 OFFCURVE",
"382 932 CURVE SMOOTH",
"488 1103 OFFCURVE",
"564 1206 OFFCURVE",
"619 1273 CURVE",
"622 1132 OFFCURVE",
"626 939 OFFCURVE",
"626 779 CURVE SMOOTH {name = hr03;}",
"626 696 OFFCURVE",
"625 595 OFFCURVE",
"624 495 CURVE {name = hr04;}",
"261 495 LINE SMOOTH"
);
}
);
userData = {
com.adobe.type.autohint = "b''";
};
width = 956;
},
{
background = {
paths = (
{
closed = 1;
nodes = (
"427 216 OFFCURVE",
"427 207 OFFCURVE",
"421 206 CURVE SMOOTH",
"406 203 OFFCURVE",
"389 201 OFFCURVE",
"368 200 CURVE",
"370 109 OFFCURVE",
"371 27 OFFCURVE",
"371 12 CURVE SMOOTH",
"371 -8 OFFCURVE",
"361 -8 OFFCURVE",
"336 -8 CURVE SMOOTH",
"311 -8 OFFCURVE",
"301 -8 OFFCURVE",
"301 12 CURVE SMOOTH",
"301 27 OFFCURVE",
"302 107 OFFCURVE",
"304 198 CURVE",
"83 198 LINE SMOOTH",
"61 198 OFFCURVE",
"49 205 OFFCURVE",
"49 228 CURVE SMOOTH",
"49 309 OFFCURVE",
"80 369 OFFCURVE",
"157 489 CURVE SMOOTH",
"259 649 OFFCURVE",
"298 689 OFFCURVE",
"301 711 CURVE SMOOTH",
"303 724 OFFCURVE",
"310 727 OFFCURVE",
"334 727 CURVE SMOOTH",
"359 727 OFFCURVE",
"370 727 OFFCURVE",
"370 707 CURVE SMOOTH",
"370 678 OFFCURVE",
"366 509 OFFCURVE",
"366 380 CURVE SMOOTH",
"366 342 OFFCURVE",
"367 296 OFFCURVE",
"367 249 CURVE",
"383 252 OFFCURVE",
"397 256 OFFCURVE",
"409 261 CURVE SMOOTH",
"413 262 OFFCURVE",
"419 260 OFFCURVE",
"423 239 CURVE SMOOTH",
"423 239 LINE SMOOTH"
);
},
{
closed = 1;
nodes = (
"306 458 OFFCURVE",
"304 553 OFFCURVE",
"302 622 CURVE",
"276 589 OFFCURVE",
"239 539 OFFCURVE",
"187 455 CURVE SMOOTH",
"124 354 OFFCURVE",
"115 314 OFFCURVE",
"115 264 CURVE SMOOTH",
"115 252 OFFCURVE",
"117 242 OFFCURVE",
"127 242 CURVE SMOOTH",
"305 242 LINE",
"305 291 OFFCURVE",
"306 340 OFFCURVE",
"306 380 CURVE SMOOTH",
"306 380 LINE SMOOTH"
);
},
{
closed = 1;
nodes = (
"301 683 OFFCURVE",
"306 509 OFFCURVE",
"306 380 CURVE SMOOTH",
"306 251 OFFCURVE",
"301 37 OFFCURVE",
"301 12 CURVE SMOOTH",
"301 -8 OFFCURVE",
"311 -8 OFFCURVE",
"336 -8 CURVE SMOOTH",
"361 -8 OFFCURVE",
"371 -8 OFFCURVE",
"371 12 CURVE SMOOTH",
"371 37 OFFCURVE",
"366 251 OFFCURVE",
"366 380 CURVE SMOOTH",
"366 509 OFFCURVE",
"370 683 OFFCURVE",
"370 711 CURVE SMOOTH",
"370 731 OFFCURVE",
"359 731 OFFCURVE",
"335 731 CURVE SMOOTH",
"310 731 OFFCURVE",
"301 731 OFFCURVE",
"301 711 CURVE SMOOTH",
"301 711 LINE SMOOTH"
);
},
{
closed = 1;
nodes = (
"290 679 OFFCURVE",
"264 656 OFFCURVE",
"157 489 CURVE SMOOTH",
"80 369 OFFCURVE",
"49 309 OFFCURVE",
"49 228 CURVE SMOOTH",
"49 205 OFFCURVE",
"61 198 OFFCURVE",
"83 198 CURVE SMOOTH",
"273 198 LINE SMOOTH",
"341 198 OFFCURVE",
"387 199 OFFCURVE",
"421 206 CURVE SMOOTH",
"427 207 OFFCURVE",
"427 216 OFFCURVE",
"423 239 CURVE SMOOTH",
"419 260 OFFCURVE",
"413 262 OFFCURVE",
"409 261 CURVE SMOOTH",
"377 248 OFFCURVE",
"332 242 OFFCURVE",
"288 242 CURVE SMOOTH",
"127 242 LINE SMOOTH",
"117 242 OFFCURVE",
"115 252 OFFCURVE",
"115 264 CURVE SMOOTH",
"115 314 OFFCURVE",
"124 354 OFFCURVE",
"187 455 CURVE SMOOTH",
"304 644 OFFCURVE",
"346 661 OFFCURVE",
"362 699 CURVE",
"362 699 OFFCURVE",
"310 744 OFFCURVE",
"303 722 CURVE SMOOTH",
"303 722 LINE SMOOTH"
);
},
{
closed = 1;
nodes = (
"280 683 OFFCURVE",
"290 509 OFFCURVE",
"290 380 CURVE SMOOTH",
"290 251 OFFCURVE",
"280 37 OFFCURVE",
"280 12 CURVE SMOOTH",
"280 -8 OFFCURVE",
"311 -8 OFFCURVE",
"336 -8 CURVE SMOOTH",
"361 -8 OFFCURVE",
"392 -8 OFFCURVE",
"392 12 CURVE SMOOTH",
"392 37 OFFCURVE",
"382 251 OFFCURVE",
"382 380 CURVE SMOOTH",
"382 509 OFFCURVE",
"391 683 OFFCURVE",
"391 711 CURVE SMOOTH",
"391 731 OFFCURVE",
"359 731 OFFCURVE",
"335 731 CURVE SMOOTH",
"310 731 OFFCURVE",
"280 731 OFFCURVE",
"280 711 CURVE SMOOTH",
"280 711 LINE SMOOTH"
);
},
{
closed = 1;
nodes = (
"270 679 OFFCURVE",
"264 656 OFFCURVE",
"157 489 CURVE SMOOTH",
"80 369 OFFCURVE",
"35 309 OFFCURVE",
"35 228 CURVE SMOOTH",
"35 205 OFFCURVE",
"46 198 OFFCURVE",
"68 198 CURVE SMOOTH",
"273 198 LINE SMOOTH",
"341 198 OFFCURVE",
"401 199 OFFCURVE",
"436 206 CURVE SMOOTH",
"442 207 OFFCURVE",
"446 214 OFFCURVE",
"442 244 CURVE SMOOTH",
"439 278 OFFCURVE",
"427 283 OFFCURVE",
"424 280 CURVE SMOOTH",
"396 256 OFFCURVE",
"274 232 OFFCURVE",
"229 232 CURVE SMOOTH",
"167 232 LINE SMOOTH",
"156 232 OFFCURVE",
"149 247 OFFCURVE",
"149 259 CURVE SMOOTH",
"149 348 OFFCURVE",
"176 416 OFFCURVE",
"249 557 CURVE SMOOTH",
"282 621 OFFCURVE",
"314 677 OFFCURVE",
"328 699 CURVE",
"328 699 OFFCURVE",
"290 744 OFFCURVE",
"283 722 CURVE SMOOTH",
"283 722 LINE SMOOTH"
);
},
{
closed = 1;
nodes = (
"280 683 OFFCURVE",
"290 509 OFFCURVE",
"290 380 CURVE SMOOTH",
"290 251 OFFCURVE",
"280 37 OFFCURVE",
"280 12 CURVE SMOOTH",
"280 -8 OFFCURVE",
"311 -8 OFFCURVE",
"336 -8 CURVE SMOOTH",
"361 -8 OFFCURVE",
"392 -8 OFFCURVE",
"392 12 CURVE SMOOTH",
"392 37 OFFCURVE",
"382 251 OFFCURVE",
"382 380 CURVE SMOOTH",
"382 509 OFFCURVE",
"391 683 OFFCURVE",
"391 711 CURVE SMOOTH",
"391 731 OFFCURVE",
"359 731 OFFCURVE",
"335 731 CURVE SMOOTH",
"310 731 OFFCURVE",
"280 731 OFFCURVE",
"280 711 CURVE SMOOTH",
"280 711 LINE SMOOTH"
);
},
{
closed = 1;
nodes = (
"270 679 OFFCURVE",
"264 656 OFFCURVE",
"157 489 CURVE SMOOTH",
"80 369 OFFCURVE",
"35 309 OFFCURVE",
"35 228 CURVE SMOOTH",
"35 205 OFFCURVE",
"46 198 OFFCURVE",
"68 198 CURVE SMOOTH",
"273 198 LINE SMOOTH",
"342 198 OFFCURVE",
"401 199 OFFCURVE",
"436 206 CURVE SMOOTH",
"442 207 OFFCURVE",
"446 224 OFFCURVE",
"442 254 CURVE SMOOTH",
"439 287 OFFCURVE",
"427 303 OFFCURVE",
"424 300 CURVE SMOOTH",
"396 275 OFFCURVE",
"342 261 OFFCURVE",
"297 261 CURVE SMOOTH",
"167 261 LINE SMOOTH",
"156 261 OFFCURVE",
"149 276 OFFCURVE",
"149 289 CURVE SMOOTH",
"149 377 OFFCURVE",
"176 416 OFFCURVE",
"249 557 CURVE SMOOTH",
"282 621 OFFCURVE",
"314 677 OFFCURVE",
"328 699 CURVE",
"328 699 OFFCURVE",
"290 744 OFFCURVE",
"283 722 CURVE SMOOTH",
"283 722 LINE SMOOTH"
);
}
);
};
layerId = "65425FA6-FA16-4213-8FC2-6D5B41D5C5D9";
paths = (
{
closed = 1;
nodes = (
"740 -17 OFFCURVE",
"803 -17 OFFCURVE",
"803 24 CURVE SMOOTH",
"803 55 OFFCURVE",
"796 223 OFFCURVE",
"790 410 CURVE",
"831 412 OFFCURVE",
"866 416 OFFCURVE",
"893 421 CURVE SMOOTH",
"905 423 OFFCURVE",
"913 459 OFFCURVE",
"906 520 CURVE SMOOTH",
"898 589 OFFCURVE",
"875 620 OFFCURVE",
"868 614 CURVE SMOOTH",
"847 595 OFFCURVE",
"818 580 OFFCURVE",
"786 567 CURVE {name = hr02;}",
"784 643 OFFCURVE",
"783 716 OFFCURVE",
"783 779 CURVE SMOOTH {name = hr01;}",
"783 1043 OFFCURVE",
"800 1399 OFFCURVE",
"800 1457 CURVE SMOOTH",
"800 1498 OFFCURVE",
"735 1498 OFFCURVE",
"685 1498 CURVE SMOOTH",
"629 1498 OFFCURVE",
"581 1492 OFFCURVE",
"573 1456 CURVE SMOOTH",
"555 1375 OFFCURVE",
"350 1048 OFFCURVE",
"321 1002 CURVE SMOOTH",
"163 756 OFFCURVE",
"71 633 OFFCURVE",
"71 467 CURVE SMOOTH",
"71 420 OFFCURVE",
"94 405 OFFCURVE",
"140 405 CURVE SMOOTH",
"586 405 LINE",
"580 220 OFFCURVE",
"573 55 OFFCURVE",
"573 24 CURVE SMOOTH",
"573 -17 OFFCURVE",
"636 -17 OFFCURVE",
"688 -17 CURVE SMOOTH"
);
},
{
closed = 1;
nodes = (
"319 535 OFFCURVE",
"305 566 OFFCURVE",
"305 591 CURVE SMOOTH",
"305 772 OFFCURVE",
"360 851 OFFCURVE",
"510 1141 CURVE SMOOTH",
"534 1187 OFFCURVE",
"558 1232 OFFCURVE",
"580 1272 CURVE",
"586 1131 OFFCURVE",
"593 938 OFFCURVE",
"593 779 CURVE SMOOTH {name = hr03;}",
"593 707 OFFCURVE",
"592 622 OFFCURVE",
"589 535 CURVE {name = hr04;}",
"341 535 LINE SMOOTH"
);
}
);
userData = {
com.adobe.type.autohint = "b''";
};
width = 956;
}
);
unicode = 0034;
},
{
glyphname = five;
lastChange = "2021-04-06 16:12:05 +0000";
layers = (
{
background = {
paths = (
{
closed = 1;
nodes = (
"357 728 OFFCURVE",
"384 727 OFFCURVE",
"397 722 CURVE SMOOTH",
"402 720 OFFCURVE",
"402 716 OFFCURVE",
"398 693 CURVE SMOOTH",
"395 672 OFFCURVE",
"388 664 OFFCURVE",
"385 667 CURVE SMOOTH",
"363 678 OFFCURVE",
"337 683 OFFCURVE",
"310 683 CURVE SMOOTH",
"186 683 LINE SMOOTH",
"176 683 OFFCURVE",
"171 684 OFFCURVE",
"169 674 CURVE SMOOTH",
"167 664 OFFCURVE",
"142 509 OFFCURVE",
"137 463 CURVE SMOOTH",
"136 455 OFFCURVE",
"138 452 OFFCURVE",
"139 452 CURVE SMOOTH",
"156 452 OFFCURVE",
"177 473 OFFCURVE",
"243 473 CURVE SMOOTH",
"357 473 OFFCURVE",
"428 398 OFFCURVE",
"428 229 CURVE SMOOTH",
"428 73 OFFCURVE",
"356 -8 OFFCURVE",
"228 -8 CURVE SMOOTH",
"147 -8 OFFCURVE",
"88 30 OFFCURVE",
"56 71 CURVE SMOOTH",
"51 77 OFFCURVE",
"53 87 OFFCURVE",
"63 103 CURVE SMOOTH",
"73 118 OFFCURVE",
"86 126 OFFCURVE",
"88 121 CURVE SMOOTH",
"109 78 OFFCURVE",
"164 31 OFFCURVE",
"212 31 CURVE SMOOTH",
"313 31 OFFCURVE",
"362 102 OFFCURVE",
"362 239 CURVE SMOOTH",
"362 370 OFFCURVE",
"298 435 OFFCURVE",
"238 435 CURVE SMOOTH",
"164 435 OFFCURVE",
"159 394 OFFCURVE",
"128 394 CURVE SMOOTH",
"122 394 OFFCURVE",
"102 404 OFFCURVE",
"95 410 CURVE SMOOTH",
"77 423 OFFCURVE",
"68 425 OFFCURVE",
"71 435 CURVE SMOOTH",
"81 468 OFFCURVE",
"113 693 OFFCURVE",
"113 714 CURVE SMOOTH",
"113 723 OFFCURVE",
"118 728 OFFCURVE",
"134 728 CURVE SMOOTH",
"307 728 LINE"
);
}
);
};
layerId = "67B138FD-4947-43F2-9353-3B08A6E9966B";
paths = (
{
closed = 1;
nodes = (
"704 -17 OFFCURVE",
"876 150 OFFCURVE",
"876 468 CURVE SMOOTH",
"876 815 OFFCURVE",
"707 969 OFFCURVE",
"497 969 CURVE SMOOTH {name = hr02;}",
"363 969 OFFCURVE",
"320 926 OFFCURVE",
"285 926 CURVE SMOOTH",
"283 926 OFFCURVE",
"278 931 OFFCURVE",
"280 948 CURVE SMOOTH",
"292 1043 OFFCURVE",
"342 1363 OFFCURVE",
"346 1382 CURVE SMOOTH",
"350 1402 OFFCURVE",
"360 1401 OFFCURVE",
"381 1401 CURVE SMOOTH",
"634 1401 LINE SMOOTH",
"690 1401 OFFCURVE",
"744 1373 OFFCURVE",
"787 1350 CURVE SMOOTH",
"796 1346 OFFCURVE",
"808 1367 OFFCURVE",
"815 1409 CURVE SMOOTH",
"823 1456 OFFCURVE",
"824 1474 OFFCURVE",
"812 1478 CURVE SMOOTH",
"786 1488 OFFCURVE",
"731 1491 OFFCURVE",
"628 1491 CURVE SMOOTH",
"275 1491 LINE SMOOTH",
"242 1491 OFFCURVE",
"232 1481 OFFCURVE",
"232 1462 CURVE SMOOTH",
"232 1420 OFFCURVE",
"167 959 OFFCURVE",
"145 890 CURVE SMOOTH",
"139 871 OFFCURVE",
"156 864 OFFCURVE",
"194 839 CURVE SMOOTH",
"230 816 OFFCURVE",
"249 806 OFFCURVE",
"263 806 CURVE SMOOTH {name = hr01;}",
"326 806 OFFCURVE",
"336 891 OFFCURVE",
"488 891 CURVE SMOOTH",
"611 891 OFFCURVE",
"742 758 OFFCURVE",
"742 490 CURVE SMOOTH",
"742 209 OFFCURVE",
"641 64 OFFCURVE",
"434 64 CURVE SMOOTH",
"336 64 OFFCURVE",
"224 159 OFFCURVE",
"181 247 CURVE SMOOTH",
"176 258 OFFCURVE",
"154 242 OFFCURVE",
"129 210 CURVE SMOOTH",
"98 170 OFFCURVE",
"93 160 OFFCURVE",
"108 142 CURVE SMOOTH",
"173 62 OFFCURVE",
"295 -17 OFFCURVE",
"466 -17 CURVE SMOOTH"
);
}
);
userData = {
com.adobe.type.autohint = "b''";
};
width = 956;
},
{
background = {
paths = (
{
closed = 1;
nodes = (
"428 73 OFFCURVE",
"344 -8 OFFCURVE",
"228 -8 CURVE SMOOTH",
"144 -8 OFFCURVE",
"84 30 OFFCURVE",
"53 69 CURVE SMOOTH",
"46 78 OFFCURVE",
"48 83 OFFCURVE",
"63 103 CURVE SMOOTH",
"75 118 OFFCURVE",
"86 126 OFFCURVE",
"88 121 CURVE SMOOTH",
"109 78 OFFCURVE",
"164 31 OFFCURVE",
"212 31 CURVE SMOOTH",
"313 31 OFFCURVE",
"362 102 OFFCURVE",
"362 239 CURVE SMOOTH",
"362 370 OFFCURVE",
"298 435 OFFCURVE",
"238 435 CURVE SMOOTH",
"164 435 OFFCURVE",
"159 394 OFFCURVE",
"128 394 CURVE SMOOTH",
"122 394 OFFCURVE",
"102 404 OFFCURVE",
"95 410 CURVE SMOOTH",
"77 423 OFFCURVE",
"68 425 OFFCURVE",
"71 435 CURVE SMOOTH",
"81 468 OFFCURVE",
"113 693 OFFCURVE",
"113 714 CURVE SMOOTH",
"113 723 OFFCURVE",
"118 728 OFFCURVE",
"134 728 CURVE SMOOTH",
"307 728 LINE SMOOTH",
"357 728 OFFCURVE",
"384 727 OFFCURVE",
"397 722 CURVE SMOOTH",
"402 720 OFFCURVE",
"402 711 OFFCURVE",
"398 688 CURVE SMOOTH",
"395 668 OFFCURVE",
"388 657 OFFCURVE",
"385 659 CURVE SMOOTH",
"363 670 OFFCURVE",
"337 684 OFFCURVE",
"310 684 CURVE SMOOTH",
"186 684 LINE SMOOTH",
"176 684 OFFCURVE",
"171 685 OFFCURVE",
"169 675 CURVE SMOOTH",
"167 665 OFFCURVE",
"142 509 OFFCURVE",
"137 463 CURVE SMOOTH",
"136 455 OFFCURVE",
"138 452 OFFCURVE",
"139 452 CURVE SMOOTH",
"156 452 OFFCURVE",
"177 473 OFFCURVE",
"243 473 CURVE SMOOTH",
"345 473 OFFCURVE",
"428 398 OFFCURVE",
"428 229 CURVE SMOOTH",
"428 229 LINE SMOOTH"
);
},
{
closed = 0;
nodes = (
"433 219 LINE",
"433 96 OFFCURVE",
"363 -8 OFFCURVE",
"223 -8 CURVE SMOOTH",
"128 -8 OFFCURVE",
"70 42 OFFCURVE",
"49 79 CURVE SMOOTH",
"41 93 OFFCURVE",
"48 105 OFFCURVE",
"81 124 CURVE SMOOTH",
"126 150 OFFCURVE",
"145 150 OFFCURVE",
"148 144 CURVE SMOOTH",
"161 117 OFFCURVE",
"164 21 OFFCURVE",
"217 21 CURVE SMOOTH",
"273 21 OFFCURVE",
"305 114 OFFCURVE",
"305 220 CURVE SMOOTH"
);
}
);
};
layerId = "65425FA6-FA16-4213-8FC2-6D5B41D5C5D9";
paths = (
{
closed = 1;
nodes = (
"704 -17 OFFCURVE",
"896 150 OFFCURVE",
"896 468 CURVE SMOOTH",
"896 840 OFFCURVE",
"707 969 OFFCURVE",
"497 969 CURVE SMOOTH {name = hr02;}",
"390 969 OFFCURVE",
"392 952 OFFCURVE",
"379 952 CURVE SMOOTH",
"371 952 OFFCURVE",
"368 953 OFFCURVE",
"370 970 CURVE SMOOTH",
"382 1065 OFFCURVE",
"422 1323 OFFCURVE",
"426 1342 CURVE SMOOTH",
"430 1362 OFFCURVE",
"440 1361 OFFCURVE",
"461 1361 CURVE SMOOTH",
"644 1361 LINE SMOOTH",
"714 1361 OFFCURVE",
"772 1318 OFFCURVE",
"797 1310 CURVE SMOOTH",
"806 1307 OFFCURVE",
"817 1313 OFFCURVE",
"835 1389 CURVE SMOOTH",
"850 1448 OFFCURVE",
"844 1474 OFFCURVE",
"832 1478 CURVE SMOOTH",
"806 1488 OFFCURVE",
"741 1491 OFFCURVE",
"638 1491 CURVE SMOOTH",
"255 1491 LINE SMOOTH",
"222 1491 OFFCURVE",
"212 1481 OFFCURVE",
"212 1462 CURVE SMOOTH",
"212 1420 OFFCURVE",
"141 960 OFFCURVE",
"125 890 CURVE SMOOTH",
"121 872 OFFCURVE",
"136 857 OFFCURVE",
"205 824 CURVE SMOOTH",
"264 796 OFFCURVE",
"304 787 OFFCURVE",
"318 787 CURVE SMOOTH {name = hr01;}",
"387 787 OFFCURVE",
"367 912 OFFCURVE",
"488 912 CURVE SMOOTH",
"596 912 OFFCURVE",
"634 758 OFFCURVE",
"634 490 CURVE SMOOTH",
"634 167 OFFCURVE",
"541 43 OFFCURVE",
"454 43 CURVE SMOOTH",
"333 43 OFFCURVE",
"355 170 OFFCURVE",
"302 295 CURVE SMOOTH",
"294 314 OFFCURVE",
"248 307 OFFCURVE",
"178 261 CURVE SMOOTH",
"97 208 OFFCURVE",
"85 171 OFFCURVE",
"106 150 CURVE SMOOTH",
"179 77 OFFCURVE",
"295 -17 OFFCURVE",
"466 -17 CURVE SMOOTH"
);
}
);
userData = {
com.adobe.type.autohint = "b''";
};
width = 956;
}
);
unicode = 0035;
},
{
glyphname = six;
lastChange = "2021-04-06 16:12:05 +0000";
layers = (
{
background = {
paths = (
{
closed = 1;
nodes = (
"175 692 OFFCURVE",
"105 585 OFFCURVE",
"105 345 CURVE SMOOTH",
"105 136 OFFCURVE",
"164 31 OFFCURVE",
"233 31 CURVE SMOOTH",
"321 31 OFFCURVE",
"363 146 OFFCURVE",
"363 242 CURVE SMOOTH",
"363 327 OFFCURVE",
"318 433 OFFCURVE",
"233 433 CURVE SMOOTH",
"163 433 OFFCURVE",
"91 316 OFFCURVE",
"103 159 CURVE",
"103 159 OFFCURVE",
"74 297 OFFCURVE",
"86 349 CURVE SMOOTH",
"97 396 OFFCURVE",
"162 473 OFFCURVE",
"233 473 CURVE SMOOTH",
"378 473 OFFCURVE",
"428 347 OFFCURVE",
"428 242 CURVE SMOOTH",
"428 128 OFFCURVE",
"375 -8 OFFCURVE",
"233 -8 CURVE SMOOTH",
"114 -8 OFFCURVE",
"39 105 OFFCURVE",
"39 329 CURVE SMOOTH",
"39 611 OFFCURVE",
"133 732 OFFCURVE",
"263 732 CURVE SMOOTH",
"315 732 OFFCURVE",
"369 712 OFFCURVE",
"400 666 CURVE SMOOTH",
"406 657 OFFCURVE",
"399 651 OFFCURVE",
"387 640 CURVE SMOOTH",
"375 629 OFFCURVE",
"363 622 OFFCURVE",
"359 628 CURVE SMOOTH",
"330 677 OFFCURVE",
"308 692 OFFCURVE",
"257 692 CURVE SMOOTH",
"257 692 LINE SMOOTH"
);
},
{
closed = 1;
nodes = (
"175 692 OFFCURVE",
"105 585 OFFCURVE",
"105 345 CURVE SMOOTH",
"105 136 OFFCURVE",
"164 31 OFFCURVE",
"233 31 CURVE SMOOTH",
"321 31 OFFCURVE",
"363 146 OFFCURVE",
"363 242 CURVE SMOOTH",
"363 327 OFFCURVE",
"318 433 OFFCURVE",
"233 433 CURVE SMOOTH",
"163 433 OFFCURVE",
"91 316 OFFCURVE",
"103 159 CURVE",
"103 159 OFFCURVE",
"74 297 OFFCURVE",
"86 349 CURVE SMOOTH",
"97 396 OFFCURVE",
"162 473 OFFCURVE",
"233 473 CURVE SMOOTH",
"378 473 OFFCURVE",
"428 347 OFFCURVE",
"428 242 CURVE SMOOTH",
"428 128 OFFCURVE",
"375 -8 OFFCURVE",
"233 -8 CURVE SMOOTH",
"114 -8 OFFCURVE",
"39 105 OFFCURVE",
"39 329 CURVE SMOOTH",
"39 611 OFFCURVE",
"133 732 OFFCURVE",
"263 732 CURVE SMOOTH",
"315 732 OFFCURVE",
"369 712 OFFCURVE",
"400 666 CURVE SMOOTH",
"406 657 OFFCURVE",
"402 652 OFFCURVE",
"387 635 CURVE SMOOTH",
"374 621 OFFCURVE",
"363 612 OFFCURVE",
"359 618 CURVE SMOOTH",
"330 667 OFFCURVE",
"308 692 OFFCURVE",
"257 692 CURVE SMOOTH",
"257 692 LINE SMOOTH"
);
}
);
};
layerId = "67B138FD-4947-43F2-9353-3B08A6E9966B";
paths = (
{
closed = 1;
nodes = (
"767 -17 OFFCURVE",
"876 262 OFFCURVE",
"876 496 CURVE SMOOTH",
"876 711 OFFCURVE",
"775 968 OFFCURVE",
"478 968 CURVE SMOOTH",
"371 968 OFFCURVE",
"272 885 OFFCURVE",
"217 803 CURVE",
"235 1227 OFFCURVE",
"370 1418 OFFCURVE",
"526 1418 CURVE SMOOTH",
"631 1418 OFFCURVE",
"676 1367 OFFCURVE",
"736 1266 CURVE SMOOTH",
"744 1253 OFFCURVE",
"765 1271 OFFCURVE",
"792 1301 CURVE SMOOTH",
"823 1335 OFFCURVE",
"831 1346 OFFCURVE",
"819 1364 CURVE SMOOTH",
"756 1459 OFFCURVE",
"646 1499 OFFCURVE",
"538 1499 CURVE SMOOTH",
"272 1499 OFFCURVE",
"80 1251 OFFCURVE",
"80 674 CURVE SMOOTH",
"80 215 OFFCURVE",
"233 -17 OFFCURVE",
"478 -17 CURVE SMOOTH"
);
},
{
closed = 1;
nodes = (
"355 64 OFFCURVE",
"248 224 OFFCURVE",
"221 545 CURVE",
"258 751 OFFCURVE",
"368 887 OFFCURVE",
"478 887 CURVE SMOOTH",
"651 887 OFFCURVE",
"743 670 OFFCURVE",
"743 496 CURVE SMOOTH",
"743 298 OFFCURVE",
"657 64 OFFCURVE",
"478 64 CURVE SMOOTH"
);
}
);
userData = {
com.adobe.type.autohint = "b''";
};
width = 956;
},
{
background = {
paths = (
{
closed = 1;
nodes = (
"428 128 OFFCURVE",
"375 -8 OFFCURVE",
"233 -8 CURVE SMOOTH",
"114 -8 OFFCURVE",
"39 105 OFFCURVE",
"39 329 CURVE SMOOTH",
"39 611 OFFCURVE",
"133 732 OFFCURVE",
"263 732 CURVE SMOOTH",
"315 732 OFFCURVE",
"369 712 OFFCURVE",
"400 666 CURVE SMOOTH",
"406 657 OFFCURVE",
"402 652 OFFCURVE",
"387 635 CURVE SMOOTH",
"374 621 OFFCURVE",
"363 612 OFFCURVE",
"359 618 CURVE SMOOTH",
"330 667 OFFCURVE",
"308 692 OFFCURVE",
"257 692 CURVE SMOOTH",
"181 692 OFFCURVE",
"115 599 OFFCURVE",
"106 392 CURVE",
"133 432 OFFCURVE",
"181 473 OFFCURVE",
"233 473 CURVE SMOOTH",
"378 473 OFFCURVE",
"428 347 OFFCURVE",
"428 242 CURVE SMOOTH",
"428 242 LINE SMOOTH"
);
},
{
closed = 1;
nodes = (
"363 327 OFFCURVE",
"318 433 OFFCURVE",
"233 433 CURVE SMOOTH",
"180 433 OFFCURVE",
"126 367 OFFCURVE",
"108 266 CURVE",
"121 109 OFFCURVE",
"173 31 OFFCURVE",
"233 31 CURVE SMOOTH",
"321 31 OFFCURVE",
"363 146 OFFCURVE",
"363 242 CURVE SMOOTH",
"363 242 LINE SMOOTH"
);
},
{
closed = 1;
nodes = (
"175 692 OFFCURVE",
"105 585 OFFCURVE",
"105 345 CURVE SMOOTH",
"105 136 OFFCURVE",
"164 31 OFFCURVE",
"233 31 CURVE SMOOTH",
"321 31 OFFCURVE",
"363 146 OFFCURVE",
"363 242 CURVE SMOOTH",
"363 327 OFFCURVE",
"318 433 OFFCURVE",
"233 433 CURVE SMOOTH",
"163 433 OFFCURVE",
"91 316 OFFCURVE",
"103 159 CURVE",
"103 159 OFFCURVE",
"74 297 OFFCURVE",
"86 349 CURVE SMOOTH",
"97 396 OFFCURVE",
"162 473 OFFCURVE",
"233 473 CURVE SMOOTH",
"378 473 OFFCURVE",
"428 347 OFFCURVE",
"428 242 CURVE SMOOTH",
"428 128 OFFCURVE",
"375 -8 OFFCURVE",
"233 -8 CURVE SMOOTH",
"114 -8 OFFCURVE",
"39 105 OFFCURVE",
"39 329 CURVE SMOOTH",
"39 611 OFFCURVE",
"133 732 OFFCURVE",
"263 732 CURVE SMOOTH",
"315 732 OFFCURVE",
"369 712 OFFCURVE",
"400 666 CURVE SMOOTH",
"406 657 OFFCURVE",
"402 652 OFFCURVE",
"387 635 CURVE SMOOTH",
"374 621 OFFCURVE",
"363 612 OFFCURVE",
"359 618 CURVE SMOOTH",
"330 667 OFFCURVE",
"308 692 OFFCURVE",
"257 692 CURVE SMOOTH",
"257 692 LINE SMOOTH"
);
},
{
closed = 0;
nodes = (
"248 731 LINE",
"350 731 OFFCURVE",
"408 695 OFFCURVE",
"431 651 CURVE SMOOTH",
"438 637 OFFCURVE",
"430 626 OFFCURVE",
"391 613 CURVE SMOOTH",
"347 598 OFFCURVE",
"329 607 OFFCURVE",
"328 615 CURVE SMOOTH",
"319 677 OFFCURVE",
"302 702 OFFCURVE",
"253 702 CURVE SMOOTH"
);
},
{
closed = 1;
nodes = (
"175 703 OFFCURVE",
"157 585 OFFCURVE",
"157 345 CURVE SMOOTH",
"157 136 OFFCURVE",
"165 21 OFFCURVE",
"233 21 CURVE SMOOTH",
"300 21 OFFCURVE",
"310 146 OFFCURVE",
"310 242 CURVE SMOOTH",
"310 327 OFFCURVE",
"300 443 OFFCURVE",
"233 443 CURVE SMOOTH",
"167 443 OFFCURVE",
"148 316 OFFCURVE",
"160 159 CURVE",
"160 159 OFFCURVE",
"74 297 OFFCURVE",
"86 349 CURVE SMOOTH",
"97 396 OFFCURVE",
"162 473 OFFCURVE",
"233 473 CURVE SMOOTH",
"378 473 OFFCURVE",
"437 347 OFFCURVE",
"437 242 CURVE SMOOTH",
"437 128 OFFCURVE",
"375 -8 OFFCURVE",
"233 -8 CURVE SMOOTH",
"114 -8 OFFCURVE",
"29 105 OFFCURVE",
"29 329 CURVE SMOOTH",
"29 611 OFFCURVE",
"133 732 OFFCURVE",
"263 732 CURVE SMOOTH",
"322 732 OFFCURVE",
"379 698 OFFCURVE",
"410 651 CURVE SMOOTH",
"416 642 OFFCURVE",
"407 623 OFFCURVE",
"372 601 CURVE SMOOTH",
"330 574 OFFCURVE",
"315 583 OFFCURVE",
"315 599 CURVE SMOOTH",
"315 642 OFFCURVE",
"297 703 OFFCURVE",
"257 703 CURVE SMOOTH",
"257 703 LINE SMOOTH"
);
}
);
};
layerId = "65425FA6-FA16-4213-8FC2-6D5B41D5C5D9";
paths = (
{
closed = 1;
nodes = (
"767 -17 OFFCURVE",
"896 262 OFFCURVE",
"896 496 CURVE SMOOTH",
"896 711 OFFCURVE",
"775 968 OFFCURVE",
"478 968 CURVE SMOOTH",
"423 968 OFFCURVE",
"371 946 OFFCURVE",
"325 914 CURVE",
"336 1266 OFFCURVE",
"384 1439 OFFCURVE",
"526 1439 CURVE SMOOTH",
"609 1439 OFFCURVE",
"646 1315 OFFCURVE",
"646 1226 CURVE SMOOTH {name = hr01;}",
"646 1193 OFFCURVE",
"676 1176 OFFCURVE",
"762 1231 CURVE SMOOTH",
"833 1276 OFFCURVE",
"851 1316 OFFCURVE",
"839 1334 CURVE SMOOTH",
"776 1429 OFFCURVE",
"660 1499 OFFCURVE",
"538 1499 CURVE SMOOTH",
"272 1499 OFFCURVE",
"60 1251 OFFCURVE",
"60 674 CURVE SMOOTH",
"60 215 OFFCURVE",
"233 -17 OFFCURVE",
"478 -17 CURVE SMOOTH"
);
},
{
closed = 1;
nodes = (
"352 43 OFFCURVE",
"319 233 OFFCURVE",
"323 584 CURVE SMOOTH",
"325 777 OFFCURVE",
"381 908 OFFCURVE",
"478 908 CURVE SMOOTH",
"614 908 OFFCURVE",
"634 670 OFFCURVE",
"634 496 CURVE SMOOTH {name = hr03;}",
"634 298 OFFCURVE",
"614 43 OFFCURVE",
"478 43 CURVE SMOOTH"
);
}
);
userData = {
com.adobe.type.autohint = "b''";
};
width = 956;
}
);
unicode = 0036;
},
{
glyphname = seven;
lastChange = "2021-04-06 16:12:05 +0000";
layers = (
{
background = {
paths = (
{
closed = 1;
nodes = (
"177 230 OFFCURVE",
"118 62 OFFCURVE",
"113 21 CURVE SMOOTH",
"111 10 OFFCURVE",
"119 5 OFFCURVE",
"147 -2 CURVE SMOOTH",
"181 -11 OFFCURVE",
"185 -11 OFFCURVE",
"185 0 CURVE SMOOTH",
"185 41 OFFCURVE",
"220 191 OFFCURVE",
"298 358 CURVE SMOOTH",
"411 601 OFFCURVE",
"427 651 OFFCURVE",
"427 663 CURVE SMOOTH",
"427 674 OFFCURVE",
"430 676 OFFCURVE",
"424 700 CURVE SMOOTH",
"419 720 OFFCURVE",
"418 729 OFFCURVE",
"407 729 CURVE SMOOTH",
"338 729 OFFCURVE",
"269 729 OFFCURVE",
"199 729 CURVE SMOOTH",
"131 729 OFFCURVE",
"89 728 OFFCURVE",
"51 720 CURVE SMOOTH",
"45 719 OFFCURVE",
"45 709 OFFCURVE",
"49 687 CURVE SMOOTH",
"53 666 OFFCURVE",
"59 658 OFFCURVE",
"63 660 CURVE SMOOTH",
"101 675 OFFCURVE",
"140 676 OFFCURVE",
"185 676 CURVE SMOOTH",
"238 676 OFFCURVE",
"291 676 OFFCURVE",
"345 676 CURVE SMOOTH",
"355 676 OFFCURVE",
"357 670 OFFCURVE",
"357 662 CURVE SMOOTH",
"357 653 OFFCURVE",
"352 606 OFFCURVE",
"247 381 CURVE SMOOTH",
"247 381 LINE SMOOTH"
);
}
);
};
layerId = "67B138FD-4947-43F2-9353-3B08A6E9966B";
paths = (
{
closed = 1;
nodes = (
"370 -22 OFFCURVE",
"379 -22 OFFCURVE",
"379 0 CURVE SMOOTH",
"379 83 OFFCURVE",
"431 390 OFFCURVE",
"590 733 CURVE SMOOTH",
"821 1230 OFFCURVE",
"876 1309 OFFCURVE",
"876 1381 CURVE SMOOTH",
"876 1404 OFFCURVE",
"874 1414 OFFCURVE",
"869 1433 CURVE SMOOTH",
"856 1485 OFFCURVE",
"850 1491 OFFCURVE",
"833 1491 CURVE SMOOTH",
"408 1491 LINE SMOOTH",
"268 1491 OFFCURVE",
"183 1490 OFFCURVE",
"104 1474 CURVE SMOOTH",
"92 1472 OFFCURVE",
"93 1452 OFFCURVE",
"101 1405 CURVE SMOOTH",
"108 1363 OFFCURVE",
"120 1348 OFFCURVE",
"129 1351 CURVE SMOOTH",
"207 1382 OFFCURVE",
"286 1401 OFFCURVE",
"378 1401 CURVE SMOOTH",
"706 1401 LINE SMOOTH",
"728 1401 OFFCURVE",
"732 1389 OFFCURVE",
"732 1371 CURVE SMOOTH",
"732 1317 OFFCURVE",
"721 1242 OFFCURVE",
"506 780 CURVE SMOOTH",
"362 471 OFFCURVE",
"241 128 OFFCURVE",
"231 44 CURVE SMOOTH",
"228 20 OFFCURVE",
"244 11 OFFCURVE",
"301 -4 CURVE SMOOTH"
);
}
);
userData = {
com.adobe.type.autohint = "b''";
};
width = 956;
},
{
background = {
paths = (
{
closed = 1;
nodes = (
"428 639 OFFCURVE",
"401 601 OFFCURVE",
"288 358 CURVE SMOOTH",
"210 191 OFFCURVE",
"185 41 OFFCURVE",
"185 0 CURVE SMOOTH",
"185 -11 OFFCURVE",
"181 -11 OFFCURVE",
"147 -2 CURVE SMOOTH",
"119 5 OFFCURVE",
"111 10 OFFCURVE",
"113 21 CURVE SMOOTH",
"118 62 OFFCURVE",
"177 230 OFFCURVE",
"247 381 CURVE SMOOTH",
"352 606 OFFCURVE",
"357 643 OFFCURVE",
"357 669 CURVE SMOOTH",
"357 678 OFFCURVE",
"355 684 OFFCURVE",
"345 684 CURVE SMOOTH",
"185 684 LINE SMOOTH",
"140 684 OFFCURVE",
"101 675 OFFCURVE",
"63 660 CURVE SMOOTH",
"59 658 OFFCURVE",
"53 666 OFFCURVE",
"49 686 CURVE SMOOTH",
"45 709 OFFCURVE",
"45 719 OFFCURVE",
"51 720 CURVE SMOOTH",
"89 728 OFFCURVE",
"131 728 OFFCURVE",
"199 728 CURVE SMOOTH",
"407 728 LINE SMOOTH",
"415 728 OFFCURVE",
"418 725 OFFCURVE",
"424 700 CURVE SMOOTH",
"427 690 OFFCURVE",
"428 685 OFFCURVE",
"428 674 CURVE SMOOTH",
"428 674 LINE SMOOTH"
);
},
{
closed = 1;
nodes = (
"437 639 OFFCURVE",
"401 601 OFFCURVE",
"288 358 CURVE SMOOTH",
"210 191 OFFCURVE",
"214 41 OFFCURVE",
"214 0 CURVE SMOOTH",
"214 -11 OFFCURVE",
"181 -11 OFFCURVE",
"147 -2 CURVE SMOOTH",
"119 5 OFFCURVE",
"97 10 OFFCURVE",
"98 21 CURVE SMOOTH",
"103 62 OFFCURVE",
"177 230 OFFCURVE",
"247 381 CURVE SMOOTH",
"352 606 OFFCURVE",
"309 624 OFFCURVE",
"309 650 CURVE SMOOTH",
"309 659 OFFCURVE",
"302 665 OFFCURVE",
"291 665 CURVE SMOOTH",
"185 665 LINE SMOOTH",
"140 665 OFFCURVE",
"101 631 OFFCURVE",
"63 616 CURVE SMOOTH",
"59 614 OFFCURVE",
"52 620 OFFCURVE",
"43 657 CURVE SMOOTH",
"32 706 OFFCURVE",
"35 719 OFFCURVE",
"41 720 CURVE SMOOTH",
"80 728 OFFCURVE",
"131 728 OFFCURVE",
"199 728 CURVE SMOOTH",
"417 728 LINE SMOOTH",
"425 728 OFFCURVE",
"428 725 OFFCURVE",
"434 700 CURVE SMOOTH",
"436 690 OFFCURVE",
"437 685 OFFCURVE",
"437 674 CURVE SMOOTH",
"437 674 LINE SMOOTH"
);
}
);
};
layerId = "65425FA6-FA16-4213-8FC2-6D5B41D5C5D9";
paths = (
{
closed = 1;
nodes = (
"411 -16 OFFCURVE",
"469 -22 OFFCURVE",
"469 0 CURVE SMOOTH",
"469 83 OFFCURVE",
"461 390 OFFCURVE",
"620 733 CURVE SMOOTH",
"851 1230 OFFCURVE",
"884 1310 OFFCURVE",
"884 1382 CURVE SMOOTH",
"884 1405 OFFCURVE",
"882 1415 OFFCURVE",
"877 1434 CURVE SMOOTH",
"864 1486 OFFCURVE",
"860 1491 OFFCURVE",
"848 1491 CURVE SMOOTH",
"418 1491 LINE SMOOTH",
"278 1491 OFFCURVE",
"173 1490 OFFCURVE",
"94 1474 CURVE SMOOTH",
"82 1472 OFFCURVE",
"77 1447 OFFCURVE",
"93 1390 CURVE SMOOTH",
"114 1314 OFFCURVE",
"131 1297 OFFCURVE",
"139 1301 CURVE SMOOTH",
"228 1350 OFFCURVE",
"298 1361 OFFCURVE",
"428 1361 CURVE SMOOTH",
"616 1361 LINE SMOOTH",
"638 1361 OFFCURVE",
"668 1343 OFFCURVE",
"668 1263 CURVE SMOOTH",
"668 1150 OFFCURVE",
"616 994 OFFCURVE",
"516 780 CURVE SMOOTH",
"372 472 OFFCURVE",
"221 128 OFFCURVE",
"211 44 CURVE SMOOTH",
"208 20 OFFCURVE",
"273 5 OFFCURVE",
"331 -4 CURVE SMOOTH"
);
}
);
userData = {
com.adobe.type.autohint = "b''";
};
width = 956;
}
);
unicode = 0037;
},
{
glyphname = eight;
lastChange = "2021-04-06 16:12:05 +0000";
layers = (
{
background = {
paths = (
{
closed = 1;
nodes = (
"398 481 OFFCURVE",
"362 397 OFFCURVE",
"233 397 CURVE SMOOTH",
"103 397 OFFCURVE",
"68 485 OFFCURVE",
"68 562 CURVE SMOOTH",
"68 634 OFFCURVE",
"119 731 OFFCURVE",
"233 731 CURVE SMOOTH",
"361 731 OFFCURVE",
"398 637 OFFCURVE",
"398 562 CURVE SMOOTH",
"398 562 LINE SMOOTH"
);
},
{
closed = 1;
nodes = (
"165 692 OFFCURVE",
"134 623 OFFCURVE",
"134 562 CURVE SMOOTH",
"134 492 OFFCURVE",
"163 437 OFFCURVE",
"233 437 CURVE SMOOTH",
"312 437 OFFCURVE",
"333 492 OFFCURVE",
"333 562 CURVE SMOOTH",
"333 629 OFFCURVE",
"301 692 OFFCURVE",
"233 692 CURVE SMOOTH",
"233 692 LINE SMOOTH"
);
},
{
closed = 1;
nodes = (
"428 123 OFFCURVE",
"396 -8 OFFCURVE",
"233 -8 CURVE SMOOTH",
"71 -8 OFFCURVE",
"39 126 OFFCURVE",
"39 203 CURVE SMOOTH",
"39 321 OFFCURVE",
"91 437 OFFCURVE",
"233 437 CURVE SMOOTH",
"390 437 OFFCURVE",
"428 323 OFFCURVE",
"428 203 CURVE SMOOTH",
"428 203 LINE SMOOTH"
);
},
{
closed = 1;
nodes = (
"151 397 OFFCURVE",
"105 312 OFFCURVE",
"105 203 CURVE SMOOTH",
"105 105 OFFCURVE",
"152 31 OFFCURVE",
"233 31 CURVE SMOOTH",
"321 31 OFFCURVE",
"363 106 OFFCURVE",
"363 203 CURVE SMOOTH",
"363 318 OFFCURVE",
"318 397 OFFCURVE",
"233 397 CURVE SMOOTH",
"233 397 LINE SMOOTH"
);
},
{
closed = 1;
nodes = (
"398 481 OFFCURVE",
"362 397 OFFCURVE",
"233 397 CURVE SMOOTH",
"103 397 OFFCURVE",
"68 485 OFFCURVE",
"68 562 CURVE SMOOTH",
"68 634 OFFCURVE",
"119 731 OFFCURVE",
"233 731 CURVE SMOOTH",
"361 731 OFFCURVE",
"398 637 OFFCURVE",
"398 562 CURVE SMOOTH",
"398 562 LINE SMOOTH"
);
},
{
closed = 1;
nodes = (
"165 692 OFFCURVE",
"134 623 OFFCURVE",
"134 562 CURVE SMOOTH",
"134 492 OFFCURVE",
"163 437 OFFCURVE",
"233 437 CURVE SMOOTH",
"312 437 OFFCURVE",
"333 492 OFFCURVE",
"333 562 CURVE SMOOTH",
"333 629 OFFCURVE",
"301 692 OFFCURVE",
"233 692 CURVE SMOOTH",
"233 692 LINE SMOOTH"
);
},
{
closed = 1;
nodes = (
"428 123 OFFCURVE",
"396 -8 OFFCURVE",
"233 -8 CURVE SMOOTH",
"71 -8 OFFCURVE",
"39 126 OFFCURVE",
"39 203 CURVE SMOOTH",
"39 321 OFFCURVE",
"91 437 OFFCURVE",
"233 437 CURVE SMOOTH",
"390 437 OFFCURVE",
"428 323 OFFCURVE",
"428 203 CURVE SMOOTH",
"428 203 LINE SMOOTH"
);
},
{
closed = 1;
nodes = (
"151 397 OFFCURVE",
"105 312 OFFCURVE",
"105 203 CURVE SMOOTH",
"105 105 OFFCURVE",
"152 31 OFFCURVE",
"233 31 CURVE SMOOTH",
"321 31 OFFCURVE",
"363 106 OFFCURVE",
"363 203 CURVE SMOOTH",
"363 318 OFFCURVE",
"318 397 OFFCURVE",
"233 397 CURVE SMOOTH",
"233 397 LINE SMOOTH"
);
},
{
closed = 1;
nodes = (
"403 481 OFFCURVE",
"362 397 OFFCURVE",
"233 397 CURVE SMOOTH",
"103 397 OFFCURVE",
"63 485 OFFCURVE",
"63 562 CURVE SMOOTH",
"63 634 OFFCURVE",
"119 731 OFFCURVE",
"233 731 CURVE SMOOTH",
"361 731 OFFCURVE",
"403 637 OFFCURVE",
"403 562 CURVE SMOOTH",
"403 562 LINE SMOOTH"
);
},
{
closed = 1;
nodes = (
"165 692 OFFCURVE",
"129 623 OFFCURVE",
"129 562 CURVE SMOOTH",
"129 492 OFFCURVE",
"163 437 OFFCURVE",
"233 437 CURVE SMOOTH",
"312 437 OFFCURVE",
"338 492 OFFCURVE",
"338 562 CURVE SMOOTH",
"338 629 OFFCURVE",
"301 692 OFFCURVE",
"233 692 CURVE SMOOTH",
"233 692 LINE SMOOTH"
);
},
{
closed = 1;
nodes = (
"428 123 OFFCURVE",
"396 -8 OFFCURVE",
"233 -8 CURVE SMOOTH",
"71 -8 OFFCURVE",
"39 126 OFFCURVE",
"39 203 CURVE SMOOTH",
"39 321 OFFCURVE",
"91 437 OFFCURVE",
"233 437 CURVE SMOOTH",
"390 437 OFFCURVE",
"428 323 OFFCURVE",
"428 203 CURVE SMOOTH",
"428 203 LINE SMOOTH"
);
},
{
closed = 1;
nodes = (
"151 397 OFFCURVE",
"105 312 OFFCURVE",
"105 203 CURVE SMOOTH",
"105 105 OFFCURVE",
"152 31 OFFCURVE",
"233 31 CURVE SMOOTH",
"321 31 OFFCURVE",
"363 106 OFFCURVE",
"363 203 CURVE SMOOTH",
"363 318 OFFCURVE",
"318 397 OFFCURVE",
"233 397 CURVE SMOOTH",
"233 397 LINE SMOOTH"
);
}
);
};
layerId = "67B138FD-4947-43F2-9353-3B08A6E9966B";
paths = (
{
closed = 1;
nodes = (
"811 -17 OFFCURVE",
"876 251 OFFCURVE",
"876 416 CURVE SMOOTH",
"876 602 OFFCURVE",
"831 780 OFFCURVE",
"672 856 CURVE",
"785 917 OFFCURVE",
"826 1035 OFFCURVE",
"826 1150 CURVE SMOOTH",
"826 1304 OFFCURVE",
"739 1498 OFFCURVE",
"478 1498 CURVE SMOOTH",
"244 1498 OFFCURVE",
"130 1298 OFFCURVE",
"130 1150 CURVE SMOOTH {name = hr01;}",
"130 1038 OFFCURVE",
"171 914 OFFCURVE",
"292 853 CURVE",
"140 774 OFFCURVE",
"80 596 OFFCURVE",
"80 416 CURVE SMOOTH",
"80 259 OFFCURVE",
"145 -17 OFFCURVE",
"478 -17 CURVE SMOOTH"
);
},
{
closed = 1;
nodes = (
"311 64 OFFCURVE",
"215 215 OFFCURVE",
"215 416 CURVE SMOOTH",
"215 640 OFFCURVE",
"309 813 OFFCURVE",
"478 813 CURVE SMOOTH",
"651 813 OFFCURVE",
"743 651 OFFCURVE",
"743 416 CURVE SMOOTH {name = hr04;}",
"743 218 OFFCURVE",
"657 64 OFFCURVE",
"478 64 CURVE SMOOTH"
);
},
{
closed = 1;
nodes = (
"333 894 OFFCURVE",
"265 1008 OFFCURVE",
"265 1150 CURVE SMOOTH",
"265 1276 OFFCURVE",
"338 1417 OFFCURVE",
"478 1417 CURVE SMOOTH",
"617 1417 OFFCURVE",
"693 1289 OFFCURVE",
"693 1150 CURVE SMOOTH {name = hr03;}",
"693 1008 OFFCURVE",
"639 894 OFFCURVE",
"478 894 CURVE SMOOTH"
);
}
);
userData = {
com.adobe.type.autohint = "b''";
};
width = 956;
},
{
background = {
paths = (
{
closed = 1;
nodes = (
"165 692 OFFCURVE",
"129 623 OFFCURVE",
"129 562 CURVE SMOOTH",
"129 492 OFFCURVE",
"163 437 OFFCURVE",
"233 437 CURVE SMOOTH",
"312 437 OFFCURVE",
"338 492 OFFCURVE",
"338 562 CURVE SMOOTH",
"338 629 OFFCURVE",
"301 692 OFFCURVE",
"233 692 CURVE SMOOTH",
"233 692 LINE SMOOTH"
);
},
{
closed = 1;
nodes = (
"428 123 OFFCURVE",
"396 -8 OFFCURVE",
"233 -8 CURVE SMOOTH",
"71 -8 OFFCURVE",
"39 126 OFFCURVE",
"39 203 CURVE SMOOTH",
"39 291 OFFCURVE",
"68 378 OFFCURVE",
"142 416 CURVE",
"84 446 OFFCURVE",
"63 507 OFFCURVE",
"63 562 CURVE SMOOTH",
"63 634 OFFCURVE",
"119 731 OFFCURVE",
"233 731 CURVE SMOOTH",
"361 731 OFFCURVE",
"403 637 OFFCURVE",
"403 562 CURVE SMOOTH",
"403 505 OFFCURVE",
"383 448 OFFCURVE",
"328 418 CURVE",
"406 381 OFFCURVE",
"428 294 OFFCURVE",
"428 203 CURVE SMOOTH",
"428 203 LINE SMOOTH"
);
},
{
closed = 1;
nodes = (
"151 397 OFFCURVE",
"105 312 OFFCURVE",
"105 203 CURVE SMOOTH",
"105 105 OFFCURVE",
"152 31 OFFCURVE",
"233 31 CURVE SMOOTH",
"321 31 OFFCURVE",
"363 106 OFFCURVE",
"363 203 CURVE SMOOTH",
"363 318 OFFCURVE",
"318 397 OFFCURVE",
"233 397 CURVE SMOOTH",
"233 397 LINE SMOOTH"
);
},
{
closed = 1;
nodes = (
"403 481 OFFCURVE",
"362 397 OFFCURVE",
"233 397 CURVE SMOOTH",
"103 397 OFFCURVE",
"63 485 OFFCURVE",
"63 562 CURVE SMOOTH",
"63 634 OFFCURVE",
"119 731 OFFCURVE",
"233 731 CURVE SMOOTH",
"361 731 OFFCURVE",
"403 637 OFFCURVE",
"403 562 CURVE SMOOTH",
"403 562 LINE SMOOTH"
);
},
{
closed = 1;
nodes = (
"165 692 OFFCURVE",
"129 623 OFFCURVE",
"129 562 CURVE SMOOTH",
"129 492 OFFCURVE",
"163 437 OFFCURVE",
"233 437 CURVE SMOOTH",
"312 437 OFFCURVE",
"338 492 OFFCURVE",
"338 562 CURVE SMOOTH",
"338 629 OFFCURVE",
"301 692 OFFCURVE",
"233 692 CURVE SMOOTH",
"233 692 LINE SMOOTH"
);
},
{
closed = 1;
nodes = (
"428 123 OFFCURVE",
"396 -8 OFFCURVE",
"233 -8 CURVE SMOOTH",
"71 -8 OFFCURVE",
"39 126 OFFCURVE",
"39 203 CURVE SMOOTH",
"39 321 OFFCURVE",
"91 437 OFFCURVE",
"233 437 CURVE SMOOTH",
"390 437 OFFCURVE",
"428 323 OFFCURVE",
"428 203 CURVE SMOOTH",
"428 203 LINE SMOOTH"
);
},
{
closed = 1;
nodes = (
"151 397 OFFCURVE",
"105 312 OFFCURVE",
"105 203 CURVE SMOOTH",
"105 105 OFFCURVE",
"152 31 OFFCURVE",
"233 31 CURVE SMOOTH",
"321 31 OFFCURVE",
"363 106 OFFCURVE",
"363 203 CURVE SMOOTH",
"363 318 OFFCURVE",
"318 397 OFFCURVE",
"233 397 CURVE SMOOTH",
"233 397 LINE SMOOTH"
);
},
{
closed = 1;
nodes = (
"413 486 OFFCURVE",
"362 407 OFFCURVE",
"233 407 CURVE SMOOTH",
"103 407 OFFCURVE",
"54 490 OFFCURVE",
"54 566 CURVE SMOOTH",
"54 639 OFFCURVE",
"119 731 OFFCURVE",
"233 731 CURVE SMOOTH",
"361 731 OFFCURVE",
"413 642 OFFCURVE",
"413 566 CURVE SMOOTH",
"413 566 LINE SMOOTH"
);
},
{
closed = 1;
nodes = (
"190 702 OFFCURVE",
"182 628 OFFCURVE",
"182 566 CURVE SMOOTH",
"182 497 OFFCURVE",
"190 437 OFFCURVE",
"233 437 CURVE SMOOTH",
"277 437 OFFCURVE",
"290 497 OFFCURVE",
"290 566 CURVE SMOOTH",
"290 634 OFFCURVE",
"274 702 OFFCURVE",
"233 702 CURVE SMOOTH",
"233 702 LINE SMOOTH"
);
},
{
closed = 1;
nodes = (
"437 123 OFFCURVE",
"396 -8 OFFCURVE",
"233 -8 CURVE SMOOTH",
"71 -8 OFFCURVE",
"29 126 OFFCURVE",
"29 203 CURVE SMOOTH",
"29 321 OFFCURVE",
"91 437 OFFCURVE",
"233 437 CURVE SMOOTH",
"390 437 OFFCURVE",
"437 323 OFFCURVE",
"437 203 CURVE SMOOTH",
"437 203 LINE SMOOTH"
);
},
{
closed = 1;
nodes = (
"173 407 OFFCURVE",
"157 312 OFFCURVE",
"157 203 CURVE SMOOTH",
"157 105 OFFCURVE",
"172 21 OFFCURVE",
"233 21 CURVE SMOOTH",
"294 21 OFFCURVE",
"310 106 OFFCURVE",
"310 203 CURVE SMOOTH",
"310 318 OFFCURVE",
"297 407 OFFCURVE",
"233 407 CURVE SMOOTH",
"233 407 LINE SMOOTH"
);
}
);
};
layerId = "65425FA6-FA16-4213-8FC2-6D5B41D5C5D9";
paths = (
{
closed = 1;
nodes = (
"811 -17 OFFCURVE",
"896 251 OFFCURVE",
"896 416 CURVE SMOOTH",
"896 609 OFFCURVE",
"835 794 OFFCURVE",
"654 864 CURVE",
"789 919 OFFCURVE",
"846 1038 OFFCURVE",
"846 1160 CURVE SMOOTH",
"846 1314 OFFCURVE",
"739 1498 OFFCURVE",
"478 1498 CURVE SMOOTH",
"244 1498 OFFCURVE",
"110 1308 OFFCURVE",
"110 1160 CURVE SMOOTH {name = hr01;}",
"110 1042 OFFCURVE",
"167 917 OFFCURVE",
"310 862 CURVE",
"137 790 OFFCURVE",
"60 604 OFFCURVE",
"60 416 CURVE SMOOTH",
"60 259 OFFCURVE",
"145 -17 OFFCURVE",
"478 -17 CURVE SMOOTH"
);
},
{
closed = 1;
nodes = (
"352 43 OFFCURVE",
"322 215 OFFCURVE",
"322 416 CURVE SMOOTH",
"322 640 OFFCURVE",
"355 834 OFFCURVE",
"478 834 CURVE SMOOTH",
"609 834 OFFCURVE",
"634 651 OFFCURVE",
"634 416 CURVE SMOOTH {name = hr04;}",
"634 218 OFFCURVE",
"603 43 OFFCURVE",
"478 43 CURVE SMOOTH"
);
},
{
closed = 1;
nodes = (
"390 894 OFFCURVE",
"372 1018 OFFCURVE",
"372 1160 CURVE SMOOTH",
"372 1286 OFFCURVE",
"390 1438 OFFCURVE",
"478 1438 CURVE SMOOTH",
"562 1438 OFFCURVE",
"594 1299 OFFCURVE",
"594 1160 CURVE SMOOTH {name = hr03;}",
"594 1018 OFFCURVE",
"568 894 OFFCURVE",
"478 894 CURVE SMOOTH"
);
}
);
userData = {
com.adobe.type.autohint = "b''";
};
width = 956;
}
);
unicode = 0038;
},
{
glyphname = nine;
lastChange = "2021-04-06 16:12:05 +0000";
layers = (
{
background = {
paths = (
{
closed = 1;
nodes = (
"115 732 OFFCURVE",
"39 631 OFFCURVE",
"39 501 CURVE SMOOTH",
"39 364 OFFCURVE",
"104 280 OFFCURVE",
"233 280 CURVE SMOOTH",
"329 280 OFFCURVE",
"385 381 OFFCURVE",
"383 402 CURVE SMOOTH",
"379 455 OFFCURVE",
"366 581 OFFCURVE",
"366 581 CURVE",
"375 457 OFFCURVE",
"318 320 OFFCURVE",
"233 320 CURVE SMOOTH",
"160 320 OFFCURVE",
"104 390 OFFCURVE",
"104 501 CURVE SMOOTH",
"104 608 OFFCURVE",
"159 692 OFFCURVE",
"233 692 CURVE SMOOTH",
"303 692 OFFCURVE",
"362 588 OFFCURVE",
"362 378 CURVE SMOOTH",
"362 161 OFFCURVE",
"308 31 OFFCURVE",
"207 31 CURVE SMOOTH",
"159 31 OFFCURVE",
"105 68 OFFCURVE",
"83 101 CURVE SMOOTH",
"80 106 OFFCURVE",
"68 98 OFFCURVE",
"58 83 CURVE SMOOTH",
"48 67 OFFCURVE",
"46 62 OFFCURVE",
"51 56 CURVE SMOOTH",
"81 25 OFFCURVE",
"142 -8 OFFCURVE",
"223 -8 CURVE SMOOTH",
"352 -8 OFFCURVE",
"428 154 OFFCURVE",
"428 395 CURVE SMOOTH",
"428 619 OFFCURVE",
"353 732 OFFCURVE",
"233 732 CURVE SMOOTH",
"233 732 LINE SMOOTH"
);
},
{
closed = 1;
nodes = (
"115 732 OFFCURVE",
"39 631 OFFCURVE",
"39 501 CURVE SMOOTH",
"39 364 OFFCURVE",
"109 280 OFFCURVE",
"238 280 CURVE SMOOTH",
"333 280 OFFCURVE",
"384 371 OFFCURVE",
"383 402 CURVE SMOOTH",
"382 455 OFFCURVE",
"366 581 OFFCURVE",
"366 581 CURVE",
"375 442 OFFCURVE",
"318 320 OFFCURVE",
"233 320 CURVE SMOOTH",
"160 320 OFFCURVE",
"104 390 OFFCURVE",
"104 501 CURVE SMOOTH",
"104 608 OFFCURVE",
"159 692 OFFCURVE",
"233 692 CURVE SMOOTH",
"303 692 OFFCURVE",
"362 588 OFFCURVE",
"362 378 CURVE SMOOTH",
"362 161 OFFCURVE",
"308 31 OFFCURVE",
"207 31 CURVE SMOOTH",
"159 31 OFFCURVE",
"110 78 OFFCURVE",
"88 111 CURVE SMOOTH",
"85 116 OFFCURVE",
"75 113 OFFCURVE",
"63 93 CURVE SMOOTH",
"49 69 OFFCURVE",
"47 65 OFFCURVE",
"56 56 CURVE SMOOTH",
"86 26 OFFCURVE",
"134 -8 OFFCURVE",
"223 -8 CURVE SMOOTH",
"352 -8 OFFCURVE",
"428 154 OFFCURVE",
"428 395 CURVE SMOOTH",
"428 619 OFFCURVE",
"353 732 OFFCURVE",
"233 732 CURVE SMOOTH",
"233 732 LINE SMOOTH"
);
}
);
};
layerId = "67B138FD-4947-43F2-9353-3B08A6E9966B";
paths = (
{
closed = 1;
nodes = (
"720 -17 OFFCURVE",
"876 316 OFFCURVE",
"876 808 CURVE SMOOTH",
"876 1267 OFFCURVE",
"723 1499 OFFCURVE",
"478 1499 CURVE SMOOTH",
"236 1499 OFFCURVE",
"80 1292 OFFCURVE",
"80 1026 CURVE SMOOTH",
"80 745 OFFCURVE",
"224 574 OFFCURVE",
"488 574 CURVE SMOOTH",
"607 574 OFFCURVE",
"692 644 OFFCURVE",
"740 712 CURVE",
"730 305 OFFCURVE",
"621 64 OFFCURVE",
"424 64 CURVE SMOOTH",
"326 64 OFFCURVE",
"226 160 OFFCURVE",
"181 227 CURVE SMOOTH",
"174 237 OFFCURVE",
"154 231 OFFCURVE",
"129 190 CURVE SMOOTH",
"100 142 OFFCURVE",
"96 134 OFFCURVE",
"115 115 CURVE SMOOTH",
"177 53 OFFCURVE",
"275 -17 OFFCURVE",
"456 -17 CURVE SMOOTH"
);
},
{
closed = 1;
nodes = (
"328 655 OFFCURVE",
"213 799 OFFCURVE",
"213 1026 CURVE SMOOTH",
"213 1245 OFFCURVE",
"326 1418 OFFCURVE",
"478 1418 CURVE SMOOTH",
"598 1418 OFFCURVE",
"704 1264 OFFCURVE",
"733 957 CURVE",
"695 781 OFFCURVE",
"601 655 OFFCURVE",
"478 655 CURVE SMOOTH"
);
}
);
userData = {
com.adobe.type.autohint = "b''";
};
width = 956;
},
{
background = {
paths = (
{
closed = 1;
nodes = (
"428 154 OFFCURVE",
"352 -8 OFFCURVE",
"223 -8 CURVE SMOOTH",
"134 -8 OFFCURVE",
"86 26 OFFCURVE",
"56 56 CURVE SMOOTH",
"47 65 OFFCURVE",
"49 69 OFFCURVE",
"63 93 CURVE SMOOTH",
"75 113 OFFCURVE",
"85 116 OFFCURVE",
"88 111 CURVE SMOOTH",
"110 78 OFFCURVE",
"159 31 OFFCURVE",
"207 31 CURVE SMOOTH",
"303 31 OFFCURVE",
"357 149 OFFCURVE",
"361 348 CURVE",
"338 314 OFFCURVE",
"297 280 OFFCURVE",
"238 280 CURVE SMOOTH",
"109 280 OFFCURVE",
"39 364 OFFCURVE",
"39 501 CURVE SMOOTH",
"39 631 OFFCURVE",
"115 732 OFFCURVE",
"233 732 CURVE SMOOTH",
"353 732 OFFCURVE",
"428 619 OFFCURVE",
"428 395 CURVE SMOOTH",
"428 395 LINE SMOOTH"
);
},
{
closed = 1;
nodes = (
"344 617 OFFCURVE",
"292 692 OFFCURVE",
"233 692 CURVE SMOOTH",
"159 692 OFFCURVE",
"104 608 OFFCURVE",
"104 501 CURVE SMOOTH",
"104 390 OFFCURVE",
"160 320 OFFCURVE",
"233 320 CURVE SMOOTH",
"293 320 OFFCURVE",
"339 382 OFFCURVE",
"358 467 CURVE",
"358 467 LINE"
);
},
{
closed = 1;
nodes = (
"292 21 OFFCURVE",
"310 139 OFFCURVE",
"310 378 CURVE SMOOTH",
"310 588 OFFCURVE",
"302 703 OFFCURVE",
"233 703 CURVE SMOOTH",
"167 703 OFFCURVE",
"157 578 OFFCURVE",
"157 481 CURVE SMOOTH",
"157 396 OFFCURVE",
"167 280 OFFCURVE",
"233 280 CURVE SMOOTH",
"300 280 OFFCURVE",
"319 407 OFFCURVE",
"307 565 CURVE",
"307 565 OFFCURVE",
"393 426 OFFCURVE",
"381 375 CURVE SMOOTH",
"370 328 OFFCURVE",
"305 251 OFFCURVE",
"233 251 CURVE SMOOTH",
"88 251 OFFCURVE",
"29 376 OFFCURVE",
"29 481 CURVE SMOOTH",
"29 596 OFFCURVE",
"92 732 OFFCURVE",
"233 732 CURVE SMOOTH",
"353 732 OFFCURVE",
"437 619 OFFCURVE",
"437 395 CURVE SMOOTH",
"437 113 OFFCURVE",
"334 -8 OFFCURVE",
"204 -8 CURVE SMOOTH",
"145 -8 OFFCURVE",
"88 26 OFFCURVE",
"57 72 CURVE SMOOTH",
"51 81 OFFCURVE",
"60 101 OFFCURVE",
"95 123 CURVE SMOOTH",
"137 149 OFFCURVE",
"151 141 OFFCURVE",
"151 125 CURVE SMOOTH",
"151 81 OFFCURVE",
"169 21 OFFCURVE",
"210 21 CURVE SMOOTH",
"210 21 LINE SMOOTH"
);
},
{
closed = 0;
nodes = (
"218 -8 LINE",
"143 -8 OFFCURVE",
"84 30 OFFCURVE",
"42 92 CURVE SMOOTH",
"36 100 OFFCURVE",
"38 113 OFFCURVE",
"83 131 CURVE SMOOTH",
"122 147 OFFCURVE",
"140 145 OFFCURVE",
"143 133 CURVE SMOOTH",
"157 75 OFFCURVE",
"180 21 OFFCURVE",
"219 21 CURVE SMOOTH"
);
}
);
};
layerId = "65425FA6-FA16-4213-8FC2-6D5B41D5C5D9";
paths = (
{
closed = 1;
nodes = (
"720 -17 OFFCURVE",
"896 316 OFFCURVE",
"896 808 CURVE SMOOTH",
"896 1267 OFFCURVE",
"723 1499 OFFCURVE",
"478 1499 CURVE SMOOTH",
"236 1499 OFFCURVE",
"60 1292 OFFCURVE",
"60 1026 CURVE SMOOTH",
"60 745 OFFCURVE",
"224 574 OFFCURVE",
"488 574 CURVE SMOOTH",
"543 574 OFFCURVE",
"590 589 OFFCURVE",
"630 611 CURVE",
"623 261 OFFCURVE",
"585 43 OFFCURVE",
"444 43 CURVE SMOOTH",
"330 43 OFFCURVE",
"325 238 OFFCURVE",
"308 284 CURVE SMOOTH",
"297 314 OFFCURVE",
"273 314 OFFCURVE",
"175 259 CURVE SMOOTH",
"102 218 OFFCURVE",
"79 196 OFFCURVE",
"100 164 CURVE SMOOTH",
"166 63 OFFCURVE",
"275 -17 OFFCURVE",
"456 -17 CURVE SMOOTH"
);
},
{
closed = 1;
nodes = (
"349 655 OFFCURVE",
"322 799 OFFCURVE",
"322 1026 CURVE SMOOTH",
"322 1245 OFFCURVE",
"363 1439 OFFCURVE",
"478 1439 CURVE SMOOTH",
"592 1439 OFFCURVE",
"624 1262 OFFCURVE",
"631 934 CURVE",
"619 771 OFFCURVE",
"576 655 OFFCURVE",
"478 655 CURVE SMOOTH"
);
}
);
userData = {
com.adobe.type.autohint = "b''";
};
width = 956;
}
);
unicode = 0039;
},
{
glyphname = colon;
lastChange = "2021-04-06 16:12:05 +0000";
layers = (
{
background = {
paths = (
{
closed = 1;
nodes = (
"124 290 OFFCURVE",
"100 269 OFFCURVE",
"78 269 CURVE SMOOTH",
"52 269 OFFCURVE",
"31 293 OFFCURVE",
"31 324 CURVE SMOOTH",
"31 355 OFFCURVE",
"52 379 OFFCURVE",
"78 379 CURVE SMOOTH",
"102 379 OFFCURVE",
"124 355 OFFCURVE",
"124 324 CURVE SMOOTH",
"124 324 LINE SMOOTH"
);
},
{
closed = 1;
nodes = (
"124 10 OFFCURVE",
"100 -13 OFFCURVE",
"77 -13 CURVE SMOOTH",
"53 -13 OFFCURVE",
"30 11 OFFCURVE",
"30 45 CURVE SMOOTH",
"30 82 OFFCURVE",
"56 100 OFFCURVE",
"77 100 CURVE SMOOTH",
"97 100 OFFCURVE",
"124 80 OFFCURVE",
"124 45 CURVE SMOOTH",
"124 45 LINE SMOOTH"
);
},
{
closed = 1;
nodes = (
"128 15 OFFCURVE",
"109 -8 OFFCURVE",
"86 -8 CURVE SMOOTH",
"62 -8 OFFCURVE",
"44 16 OFFCURVE",
"44 49 CURVE SMOOTH",
"44 86 OFFCURVE",
"65 105 OFFCURVE",
"86 105 CURVE SMOOTH",
"107 105 OFFCURVE",
"128 84 OFFCURVE",
"128 49 CURVE SMOOTH",
"128 49 LINE SMOOTH"
);
},
{
closed = 1;
nodes = (
"129 289 OFFCURVE",
"110 266 OFFCURVE",
"86 266 CURVE SMOOTH",
"63 266 OFFCURVE",
"44 290 OFFCURVE",
"44 324 CURVE SMOOTH",
"44 360 OFFCURVE",
"66 379 OFFCURVE",
"86 379 CURVE SMOOTH",
"107 379 OFFCURVE",
"129 358 OFFCURVE",
"129 324 CURVE SMOOTH",
"129 324 LINE SMOOTH"
);
},
{
closed = 1;
nodes = (
"138 309 OFFCURVE",
"117 285 OFFCURVE",
"92 285 CURVE SMOOTH",
"67 285 OFFCURVE",
"47 310 OFFCURVE",
"47 346 CURVE SMOOTH",
"47 385 OFFCURVE",
"70 406 OFFCURVE",
"92 406 CURVE SMOOTH",
"114 406 OFFCURVE",
"138 383 OFFCURVE",
"138 346 CURVE SMOOTH",
"138 346 LINE SMOOTH"
);
},
{
closed = 1;
nodes = (
"137 16 OFFCURVE",
"117 -9 OFFCURVE",
"92 -9 CURVE SMOOTH",
"66 -9 OFFCURVE",
"47 17 OFFCURVE",
"47 53 CURVE SMOOTH",
"47 92 OFFCURVE",
"70 112 OFFCURVE",
"92 112 CURVE SMOOTH",
"114 112 OFFCURVE",
"137 90 OFFCURVE",
"137 53 CURVE SMOOTH",
"137 53 LINE SMOOTH"
);
}
);
};
layerId = "67B138FD-4947-43F2-9353-3B08A6E9966B";
paths = (
{
closed = 1;
nodes = (
"239 583 OFFCURVE",
"281 633 OFFCURVE",
"281 709 CURVE SMOOTH",
"281 785 OFFCURVE",
"233 831 OFFCURVE",
"188 831 CURVE SMOOTH",
"143 831 OFFCURVE",
"96 789 OFFCURVE",
"96 709 CURVE SMOOTH",
"96 635 OFFCURVE",
"136 583 OFFCURVE",
"188 583 CURVE SMOOTH"
);
},
{
closed = 1;
nodes = (
"240 -18 OFFCURVE",
"282 32 OFFCURVE",
"282 108 CURVE SMOOTH",
"282 184 OFFCURVE",
"234 230 OFFCURVE",
"189 230 CURVE SMOOTH",
"144 230 OFFCURVE",
"97 188 OFFCURVE",
"97 108 CURVE SMOOTH",
"97 34 OFFCURVE",
"137 -18 OFFCURVE",
"189 -18 CURVE SMOOTH"
);
}
);
userData = {
com.adobe.type.autohint = "b''";
};
width = 379;
},
{
background = {
paths = (
{
closed = 1;
nodes = (
"417 290 OFFCURVE",
"393 269 OFFCURVE",
"371 269 CURVE SMOOTH",
"345 269 OFFCURVE",
"324 293 OFFCURVE",
"324 324 CURVE SMOOTH",
"324 355 OFFCURVE",
"345 379 OFFCURVE",
"371 379 CURVE SMOOTH",
"395 379 OFFCURVE",
"417 355 OFFCURVE",
"417 324 CURVE SMOOTH",
"417 324 LINE SMOOTH"
);
},
{
closed = 1;
nodes = (
"417 10 OFFCURVE",
"393 -13 OFFCURVE",
"370 -13 CURVE SMOOTH",
"346 -13 OFFCURVE",
"323 11 OFFCURVE",
"323 45 CURVE SMOOTH",
"323 82 OFFCURVE",
"349 100 OFFCURVE",
"370 100 CURVE SMOOTH",
"390 100 OFFCURVE",
"417 80 OFFCURVE",
"417 45 CURVE SMOOTH",
"417 45 LINE SMOOTH"
);
},
{
closed = 1;
nodes = (
"421 15 OFFCURVE",
"402 -8 OFFCURVE",
"379 -8 CURVE SMOOTH",
"355 -8 OFFCURVE",
"337 16 OFFCURVE",
"337 49 CURVE SMOOTH",
"337 86 OFFCURVE",
"358 105 OFFCURVE",
"379 105 CURVE SMOOTH",
"400 105 OFFCURVE",
"421 84 OFFCURVE",
"421 49 CURVE SMOOTH",
"421 49 LINE SMOOTH"
);
},
{
closed = 1;
nodes = (
"422 289 OFFCURVE",
"402 266 OFFCURVE",
"379 266 CURVE SMOOTH",
"355 266 OFFCURVE",
"337 290 OFFCURVE",
"337 324 CURVE SMOOTH",
"337 360 OFFCURVE",
"359 379 OFFCURVE",
"379 379 CURVE SMOOTH",
"400 379 OFFCURVE",
"422 358 OFFCURVE",
"422 324 CURVE SMOOTH",
"422 324 LINE SMOOTH"
);
},
{
closed = 1;
nodes = (
"129 289 OFFCURVE",
"110 266 OFFCURVE",
"86 266 CURVE SMOOTH",
"63 266 OFFCURVE",
"44 290 OFFCURVE",
"44 324 CURVE SMOOTH",
"44 360 OFFCURVE",
"66 379 OFFCURVE",
"86 379 CURVE SMOOTH",
"107 379 OFFCURVE",
"129 358 OFFCURVE",
"129 324 CURVE SMOOTH",
"129 324 LINE SMOOTH"
);
},
{
closed = 1;
nodes = (
"128 15 OFFCURVE",
"109 -8 OFFCURVE",
"86 -8 CURVE SMOOTH",
"62 -8 OFFCURVE",
"44 16 OFFCURVE",
"44 49 CURVE SMOOTH",
"44 86 OFFCURVE",
"65 105 OFFCURVE",
"86 105 CURVE SMOOTH",
"107 105 OFFCURVE",
"128 84 OFFCURVE",
"128 49 CURVE SMOOTH",
"128 49 LINE SMOOTH"
);
}
);
};
layerId = "65425FA6-FA16-4213-8FC2-6D5B41D5C5D9";
paths = (
{
closed = 1;
nodes = (
"273 -18 OFFCURVE",
"325 45 OFFCURVE",
"325 141 CURVE SMOOTH",
"325 243 OFFCURVE",
"273 295 OFFCURVE",
"211 295 CURVE SMOOTH",
"153 295 OFFCURVE",
"96 242 OFFCURVE",
"96 141 CURVE SMOOTH",
"96 43 OFFCURVE",
"152 -18 OFFCURVE",
"211 -18 CURVE SMOOTH"
);
},
{
closed = 1;
nodes = (
"273 519 OFFCURVE",
"325 581 OFFCURVE",
"325 677 CURVE SMOOTH",
"325 779 OFFCURVE",
"273 831 OFFCURVE",
"211 831 CURVE SMOOTH",
"153 831 OFFCURVE",
"96 778 OFFCURVE",
"96 677 CURVE SMOOTH",
"96 579 OFFCURVE",
"152 519 OFFCURVE",
"211 519 CURVE SMOOTH"
);
}
);
userData = {
com.adobe.type.autohint = "b''";
};
width = 422;
}
);
unicode = 003A;
},
{
glyphname = semicolon;
lastChange = "2021-04-06 16:12:05 +0000";
layers = (
{
background = {
paths = (
{
closed = 1;
nodes = (
"140 -106 OFFCURVE",
"36 -185 OFFCURVE",
"33 -173 CURVE SMOOTH",
"30 -165 OFFCURVE",
"112 -104 OFFCURVE",
"112 -9 CURVE SMOOTH",
"112 2 OFFCURVE",
"105 13 OFFCURVE",
"102 13 CURVE SMOOTH",
"96 13 OFFCURVE",
"85 0 OFFCURVE",
"72 0 CURVE SMOOTH",
"50 0 OFFCURVE",
"30 26 OFFCURVE",
"30 56 CURVE SMOOTH",
"30 91 OFFCURVE",
"52 110 OFFCURVE",
"74 110 CURVE SMOOTH",
"119 110 OFFCURVE",
"140 60 OFFCURVE",
"140 9 CURVE SMOOTH",
"140 9 LINE SMOOTH"
);
},
{
closed = 1;
nodes = (
"124 292 OFFCURVE",
"100 269 OFFCURVE",
"77 269 CURVE SMOOTH",
"53 269 OFFCURVE",
"30 293 OFFCURVE",
"30 326 CURVE SMOOTH",
"30 363 OFFCURVE",
"56 381 OFFCURVE",
"77 381 CURVE SMOOTH",
"97 381 OFFCURVE",
"124 361 OFFCURVE",
"124 326 CURVE SMOOTH",
"124 326 LINE SMOOTH"
);
},
{
closed = 1;
nodes = (
"134 289 OFFCURVE",
"114 266 OFFCURVE",
"91 266 CURVE SMOOTH",
"67 266 OFFCURVE",
"49 290 OFFCURVE",
"49 324 CURVE SMOOTH",
"49 360 OFFCURVE",
"71 379 OFFCURVE",
"91 379 CURVE SMOOTH",
"112 379 OFFCURVE",
"134 358 OFFCURVE",
"134 324 CURVE SMOOTH",
"134 324 LINE SMOOTH"
);
},
{
closed = 1;
nodes = (
"144 -114 OFFCURVE",
"50 -193 OFFCURVE",
"46 -181 CURVE SMOOTH",
"44 -172 OFFCURVE",
"118 -111 OFFCURVE",
"118 -16 CURVE SMOOTH",
"118 -6 OFFCURVE",
"112 5 OFFCURVE",
"109 5 CURVE SMOOTH",
"104 5 OFFCURVE",
"94 -8 OFFCURVE",
"83 -8 CURVE SMOOTH",
"62 -8 OFFCURVE",
"44 19 OFFCURVE",
"44 49 CURVE SMOOTH",
"44 84 OFFCURVE",
"68 103 OFFCURVE",
"87 103 CURVE SMOOTH",
"129 103 OFFCURVE",
"144 52 OFFCURVE",
"144 1 CURVE SMOOTH",
"144 1 LINE SMOOTH"
);
}
);
};
layerId = "67B138FD-4947-43F2-9353-3B08A6E9966B";
paths = (
{
closed = 1;
nodes = (
"109 -423 OFFCURVE",
"316 -250 OFFCURVE",
"316 3 CURVE SMOOTH {name = hr01;}",
"316 115 OFFCURVE",
"282 225 OFFCURVE",
"192 225 CURVE SMOOTH",
"150 225 OFFCURVE",
"96 183 OFFCURVE",
"96 107 CURVE SMOOTH {name = hr02;}",
"96 41 OFFCURVE",
"136 -17 OFFCURVE",
"181 -17 CURVE SMOOTH",
"206 -17 OFFCURVE",
"229 12 OFFCURVE",
"239 12 CURVE SMOOTH",
"247 12 OFFCURVE",
"259 -12 OFFCURVE",
"259 -35 CURVE SMOOTH",
"259 -244 OFFCURVE",
"96 -378 OFFCURVE",
"102 -397 CURVE SMOOTH"
);
},
{
closed = 1;
nodes = (
"251 583 OFFCURVE",
"293 633 OFFCURVE",
"293 709 CURVE SMOOTH",
"293 785 OFFCURVE",
"245 831 OFFCURVE",
"200 831 CURVE SMOOTH",
"155 831 OFFCURVE",
"108 789 OFFCURVE",
"108 709 CURVE SMOOTH",
"108 635 OFFCURVE",
"148 583 OFFCURVE",
"200 583 CURVE SMOOTH"
);
}
);
userData = {
com.adobe.type.autohint = "b''";
};
width = 407;
},
{
background = {
paths = (
{
closed = 1;
nodes = (
"134 289 OFFCURVE",
"114 266 OFFCURVE",
"91 266 CURVE SMOOTH",
"67 266 OFFCURVE",
"49 290 OFFCURVE",
"49 324 CURVE SMOOTH",
"49 360 OFFCURVE",
"71 379 OFFCURVE",
"91 379 CURVE SMOOTH",
"112 379 OFFCURVE",
"134 358 OFFCURVE",
"134 324 CURVE SMOOTH",
"134 324 LINE SMOOTH"
);
},
{
closed = 1;
nodes = (
"144 -114 OFFCURVE",
"50 -193 OFFCURVE",
"46 -181 CURVE SMOOTH",
"44 -172 OFFCURVE",
"118 -111 OFFCURVE",
"118 -16 CURVE SMOOTH",
"118 -6 OFFCURVE",
"112 5 OFFCURVE",
"109 5 CURVE SMOOTH",
"104 5 OFFCURVE",
"94 -8 OFFCURVE",
"83 -8 CURVE SMOOTH",
"62 -8 OFFCURVE",
"44 19 OFFCURVE",
"44 49 CURVE SMOOTH",
"44 84 OFFCURVE",
"68 103 OFFCURVE",
"87 103 CURVE SMOOTH",
"129 103 OFFCURVE",
"144 52 OFFCURVE",
"144 1 CURVE SMOOTH",
"144 1 LINE SMOOTH"
);
}
);
};
layerId = "65425FA6-FA16-4213-8FC2-6D5B41D5C5D9";
paths = (
{
closed = 1;
nodes = (
"131 -423 OFFCURVE",
"360 -286 OFFCURVE",
"360 56 CURVE SMOOTH {name = hr01;}",
"360 185 OFFCURVE",
"309 296 OFFCURVE",
"213 296 CURVE SMOOTH",
"150 296 OFFCURVE",
"97 238 OFFCURVE",
"97 138 CURVE SMOOTH",
"97 37 OFFCURVE",
"159 -17 OFFCURVE",
"213 -17 CURVE SMOOTH",
"243 -17 OFFCURVE",
"251 10 OFFCURVE",
"261 10 CURVE SMOOTH",
"269 10 OFFCURVE",
"274 -21 OFFCURVE",
"274 -56 CURVE SMOOTH",
"274 -227 OFFCURVE",
"118 -378 OFFCURVE",
"124 -397 CURVE SMOOTH"
);
},
{
closed = 1;
nodes = (
"273 521 OFFCURVE",
"325 583 OFFCURVE",
"325 679 CURVE SMOOTH",
"325 781 OFFCURVE",
"273 834 OFFCURVE",
"211 834 CURVE SMOOTH",
"153 834 OFFCURVE",
"96 780 OFFCURVE",
"96 679 CURVE SMOOTH",
"96 581 OFFCURVE",
"152 521 OFFCURVE",
"211 521 CURVE SMOOTH"
);
}
);
userData = {
com.adobe.type.autohint = "b''";
};
width = 450;
}
);
unicode = 003B;
},
{
glyphname = less;
lastChange = "2021-04-06 16:05:48 +0000";
layers = (
{
background = {
paths = (
{
closed = 1;
nodes = (
"423 86 OFFCURVE",
"352 -8 OFFCURVE",
"223 -8 CURVE SMOOTH",
"142 -8 OFFCURVE",
"81 25 OFFCURVE",
"51 56 CURVE SMOOTH",
"46 62 OFFCURVE",
"48 67 OFFCURVE",
"58 83 CURVE SMOOTH",
"68 98 OFFCURVE",
"80 106 OFFCURVE",
"83 101 CURVE SMOOTH",
"105 68 OFFCURVE",
"159 31 OFFCURVE",
"207 31 CURVE SMOOTH",
"308 31 OFFCURVE",
"357 114 OFFCURVE",
"357 220 CURVE SMOOTH",
"357 351 OFFCURVE",
"287 401 OFFCURVE",
"209 396 CURVE SMOOTH",
"207 396 OFFCURVE",
"204 408 OFFCURVE",
"205 417 CURVE SMOOTH",
"207 432 OFFCURVE",
"209 434 OFFCURVE",
"213 434 CURVE SMOOTH",
"299 434 OFFCURVE",
"333 484 OFFCURVE",
"333 558 CURVE SMOOTH",
"333 631 OFFCURVE",
"296 692 OFFCURVE",
"230 692 CURVE SMOOTH",
"167 692 OFFCURVE",
"129 646 OFFCURVE",
"109 611 CURVE SMOOTH",
"107 607 OFFCURVE",
"97 615 OFFCURVE",
"83 630 CURVE SMOOTH",
"74 640 OFFCURVE",
"70 649 OFFCURVE",
"73 654 CURVE SMOOTH",
"100 692 OFFCURVE",
"167 731 OFFCURVE",
"220 731 CURVE SMOOTH",
"334 731 OFFCURVE",
"390 663 OFFCURVE",
"390 569 CURVE SMOOTH",
"390 484 OFFCURVE",
"373 449 OFFCURVE",
"319 418 CURVE",
"384 378 OFFCURVE",
"423 329 OFFCURVE",
"423 209 CURVE SMOOTH",
"423 209 LINE SMOOTH"
);
},
{
closed = 0;
nodes = (
"225 692 LINE",
"158 692 OFFCURVE",
"124 651 OFFCURVE",
"108 616 CURVE SMOOTH",
"99 596 OFFCURVE",
"88 596 OFFCURVE",
"68 625 CURVE SMOOTH",
"53 646 OFFCURVE",
"58 656 OFFCURVE",
"62 660 CURVE SMOOTH",
"99 697 OFFCURVE",
"160 732 OFFCURVE",
"236 732 CURVE SMOOTH"
);
},
{
closed = 1;
nodes = (
"35 101 OFFCURVE",
"40 106 OFFCURVE",
"62 121 CURVE SMOOTH",
"88 137 OFFCURVE",
"98 136 OFFCURVE",
"101 126 CURVE SMOOTH",
"112 76 OFFCURVE",
"163 31 OFFCURVE",
"211 31 CURVE",
"164 31 OFFCURVE",
"113 70 OFFCURVE",
"91 103 CURVE SMOOTH",
"87 108 OFFCURVE",
"76 100 OFFCURVE",
"65 85 CURVE SMOOTH",
"55 69 OFFCURVE",
"53 64 OFFCURVE",
"59 58 CURVE SMOOTH",
"79 33 OFFCURVE",
"148 -8 OFFCURVE",
"229 -8 CURVE",
"127 -8 OFFCURVE",
"71 50 OFFCURVE",
"42 92 CURVE SMOOTH",
"42 92 LINE SMOOTH"
);
},
{
closed = 1;
nodes = (
"423 96 OFFCURVE",
"363 -8 OFFCURVE",
"223 -8 CURVE SMOOTH",
"142 -8 OFFCURVE",
"81 25 OFFCURVE",
"51 56 CURVE SMOOTH",
"46 62 OFFCURVE",
"48 67 OFFCURVE",
"58 83 CURVE SMOOTH",
"68 98 OFFCURVE",
"85 111 OFFCURVE",
"88 106 CURVE SMOOTH",
"110 73 OFFCURVE",
"159 31 OFFCURVE",
"207 31 CURVE SMOOTH",
"301 31 OFFCURVE",
"357 114 OFFCURVE",
"357 220 CURVE SMOOTH",
"357 333 OFFCURVE",
"301 403 OFFCURVE",
"209 396 CURVE SMOOTH",
"207 396 OFFCURVE",
"204 408 OFFCURVE",
"205 417 CURVE SMOOTH",
"207 432 OFFCURVE",
"209 434 OFFCURVE",
"213 434 CURVE SMOOTH",
"299 434 OFFCURVE",
"337 484 OFFCURVE",
"337 558 CURVE SMOOTH",
"337 635 OFFCURVE",
"294 692 OFFCURVE",
"220 692 CURVE SMOOTH",
"171 692 OFFCURVE",
"133 667 OFFCURVE",
"109 616 CURVE SMOOTH",
"107 612 OFFCURVE",
"97 620 OFFCURVE",
"83 635 CURVE SMOOTH",
"74 644 OFFCURVE",
"65 654 OFFCURVE",
"68 659 CURVE SMOOTH",
"97 704 OFFCURVE",
"165 731 OFFCURVE",
"230 731 CURVE SMOOTH",
"344 731 OFFCURVE",
"395 658 OFFCURVE",
"395 569 CURVE SMOOTH",
"395 496 OFFCURVE",
"359 442 OFFCURVE",
"305 418 CURVE",
"374 393 OFFCURVE",
"423 331 OFFCURVE",
"423 219 CURVE SMOOTH",
"423 219 LINE SMOOTH"
);
}
);
};
layerId = "67B138FD-4947-43F2-9353-3B08A6E9966B";
paths = (
{
closed = 1;
nodes = (
"1576 199 LINE",
"520 591 LINE",
"1576 983 LINE",
"1576 1105 LINE",
"394 652 LINE",
"394 530 LINE",
"1576 77 LINE"
);
}
);
width = 1970;
},
{
background = {
paths = (
{
closed = 1;
nodes = (
"599 -157 OFFCURVE",
"489 -262 OFFCURVE",
"406 -290 CURVE SMOOTH",
"383 -297 OFFCURVE",
"364 -301 OFFCURVE",
"357 -297 CURVE SMOOTH",
"353 -295 OFFCURVE",
"367 -287 OFFCURVE",
"393 -274 CURVE SMOOTH",
"427 -257 OFFCURVE",
"482 -161 OFFCURVE",
"482 67 CURVE SMOOTH",
"482 285 OFFCURVE",
"384 433 OFFCURVE",
"285 433 CURVE SMOOTH",
"239 433 OFFCURVE",
"201 411 OFFCURVE",
"201 360 CURVE SMOOTH",
"201 323 OFFCURVE",
"221 282 OFFCURVE",
"296 227 CURVE SMOOTH",
"360 180 OFFCURVE",
"423 143 OFFCURVE",
"423 75 CURVE SMOOTH",
"423 26 OFFCURVE",
"347 -8 OFFCURVE",
"247 -8 CURVE SMOOTH",
"132 -8 OFFCURVE",
"31 22 OFFCURVE",
"31 69 CURVE SMOOTH",
"31 129 OFFCURVE",
"66 160 OFFCURVE",
"106 176 CURVE SMOOTH",
"122 183 OFFCURVE",
"130 181 OFFCURVE",
"166 150 CURVE SMOOTH",
"195 124 OFFCURVE",
"200 115 OFFCURVE",
"194 113 CURVE SMOOTH",
"180 108 OFFCURVE",
"170 90 OFFCURVE",
"170 72 CURVE SMOOTH",
"170 52 OFFCURVE",
"209 31 OFFCURVE",
"242 31 CURVE SMOOTH",
"277 31 OFFCURVE",
"306 52 OFFCURVE",
"306 81 CURVE SMOOTH",
"306 132 OFFCURVE",
"274 171 OFFCURVE",
"205 226 CURVE SMOOTH",
"129 285 OFFCURVE",
"94 312 OFFCURVE",
"94 351 CURVE SMOOTH",
"94 429 OFFCURVE",
"162 473 OFFCURVE",
"289 473 CURVE SMOOTH",
"471 473 OFFCURVE",
"599 284 OFFCURVE",
"599 88 CURVE SMOOTH",
"599 88 LINE SMOOTH"
);
},
{
closed = 1;
nodes = (
"580 -157 OFFCURVE",
"510 -238 OFFCURVE",
"428 -284 CURVE SMOOTH",
"407 -296 OFFCURVE",
"386 -295 OFFCURVE",
"379 -292 CURVE SMOOTH",
"375 -289 OFFCURVE",
"378 -282 OFFCURVE",
"404 -269 CURVE SMOOTH",
"438 -252 OFFCURVE",
"513 -161 OFFCURVE",
"513 67 CURVE SMOOTH",
"513 285 OFFCURVE",
"377 433 OFFCURVE",
"266 433 CURVE SMOOTH",
"197 433 OFFCURVE",
"166 411 OFFCURVE",
"166 360 CURVE SMOOTH",
"166 323 OFFCURVE",
"188 296 OFFCURVE",
"254 242 CURVE SMOOTH",
"346 168 OFFCURVE",
"367 138 OFFCURVE",
"367 92 CURVE SMOOTH",
"367 34 OFFCURVE",
"334 -8 OFFCURVE",
"232 -8 CURVE SMOOTH",
"131 -8 OFFCURVE",
"101 36 OFFCURVE",
"101 69 CURVE SMOOTH",
"101 95 OFFCURVE",
"116 129 OFFCURVE",
"147 155 CURVE SMOOTH",
"152 159 OFFCURVE",
"161 159 OFFCURVE",
"183 140 CURVE SMOOTH",
"204 120 OFFCURVE",
"205 112 OFFCURVE",
"199 110 CURVE SMOOTH",
"188 105 OFFCURVE",
"166 90 OFFCURVE",
"166 72 CURVE SMOOTH",
"166 52 OFFCURVE",
"187 31 OFFCURVE",
"232 31 CURVE SMOOTH",
"277 31 OFFCURVE",
"302 47 OFFCURVE",
"302 91 CURVE SMOOTH",
"302 128 OFFCURVE",
"271 167 OFFCURVE",
"195 226 CURVE SMOOTH",
"120 285 OFFCURVE",
"101 312 OFFCURVE",
"101 351 CURVE SMOOTH",
"101 416 OFFCURVE",
"148 473 OFFCURVE",
"269 473 CURVE SMOOTH",
"458 473 OFFCURVE",
"580 284 OFFCURVE",
"580 88 CURVE SMOOTH",
"580 88 LINE SMOOTH"
);
}
);
};
layerId = "65425FA6-FA16-4213-8FC2-6D5B41D5C5D9";
paths = (
{
closed = 1;
nodes = (
"1576 199 LINE",
"520 591 LINE",
"1576 983 LINE",
"1576 1105 LINE",
"394 652 LINE",
"394 530 LINE",
"1576 77 LINE"
);
}
);
width = 1970;
}
);
unicode = 003C;
},
{
glyphname = equal;
lastChange = "2021-04-06 16:05:48 +0000";
layers = (
{
layerId = "67B138FD-4947-43F2-9353-3B08A6E9966B";
paths = (
{
closed = 1;
nodes = (
"1576 709 LINE",
"1576 831 LINE",
"394 831 LINE",
"394 709 LINE"
);
},
{
closed = 1;
nodes = (
"1576 351 LINE",
"1576 473 LINE",
"394 473 LINE",
"394 351 LINE"
);
}
);
userData = {
com.adobe.type.autohint = "b''";
};
width = 1970;
},
{
layerId = "65425FA6-FA16-4213-8FC2-6D5B41D5C5D9";
paths = (
{
closed = 1;
nodes = (
"1576 709 LINE",
"1576 831 LINE",
"394 831 LINE",
"394 709 LINE"
);
},
{
closed = 1;
nodes = (
"1576 351 LINE",
"1576 473 LINE",
"394 473 LINE",
"394 351 LINE"
);
}
);
userData = {
com.adobe.type.autohint = "b''";
};
width = 1970;
}
);
unicode = 003D;
},
{
glyphname = greater;
lastChange = "2021-04-06 16:05:48 +0000";
layers = (
{
layerId = "67B138FD-4947-43F2-9353-3B08A6E9966B";
paths = (
{
closed = 1;
nodes = (
"1576 530 LINE",
"1576 652 LINE",
"394 1105 LINE",
"394 983 LINE",
"1450 591 LINE",
"394 199 LINE",
"394 77 LINE"
);
}
);
width = 1970;
},
{
layerId = "65425FA6-FA16-4213-8FC2-6D5B41D5C5D9";
paths = (
{
closed = 1;
nodes = (
"1576 530 LINE",
"1576 652 LINE",
"394 1105 LINE",
"394 983 LINE",
"1450 591 LINE",
"394 199 LINE",
"394 77 LINE"
);
}
);
width = 1970;
}
);
unicode = 003E;
},
{
glyphname = question;
lastChange = "2021-04-06 16:12:05 +0000";
layers = (
{
background = {
paths = (
{
closed = 1;
nodes = (
"184 59 OFFCURVE",
"198 47 OFFCURVE",
"198 24 CURVE SMOOTH",
"198 7 OFFCURVE",
"184 -8 OFFCURVE",
"167 -8 CURVE SMOOTH",
"151 -8 OFFCURVE",
"138 7 OFFCURVE",
"138 24 CURVE SMOOTH",
"138 41 OFFCURVE",
"149 59 OFFCURVE",
"166 59 CURVE SMOOTH",
"166 59 LINE SMOOTH"
);
},
{
closed = 1;
nodes = (
"143 111 OFFCURVE",
"146 215 OFFCURVE",
"151 222 CURVE SMOOTH",
"155 227 OFFCURVE",
"237 248 OFFCURVE",
"237 327 CURVE SMOOTH",
"237 379 OFFCURVE",
"203 411 OFFCURVE",
"173 411 CURVE SMOOTH",
"131 411 OFFCURVE",
"104 375 OFFCURVE",
"93 341 CURVE SMOOTH",
"90 333 OFFCURVE",
"85 332 OFFCURVE",
"65 344 CURVE SMOOTH",
"45 355 OFFCURVE",
"41 361 OFFCURVE",
"46 368 CURVE SMOOTH",
"64 395 OFFCURVE",
"99 442 OFFCURVE",
"174 442 CURVE SMOOTH",
"229 442 OFFCURVE",
"286 401 OFFCURVE",
"285 330 CURVE SMOOTH",
"283 226 OFFCURVE",
"193 206 OFFCURVE",
"188 201 CURVE SMOOTH",
"183 195 OFFCURVE",
"184 111 OFFCURVE",
"185 101 CURVE SMOOTH",
"185 97 OFFCURVE",
"184 93 OFFCURVE",
"167 93 CURVE SMOOTH",
"148 93 OFFCURVE",
"146 95 OFFCURVE",
"145 101 CURVE SMOOTH",
"145 101 LINE SMOOTH"
);
}
);
};
layerId = "67B138FD-4947-43F2-9353-3B08A6E9966B";
paths = (
{
closed = 1;
nodes = (
"403 203 OFFCURVE",
"407 212 OFFCURVE",
"406 221 CURVE SMOOTH",
"404 242 OFFCURVE",
"400 428 OFFCURVE",
"412 441 CURVE SMOOTH",
"422 452 OFFCURVE",
"621 495 OFFCURVE",
"624 722 CURVE SMOOTH",
"626 879 OFFCURVE",
"503 968 OFFCURVE",
"382 968 CURVE SMOOTH",
"216 968 OFFCURVE",
"140 866 OFFCURVE",
"101 807 CURVE SMOOTH",
"92 794 OFFCURVE",
"99 779 OFFCURVE",
"143 753 CURVE SMOOTH",
"187 727 OFFCURVE",
"197 730 OFFCURVE",
"203 747 CURVE SMOOTH",
"228 822 OFFCURVE",
"287 901 OFFCURVE",
"379 901 CURVE SMOOTH",
"445 901 OFFCURVE",
"520 830 OFFCURVE",
"520 717 CURVE SMOOTH",
"520 543 OFFCURVE",
"341 498 OFFCURVE",
"332 486 CURVE SMOOTH",
"321 471 OFFCURVE",
"314 242 OFFCURVE",
"318 220 CURVE SMOOTH",
"321 207 OFFCURVE",
"327 203 OFFCURVE",
"367 203 CURVE SMOOTH"
);
},
{
closed = 1;
nodes = (
"404 -17 OFFCURVE",
"434 15 OFFCURVE",
"434 52 CURVE SMOOTH",
"434 102 OFFCURVE",
"403 128 OFFCURVE",
"363 128 CURVE SMOOTH",
"326 128 OFFCURVE",
"302 89 OFFCURVE",
"302 52 CURVE SMOOTH",
"302 15 OFFCURVE",
"330 -17 OFFCURVE",
"367 -17 CURVE SMOOTH"
);
}
);
userData = {
com.adobe.type.autohint = "b''";
};
width = 720;
},
{
background = {
paths = (
{
closed = 1;
nodes = (
"184 59 OFFCURVE",
"198 47 OFFCURVE",
"198 24 CURVE SMOOTH",
"198 7 OFFCURVE",
"184 -8 OFFCURVE",
"167 -8 CURVE SMOOTH",
"151 -8 OFFCURVE",
"138 7 OFFCURVE",
"138 24 CURVE SMOOTH",
"138 41 OFFCURVE",
"149 59 OFFCURVE",
"166 59 CURVE SMOOTH",
"166 59 LINE SMOOTH"
);
},
{
closed = 1;
nodes = (
"143 111 OFFCURVE",
"146 215 OFFCURVE",
"151 222 CURVE SMOOTH",
"155 227 OFFCURVE",
"237 248 OFFCURVE",
"237 327 CURVE SMOOTH",
"237 379 OFFCURVE",
"203 411 OFFCURVE",
"173 411 CURVE SMOOTH",
"131 411 OFFCURVE",
"104 375 OFFCURVE",
"93 341 CURVE SMOOTH",
"90 333 OFFCURVE",
"85 332 OFFCURVE",
"65 344 CURVE SMOOTH",
"45 355 OFFCURVE",
"41 361 OFFCURVE",
"46 368 CURVE SMOOTH",
"64 395 OFFCURVE",
"99 442 OFFCURVE",
"174 442 CURVE SMOOTH",
"229 442 OFFCURVE",
"286 401 OFFCURVE",
"285 330 CURVE SMOOTH",
"283 226 OFFCURVE",
"193 206 OFFCURVE",
"188 201 CURVE SMOOTH",
"183 195 OFFCURVE",
"184 111 OFFCURVE",
"185 101 CURVE SMOOTH",
"185 97 OFFCURVE",
"184 93 OFFCURVE",
"167 93 CURVE SMOOTH",
"148 93 OFFCURVE",
"146 95 OFFCURVE",
"145 101 CURVE SMOOTH",
"145 101 LINE SMOOTH"
);
},
{
closed = 1;
nodes = (
"-63 403 OFFCURVE",
"-65 355 OFFCURVE",
"-66 346 CURVE SMOOTH",
"-90 151 LINE",
"-133 151 LINE",
"-156 346 LINE SMOOTH",
"-158 363 OFFCURVE",
"-159 405 OFFCURVE",
"-159 421 CURVE SMOOTH",
"-159 436 OFFCURVE",
"-156 442 OFFCURVE",
"-111 442 CURVE SMOOTH",
"-65 442 OFFCURVE",
"-63 433 OFFCURVE",
"-63 419 CURVE SMOOTH",
"-63 419 LINE SMOOTH"
);
},
{
closed = 1;
nodes = (
"217 18 OFFCURVE",
"195 -8 OFFCURVE",
"167 -8 CURVE SMOOTH",
"140 -8 OFFCURVE",
"117 18 OFFCURVE",
"117 56 CURVE SMOOTH",
"117 95 OFFCURVE",
"138 118 OFFCURVE",
"167 118 CURVE SMOOTH",
"195 118 OFFCURVE",
"217 93 OFFCURVE",
"217 56 CURVE SMOOTH",
"217 56 LINE SMOOTH"
);
}
);
};
layerId = "65425FA6-FA16-4213-8FC2-6D5B41D5C5D9";
paths = (
{
closed = 1;
nodes = (
"432 323 OFFCURVE",
"484 332 OFFCURVE",
"483 341 CURVE SMOOTH",
"481 362 OFFCURVE",
"477 429 OFFCURVE",
"489 442 CURVE SMOOTH",
"499 453 OFFCURVE",
"696 496 OFFCURVE",
"696 723 CURVE SMOOTH",
"696 893 OFFCURVE",
"567 969 OFFCURVE",
"411 969 CURVE SMOOTH",
"232 969 OFFCURVE",
"170 897 OFFCURVE",
"108 808 CURVE SMOOTH",
"95 789 OFFCURVE",
"96 765 OFFCURVE",
"169 740 CURVE SMOOTH",
"263 708 OFFCURVE",
"280 718 OFFCURVE",
"286 748 CURVE SMOOTH",
"303 834 OFFCURVE",
"322 910 OFFCURVE",
"386 910 CURVE SMOOTH {name = hr01;}",
"452 910 OFFCURVE",
"485 850 OFFCURVE",
"485 718 CURVE SMOOTH",
"485 544 OFFCURVE",
"332 499 OFFCURVE",
"323 487 CURVE SMOOTH",
"312 472 OFFCURVE",
"305 362 OFFCURVE",
"309 340 CURVE SMOOTH",
"312 327 OFFCURVE",
"356 323 OFFCURVE",
"396 323 CURVE SMOOTH"
);
},
{
closed = 1;
nodes = (
"456 -16 OFFCURVE",
"505 41 OFFCURVE",
"505 124 CURVE SMOOTH {name = hr02;}",
"505 205 OFFCURVE",
"457 260 OFFCURVE",
"395 260 CURVE SMOOTH",
"332 260 OFFCURVE",
"285 210 OFFCURVE",
"285 124 CURVE SMOOTH",
"285 39 OFFCURVE",
"336 -16 OFFCURVE",
"395 -16 CURVE SMOOTH"
);
}
);
userData = {
com.adobe.type.autohint = "b''";
};
width = 792;
}
);
unicode = 003F;
},
{
glyphname = at;
lastChange = "2021-04-06 16:12:05 +0000";
layers = (
{
background = {
paths = (
{
closed = 1;
nodes = (
"398 481 OFFCURVE",
"362 397 OFFCURVE",
"233 397 CURVE SMOOTH",
"103 397 OFFCURVE",
"68 485 OFFCURVE",
"68 562 CURVE SMOOTH",
"68 634 OFFCURVE",
"119 731 OFFCURVE",
"233 731 CURVE SMOOTH",
"361 731 OFFCURVE",
"398 637 OFFCURVE",
"398 562 CURVE SMOOTH",
"398 562 LINE SMOOTH"
);
},
{
closed = 1;
nodes = (
"165 692 OFFCURVE",
"134 623 OFFCURVE",
"134 562 CURVE SMOOTH",
"134 492 OFFCURVE",
"163 437 OFFCURVE",
"233 437 CURVE SMOOTH",
"312 437 OFFCURVE",
"333 492 OFFCURVE",
"333 562 CURVE SMOOTH",
"333 629 OFFCURVE",
"301 692 OFFCURVE",
"233 692 CURVE SMOOTH",
"233 692 LINE SMOOTH"
);
},
{
closed = 1;
nodes = (
"428 123 OFFCURVE",
"396 -8 OFFCURVE",
"233 -8 CURVE SMOOTH",
"71 -8 OFFCURVE",
"39 126 OFFCURVE",
"39 203 CURVE SMOOTH",
"39 321 OFFCURVE",
"91 437 OFFCURVE",
"233 437 CURVE SMOOTH",
"390 437 OFFCURVE",
"428 323 OFFCURVE",
"428 203 CURVE SMOOTH",
"428 203 LINE SMOOTH"
);
},
{
closed = 1;
nodes = (
"151 397 OFFCURVE",
"105 312 OFFCURVE",
"105 203 CURVE SMOOTH",
"105 105 OFFCURVE",
"152 31 OFFCURVE",
"233 31 CURVE SMOOTH",
"321 31 OFFCURVE",
"363 106 OFFCURVE",
"363 203 CURVE SMOOTH",
"363 318 OFFCURVE",
"318 397 OFFCURVE",
"233 397 CURVE SMOOTH",
"233 397 LINE SMOOTH"
);
},
{
closed = 1;
nodes = (
"398 481 OFFCURVE",
"362 397 OFFCURVE",
"233 397 CURVE SMOOTH",
"103 397 OFFCURVE",
"68 485 OFFCURVE",
"68 562 CURVE SMOOTH",
"68 634 OFFCURVE",
"119 731 OFFCURVE",
"233 731 CURVE SMOOTH",
"361 731 OFFCURVE",
"398 637 OFFCURVE",
"398 562 CURVE SMOOTH",
"398 562 LINE SMOOTH"
);
},
{
closed = 1;
nodes = (
"165 692 OFFCURVE",
"134 623 OFFCURVE",
"134 562 CURVE SMOOTH",
"134 492 OFFCURVE",
"163 437 OFFCURVE",
"233 437 CURVE SMOOTH",
"312 437 OFFCURVE",
"333 492 OFFCURVE",
"333 562 CURVE SMOOTH",
"333 629 OFFCURVE",
"301 692 OFFCURVE",
"233 692 CURVE SMOOTH",
"233 692 LINE SMOOTH"
);
},
{
closed = 1;
nodes = (
"428 123 OFFCURVE",
"396 -8 OFFCURVE",
"233 -8 CURVE SMOOTH",
"71 -8 OFFCURVE",
"39 126 OFFCURVE",
"39 203 CURVE SMOOTH",
"39 321 OFFCURVE",
"91 437 OFFCURVE",
"233 437 CURVE SMOOTH",
"390 437 OFFCURVE",
"428 323 OFFCURVE",
"428 203 CURVE SMOOTH",
"428 203 LINE SMOOTH"
);
},
{
closed = 1;
nodes = (
"151 397 OFFCURVE",
"105 312 OFFCURVE",
"105 203 CURVE SMOOTH",
"105 105 OFFCURVE",
"152 31 OFFCURVE",
"233 31 CURVE SMOOTH",
"321 31 OFFCURVE",
"363 106 OFFCURVE",
"363 203 CURVE SMOOTH",
"363 318 OFFCURVE",
"318 397 OFFCURVE",
"233 397 CURVE SMOOTH",
"233 397 LINE SMOOTH"
);
},
{
closed = 1;
nodes = (
"428 123 OFFCURVE",
"396 -8 OFFCURVE",
"233 -8 CURVE SMOOTH",
"71 -8 OFFCURVE",
"39 126 OFFCURVE",
"39 203 CURVE SMOOTH",
"39 291 OFFCURVE",
"68 378 OFFCURVE",
"143 417 CURVE",
"86 447 OFFCURVE",
"68 507 OFFCURVE",
"68 562 CURVE SMOOTH",
"68 634 OFFCURVE",
"119 731 OFFCURVE",
"233 731 CURVE SMOOTH",
"361 731 OFFCURVE",
"398 637 OFFCURVE",
"398 562 CURVE SMOOTH",
"398 506 OFFCURVE",
"381 448 OFFCURVE",
"327 418 CURVE",
"406 381 OFFCURVE",
"428 294 OFFCURVE",
"428 203 CURVE SMOOTH",
"428 203 LINE SMOOTH"
);
},
{
closed = 1;
nodes = (
"333 629 OFFCURVE",
"301 692 OFFCURVE",
"233 692 CURVE SMOOTH",
"165 692 OFFCURVE",
"134 623 OFFCURVE",
"134 562 CURVE SMOOTH",
"134 492 OFFCURVE",
"163 437 OFFCURVE",
"233 437 CURVE SMOOTH",
"312 437 OFFCURVE",
"333 492 OFFCURVE",
"333 562 CURVE SMOOTH",
"333 562 LINE SMOOTH"
);
},
{
closed = 1;
nodes = (
"363 318 OFFCURVE",
"318 397 OFFCURVE",
"233 397 CURVE SMOOTH",
"151 397 OFFCURVE",
"105 312 OFFCURVE",
"105 203 CURVE SMOOTH",
"105 105 OFFCURVE",
"152 31 OFFCURVE",
"233 31 CURVE SMOOTH",
"321 31 OFFCURVE",
"363 106 OFFCURVE",
"363 203 CURVE SMOOTH",
"363 203 LINE SMOOTH"
);
},
{
closed = 1;
nodes = (
"403 481 OFFCURVE",
"362 397 OFFCURVE",
"233 397 CURVE SMOOTH",
"103 397 OFFCURVE",
"63 485 OFFCURVE",
"63 562 CURVE SMOOTH",
"63 634 OFFCURVE",
"119 731 OFFCURVE",
"233 731 CURVE SMOOTH",
"361 731 OFFCURVE",
"403 637 OFFCURVE",
"403 562 CURVE SMOOTH",
"403 562 LINE SMOOTH"
);
},
{
closed = 1;
nodes = (
"165 692 OFFCURVE",
"129 623 OFFCURVE",
"129 562 CURVE SMOOTH",
"129 492 OFFCURVE",
"163 437 OFFCURVE",
"233 437 CURVE SMOOTH",
"312 437 OFFCURVE",
"338 492 OFFCURVE",
"338 562 CURVE SMOOTH",
"338 629 OFFCURVE",
"301 692 OFFCURVE",
"233 692 CURVE SMOOTH",
"233 692 LINE SMOOTH"
);
},
{
closed = 1;
nodes = (
"428 123 OFFCURVE",
"396 -8 OFFCURVE",
"233 -8 CURVE SMOOTH",
"71 -8 OFFCURVE",
"39 126 OFFCURVE",
"39 203 CURVE SMOOTH",
"39 321 OFFCURVE",
"91 437 OFFCURVE",
"233 437 CURVE SMOOTH",
"390 437 OFFCURVE",
"428 323 OFFCURVE",
"428 203 CURVE SMOOTH",
"428 203 LINE SMOOTH"
);
},
{
closed = 1;
nodes = (
"151 397 OFFCURVE",
"105 312 OFFCURVE",
"105 203 CURVE SMOOTH",
"105 105 OFFCURVE",
"152 31 OFFCURVE",
"233 31 CURVE SMOOTH",
"321 31 OFFCURVE",
"363 106 OFFCURVE",
"363 203 CURVE SMOOTH",
"363 318 OFFCURVE",
"318 397 OFFCURVE",
"233 397 CURVE SMOOTH",
"233 397 LINE SMOOTH"
);
}
);
};
layerId = "67B138FD-4947-43F2-9353-3B08A6E9966B";
paths = (
{
closed = 1;
nodes = (
"1523 -443 OFFCURVE",
"1785 -16 OFFCURVE",
"1836 171 CURVE",
"1779 171 LINE",
"1700 -8 OFFCURVE",
"1482 -380 OFFCURVE",
"975 -380 CURVE SMOOTH",
"443 -380 OFFCURVE",
"191 16 OFFCURVE",
"191 418 CURVE SMOOTH",
"191 979 OFFCURVE",
"587 1371 OFFCURVE",
"1048 1371 CURVE SMOOTH",
"1405 1371 OFFCURVE",
"1696 1141 OFFCURVE",
"1696 757 CURVE SMOOTH",
"1696 345 OFFCURVE",
"1432 102 OFFCURVE",
"1275 102 CURVE SMOOTH {name = hr01;}",
"1212 102 OFFCURVE",
"1198 158 OFFCURVE",
"1198 177 CURVE SMOOTH",
"1198 238 OFFCURVE",
"1249 408 OFFCURVE",
"1292 560 CURVE SMOOTH",
"1407 959 LINE",
"1251 936 LINE",
"1220 826 LINE",
"1210 873 OFFCURVE",
"1172 965 OFFCURVE",
"1046 965 CURVE SMOOTH",
"820 965 OFFCURVE",
"496 589 OFFCURVE",
"496 262 CURVE SMOOTH",
"496 118 OFFCURVE",
"583 32 OFFCURVE",
"676 32 CURVE SMOOTH",
"829 32 OFFCURVE",
"971 197 OFFCURVE",
"1070 315 CURVE",
"1042 154 OFFCURVE",
"1032 32 OFFCURVE",
"1206 32 CURVE SMOOTH",
"1515 32 OFFCURVE",
"1757 343 OFFCURVE",
"1757 737 CURVE SMOOTH",
"1757 1184 OFFCURVE",
"1432 1422 OFFCURVE",
"1042 1422 CURVE SMOOTH",
"607 1422 OFFCURVE",
"97 1090 OFFCURVE",
"97 445 CURVE SMOOTH",
"97 28 OFFCURVE",
"388 -443 OFFCURVE",
"969 -443 CURVE SMOOTH"
);
},
{
closed = 1;
nodes = (
"719 152 OFFCURVE",
"654 197 OFFCURVE",
"654 294 CURVE SMOOTH",
"654 465 OFFCURVE",
"861 918 OFFCURVE",
"1058 918 CURVE SMOOTH",
"1184 918 OFFCURVE",
"1227 767 OFFCURVE",
"1127 514 CURVE SMOOTH",
"1058 339 OFFCURVE",
"900 152 OFFCURVE",
"768 152 CURVE SMOOTH {name = hr02;}"
);
}
);
userData = {
com.adobe.type.autohint = "b''";
};
width = 1887;
},
{
background = {
paths = (
{
closed = 1;
nodes = (
"507 172 OFFCURVE",
"540 203 OFFCURVE",
"540 255 CURVE SMOOTH",
"540 296 OFFCURVE",
"509 322 OFFCURVE",
"470 322 CURVE SMOOTH",
"432 322 OFFCURVE",
"401 295 OFFCURVE",
"401 255 CURVE SMOOTH",
"401 202 OFFCURVE",
"432 175 OFFCURVE",
"470 133 CURVE",
"470 133 LINE"
);
},
{
closed = 1;
nodes = (
"640 5 OFFCURVE",
"610 -8 OFFCURVE",
"578 -8 CURVE SMOOTH",
"541 -8 OFFCURVE",
"501 8 OFFCURVE",
"470 40 CURVE",
"438 8 OFFCURVE",
"399 -8 OFFCURVE",
"363 -8 CURVE SMOOTH",
"332 -8 OFFCURVE",
"304 1 OFFCURVE",
"273 28 CURVE SMOOTH",
"257 43 OFFCURVE",
"254 54 OFFCURVE",
"273 91 CURVE SMOOTH",
"286 114 OFFCURVE",
"298 121 OFFCURVE",
"306 109 CURVE SMOOTH",
"325 83 OFFCURVE",
"337 72 OFFCURVE",
"364 72 CURVE SMOOTH",
"389 72 OFFCURVE",
"412 77 OFFCURVE",
"429 91 CURVE",
"383 151 OFFCURVE",
"344 200 OFFCURVE",
"344 272 CURVE SMOOTH",
"344 371 OFFCURVE",
"398 442 OFFCURVE",
"471 442 CURVE SMOOTH",
"538 442 OFFCURVE",
"597 371 OFFCURVE",
"597 272 CURVE SMOOTH",
"597 201 OFFCURVE",
"557 152 OFFCURVE",
"511 91 CURVE",
"524 79 OFFCURVE",
"548 72 OFFCURVE",
"577 72 CURVE SMOOTH",
"604 72 OFFCURVE",
"622 82 OFFCURVE",
"637 109 CURVE SMOOTH",
"642 118 OFFCURVE",
"654 116 OFFCURVE",
"667 91 CURVE SMOOTH",
"687 55 OFFCURVE",
"687 45 OFFCURVE",
"667 28 CURVE SMOOTH",
"667 28 LINE SMOOTH"
);
},
{
closed = 1;
nodes = (
"610 6 OFFCURVE",
"581 -8 OFFCURVE",
"548 -8 CURVE SMOOTH",
"511 -8 OFFCURVE",
"477 13 OFFCURVE",
"446 45 CURVE",
"410 21 OFFCURVE",
"345 -8 OFFCURVE",
"258 -8 CURVE SMOOTH",
"119 -8 OFFCURVE",
"32 48 OFFCURVE",
"32 135 CURVE SMOOTH",
"32 192 OFFCURVE",
"69 229 OFFCURVE",
"102 238 CURVE",
"71 250 OFFCURVE",
"42 279 OFFCURVE",
"42 322 CURVE SMOOTH",
"42 412 OFFCURVE",
"95 442 OFFCURVE",
"186 442 CURVE SMOOTH",
"236 442 OFFCURVE",
"276 409 OFFCURVE",
"302 376 CURVE SMOOTH",
"310 366 OFFCURVE",
"308 361 OFFCURVE",
"278 343 CURVE SMOOTH",
"248 325 OFFCURVE",
"240 331 OFFCURVE",
"236 341 CURVE SMOOTH",
"219 392 OFFCURVE",
"207 416 OFFCURVE",
"185 416 CURVE SMOOTH",
"160 416 OFFCURVE",
"139 386 OFFCURVE",
"139 336 CURVE SMOOTH",
"139 283 OFFCURVE",
"168 251 OFFCURVE",
"191 251 CURVE SMOOTH",
"206 251 OFFCURVE",
"218 251 OFFCURVE",
"228 249 CURVE SMOOTH",
"232 248 OFFCURVE",
"235 236 OFFCURVE",
"232 226 CURVE SMOOTH",
"229 215 OFFCURVE",
"224 206 OFFCURVE",
"220 208 CURVE SMOOTH",
"210 213 OFFCURVE",
"205 216 OFFCURVE",
"190 216 CURVE SMOOTH",
"175 216 OFFCURVE",
"142 197 OFFCURVE",
"142 129 CURVE SMOOTH",
"142 57 OFFCURVE",
"199 39 OFFCURVE",
"254 39 CURVE SMOOTH",
"321 39 OFFCURVE",
"377 74 OFFCURVE",
"409 91 CURVE",
"364 151 OFFCURVE",
"325 200 OFFCURVE",
"325 272 CURVE SMOOTH",
"325 371 OFFCURVE",
"364 442 OFFCURVE",
"446 442 CURVE SMOOTH",
"526 442 OFFCURVE",
"567 371 OFFCURVE",
"567 272 CURVE SMOOTH",
"567 201 OFFCURVE",
"523 152 OFFCURVE",
"477 91 CURVE",
"490 79 OFFCURVE",
"513 62 OFFCURVE",
"547 62 CURVE SMOOTH",
"579 62 OFFCURVE",
"594 73 OFFCURVE",
"611 99 CURVE SMOOTH",
"615 104 OFFCURVE",
"626 101 OFFCURVE",
"638 76 CURVE SMOOTH",
"649 54 OFFCURVE",
"649 37 OFFCURVE",
"638 28 CURVE SMOOTH",
"638 28 LINE SMOOTH"
);
},
{
closed = 1;
nodes = (
"506 292 OFFCURVE",
"485 322 OFFCURVE",
"446 322 CURVE SMOOTH",
"407 322 OFFCURVE",
"386 299 OFFCURVE",
"386 255 CURVE SMOOTH",
"386 202 OFFCURVE",
"412 182 OFFCURVE",
"446 133 CURVE",
"480 182 OFFCURVE",
"506 203 OFFCURVE",
"506 255 CURVE SMOOTH",
"506 255 LINE SMOOTH"
);
}
);
};
layerId = "65425FA6-FA16-4213-8FC2-6D5B41D5C5D9";
paths = (
{
closed = 1;
nodes = (
"1394 -443 OFFCURVE",
"1718 -203 OFFCURVE",
"1860 165 CURVE",
"1799 165 LINE",
"1681 -160 OFFCURVE",
"1367 -386 OFFCURVE",
"985 -386 CURVE SMOOTH",
"553 -386 OFFCURVE",
"195 -87 OFFCURVE",
"195 388 CURVE SMOOTH",
"195 889 OFFCURVE",
"540 1322 OFFCURVE",
"1088 1322 CURVE SMOOTH",
"1468 1322 OFFCURVE",
"1717 1051 OFFCURVE",
"1722 705 CURVE SMOOTH",
"1728 282 OFFCURVE",
"1407 71 OFFCURVE",
"1294 71 CURVE SMOOTH",
"1239 71 OFFCURVE",
"1210 114 OFFCURVE",
"1210 152 CURVE SMOOTH",
"1210 250 OFFCURVE",
"1253 361 OFFCURVE",
"1424 934 CURVE",
"1182 926 LINE",
"1145 812 LINE",
"1139 845 OFFCURVE",
"1127 963 OFFCURVE",
"1007 963 CURVE SMOOTH",
"774 963 OFFCURVE",
"485 567 OFFCURVE",
"485 225 CURVE SMOOTH",
"485 116 OFFCURVE",
"532 0 OFFCURVE",
"648 0 CURVE SMOOTH",
"810 0 OFFCURVE",
"904 162 OFFCURVE",
"1001 315 CURVE",
"984 263 OFFCURVE",
"975 219 OFFCURVE",
"975 181 CURVE SMOOTH",
"975 49 OFFCURVE",
"1069 0 OFFCURVE",
"1178 0 CURVE SMOOTH",
"1533 0 OFFCURVE",
"1779 335 OFFCURVE",
"1779 703 CURVE SMOOTH",
"1779 1093 OFFCURVE",
"1529 1385 OFFCURVE",
"1054 1385 CURVE SMOOTH",
"461 1385 OFFCURVE",
"93 962 OFFCURVE",
"93 433 CURVE SMOOTH",
"93 -101 OFFCURVE",
"490 -443 OFFCURVE",
"975 -443 CURVE SMOOTH"
);
},
{
closed = 1;
nodes = (
"762 185 OFFCURVE",
"745 234 OFFCURVE",
"745 274 CURVE SMOOTH",
"745 422 OFFCURVE",
"887 891 OFFCURVE",
"1030 891 CURVE SMOOTH",
"1084 891 OFFCURVE",
"1099 813 OFFCURVE",
"1099 755 CURVE SMOOTH",
"1099 514 OFFCURVE",
"904 185 OFFCURVE",
"796 185 CURVE SMOOTH {name = hr01;}"
);
}
);
userData = {
com.adobe.type.autohint = "b''";
};
width = 1905;
}
);
unicode = 0040;
},
{
glyphname = A;
lastChange = "2021-04-06 16:05:48 +0000";
layers = (
{
layerId = "67B138FD-4947-43F2-9353-3B08A6E9966B";
paths = (
{
closed = 1;
nodes = (
"443 0 LINE",
"443 37 LINE",
"254 53 OFFCURVE",
"267 117 OFFCURVE",
"319 238 CURVE SMOOTH",
"412 455 LINE",
"938 455 LINE",
"1019 260 LINE SMOOTH",
"1065 149 OFFCURVE",
"1109 41 OFFCURVE",
"922 37 CURVE",
"922 0 LINE",
"1456 0 LINE",
"1456 37 LINE",
"1344 45 OFFCURVE",
"1303 70 OFFCURVE",
"1223 260 CURVE SMOOTH",
"753 1387 LINE",
"717 1387 LINE",
"240 270 LINE SMOOTH",
"177 122 OFFCURVE",
"130 45 OFFCURVE",
"16 37 CURVE",
"16 0 LINE"
);
},
{
closed = 1;
nodes = (
"680 1078 LINE",
"910 528 LINE",
"443 528 LINE"
);
}
);
userData = {
com.adobe.type.autohint = "b''";
};
width = 1472;
},
{
layerId = "65425FA6-FA16-4213-8FC2-6D5B41D5C5D9";
paths = (
{
closed = 1;
nodes = (
"467 0 LINE",
"467 37 LINE",
"290 49 OFFCURVE",
"253 107 OFFCURVE",
"315 252 CURVE SMOOTH",
"372 386 LINE",
"853 386 LINE",
"940 177 LINE SMOOTH",
"981 77 OFFCURVE",
"973 37 OFFCURVE",
"802 37 CURVE",
"802 0 LINE",
"1456 0 LINE",
"1456 37 LINE",
"1385 39 OFFCURVE",
"1331 77 OFFCURVE",
"1259 240 CURVE SMOOTH",
"757 1385 LINE",
"737 1385 LINE",
"225 242 LINE SMOOTH",
"153 83 OFFCURVE",
"106 55 OFFCURVE",
"16 37 CURVE",
"16 0 LINE"
);
},
{
closed = 1;
nodes = (
"617 928 LINE",
"818 459 LINE",
"408 459 LINE"
);
}
);
userData = {
com.adobe.type.autohint = "b''";
};
width = 1480;
}
);
unicode = 0041;
},
{
glyphname = B;
lastChange = "2021-04-06 16:12:05 +0000";
layers = (
{
layerId = "67B138FD-4947-43F2-9353-3B08A6E9966B";
paths = (
{
closed = 1;
nodes = (
"674 0 LINE SMOOTH",
"906 0 OFFCURVE",
"1030 30 OFFCURVE",
"1117 99 CURVE SMOOTH",
"1205 168 OFFCURVE",
"1253 276 OFFCURVE",
"1253 370 CURVE SMOOTH",
"1253 524 OFFCURVE",
"1158 652 OFFCURVE",
"946 694 CURVE",
"1109 745 OFFCURVE",
"1192 861 OFFCURVE",
"1192 993 CURVE SMOOTH",
"1192 1155 OFFCURVE",
"1099 1355 OFFCURVE",
"621 1355 CURVE SMOOTH",
"35 1355 LINE",
"35 1320 LINE",
"85 1320 LINE SMOOTH",
"138 1320 OFFCURVE",
"176 1305 OFFCURVE",
"201 1277 CURVE SMOOTH",
"221 1254 OFFCURVE",
"229 1200 OFFCURVE",
"229 1117 CURVE SMOOTH",
"229 240 LINE SMOOTH",
"229 164 OFFCURVE",
"221 114 OFFCURVE",
"207 93 CURVE SMOOTH",
"182 55 OFFCURVE",
"142 37 OFFCURVE",
"85 37 CURVE SMOOTH",
"35 37 LINE {name = hr01;}",
"35 0 LINE"
);
},
{
closed = 1;
nodes = (
"575 71 OFFCURVE",
"500 81 OFFCURVE",
"422 99 CURVE",
"422 654 LINE",
"459 662 OFFCURVE",
"514 664 OFFCURVE",
"599 664 CURVE SMOOTH",
"875 664 OFFCURVE",
"1023 536 OFFCURVE",
"1023 355 CURVE SMOOTH {name = hr04;}",
"1023 189 OFFCURVE",
"892 71 OFFCURVE",
"652 71 CURVE SMOOTH"
);
},
{
closed = 1;
nodes = (
"534 733 OFFCURVE",
"473 735 OFFCURVE",
"422 747 CURVE",
"422 1269 LINE",
"475 1283 OFFCURVE",
"536 1289 OFFCURVE",
"603 1289 CURVE SMOOTH",
"859 1289 OFFCURVE",
"981 1157 OFFCURVE",
"981 1003 CURVE SMOOTH {name = hr03;}",
"981 833 OFFCURVE",
"877 733 OFFCURVE",
"613 733 CURVE SMOOTH"
);
}
);
userData = {
com.adobe.type.autohint = "b''";
};
width = 1332;
},
{
layerId = "65425FA6-FA16-4213-8FC2-6D5B41D5C5D9";
paths = (
{
closed = 1;
nodes = (
"788 0 LINE SMOOTH",
"1044 0 OFFCURVE",
"1294 127 OFFCURVE",
"1294 370 CURVE SMOOTH",
"1294 548 OFFCURVE",
"1182 666 OFFCURVE",
"908 719 CURVE {name = hr03;}",
"1194 790 OFFCURVE",
"1229 900 OFFCURVE",
"1229 1038 CURVE SMOOTH {name = hr02;}",
"1229 1174 OFFCURVE",
"1105 1355 OFFCURVE",
"798 1355 CURVE SMOOTH",
"41 1355 LINE",
"41 1318 LINE",
"205 1318 OFFCURVE",
"232 1283 OFFCURVE",
"232 1143 CURVE SMOOTH",
"232 213 LINE SMOOTH",
"232 73 OFFCURVE",
"205 37 OFFCURVE",
"41 37 CURVE {name = hr01;}",
"41 0 LINE"
);
},
{
closed = 1;
nodes = (
"583 75 OFFCURVE",
"548 99 OFFCURVE",
"548 193 CURVE SMOOTH",
"548 668 LINE",
"613 666 LINE SMOOTH",
"821 660 OFFCURVE",
"942 566 OFFCURVE",
"942 361 CURVE SMOOTH {name = hr05;}",
"942 156 OFFCURVE",
"784 75 OFFCURVE",
"658 75 CURVE SMOOTH"
);
},
{
closed = 1;
nodes = (
"548 1281 LINE",
"613 1279 LINE SMOOTH",
"827 1272 OFFCURVE",
"894 1162 OFFCURVE",
"894 1013 CURVE SMOOTH {name = hr04;}",
"894 858 OFFCURVE",
"804 754 OFFCURVE",
"613 749 CURVE SMOOTH",
"548 747 LINE"
);
}
);
userData = {
com.adobe.type.autohint = "b''";
};
width = 1367;
}
);
unicode = 0042;
},
{
glyphname = C;
lastChange = "2021-04-06 16:05:48 +0000";
layers = (
{
layerId = "67B138FD-4947-43F2-9353-3B08A6E9966B";
paths = (
{
closed = 1;
nodes = (
"989 -32 OFFCURVE",
"1160 81 OFFCURVE",
"1294 317 CURVE",
"1265 339 LINE",
"1105 112 OFFCURVE",
"989 57 OFFCURVE",
"810 57 CURVE SMOOTH",
"504 57 OFFCURVE",
"301 268 OFFCURVE",
"301 656 CURVE SMOOTH",
"301 1107 OFFCURVE",
"502 1316 OFFCURVE",
"780 1316 CURVE SMOOTH",
"991 1316 OFFCURVE",
"1151 1204 OFFCURVE",
"1233 926 CURVE",
"1265 926 LINE",
"1233 1387 LINE",
"1198 1387 LINE",
"1182 1324 OFFCURVE",
"1151 1292 OFFCURVE",
"1115 1292 CURVE SMOOTH",
"1074 1292 OFFCURVE",
"969 1387 OFFCURVE",
"764 1387 CURVE SMOOTH",
"349 1387 OFFCURVE",
"73 1052 OFFCURVE",
"73 658 CURVE SMOOTH",
"73 288 OFFCURVE",
"317 -32 OFFCURVE",
"733 -32 CURVE SMOOTH"
);
}
);
userData = {
com.adobe.type.autohint = "b''";
};
width = 1367;
},
{
layerId = "65425FA6-FA16-4213-8FC2-6D5B41D5C5D9";
paths = (
{
closed = 1;
nodes = (
"1103 -30 OFFCURVE",
"1223 69 OFFCURVE",
"1344 193 CURVE",
"1344 311 LINE",
"1180 138 OFFCURVE",
"1080 63 OFFCURVE",
"877 63 CURVE SMOOTH",
"563 63 OFFCURVE",
"439 335 OFFCURVE",
"439 678 CURVE SMOOTH",
"439 1021 OFFCURVE",
"589 1296 OFFCURVE",
"892 1296 CURVE SMOOTH {name = hr01;}",
"1088 1296 OFFCURVE",
"1271 1172 OFFCURVE",
"1330 918 CURVE",
"1369 918 LINE",
"1369 1387 LINE",
"1332 1387 LINE {name = hr02;}",
"1314 1334 OFFCURVE",
"1294 1287 OFFCURVE",
"1239 1287 CURVE SMOOTH",
"1200 1287 OFFCURVE",
"1038 1385 OFFCURVE",
"831 1385 CURVE SMOOTH",
"396 1385 OFFCURVE",
"81 1032 OFFCURVE",
"81 678 CURVE SMOOTH",
"81 323 OFFCURVE",
"286 -30 OFFCURVE",
"824 -30 CURVE SMOOTH"
);
}
);
userData = {
com.adobe.type.autohint = "b''";
};
width = 1480;
}
);
unicode = 0043;
},
{
glyphname = D;
lastChange = "2021-04-06 16:12:05 +0000";
layers = (
{
layerId = "67B138FD-4947-43F2-9353-3B08A6E9966B";
paths = (
{
closed = 1;
nodes = (
"642 0 LINE SMOOTH",
"1164 0 OFFCURVE",
"1401 305 OFFCURVE",
"1401 686 CURVE SMOOTH",
"1401 898 OFFCURVE",
"1319 1084 OFFCURVE",
"1192 1196 CURVE SMOOTH",
"1064 1309 OFFCURVE",
"887 1355 OFFCURVE",
"587 1355 CURVE SMOOTH",
"35 1355 LINE",
"35 1320 LINE",
"87 1320 LINE SMOOTH",
"138 1320 OFFCURVE",
"175 1304 OFFCURVE",
"203 1277 CURVE",
"221 1253 OFFCURVE",
"229 1200 OFFCURVE",
"229 1117 CURVE SMOOTH",
"229 240 LINE SMOOTH",
"229 164 OFFCURVE",
"220 115 OFFCURVE",
"207 93 CURVE SMOOTH",
"185 56 OFFCURVE",
"144 37 OFFCURVE",
"87 37 CURVE SMOOTH",
"35 37 LINE {name = hr01;}",
"35 0 LINE"
);
},
{
closed = 1;
nodes = (
"577 69 OFFCURVE",
"506 81 OFFCURVE",
"422 99 CURVE",
"422 1251 LINE",
"500 1273 OFFCURVE",
"567 1281 OFFCURVE",
"627 1281 CURVE SMOOTH {name = hr02;}",
"946 1281 OFFCURVE",
"1174 1050 OFFCURVE",
"1174 676 CURVE SMOOTH",
"1174 297 OFFCURVE",
"940 67 OFFCURVE",
"634 69 CURVE SMOOTH"
);
}
);
userData = {
com.adobe.type.autohint = "b''";
};
width = 1480;
},
{
layerId = "65425FA6-FA16-4213-8FC2-6D5B41D5C5D9";
paths = (
{
closed = 1;
nodes = (
"705 0 LINE SMOOTH",
"1131 0 OFFCURVE",
"1381 292 OFFCURVE",
"1381 678 CURVE SMOOTH",
"1381 1050 OFFCURVE",
"1131 1355 OFFCURVE",
"705 1355 CURVE SMOOTH",
"28 1355 LINE",
"28 1318 LINE",
"191 1318 OFFCURVE",
"219 1283 OFFCURVE",
"219 1143 CURVE SMOOTH",
"219 213 LINE SMOOTH",
"219 73 OFFCURVE",
"191 37 OFFCURVE",
"28 37 CURVE {name = hr01;}",
"28 0 LINE"
);
},
{
closed = 1;
nodes = (
"558 73 OFFCURVE",
"534 104 OFFCURVE",
"534 213 CURVE SMOOTH",
"534 1281 LINE",
"613 1281 LINE SMOOTH {name = hr02;}",
"932 1281 OFFCURVE",
"1021 963 OFFCURVE",
"1021 678 CURVE SMOOTH",
"1021 382 OFFCURVE",
"939 73 OFFCURVE",
"662 73 CURVE SMOOTH"
);
}
);
userData = {
com.adobe.type.autohint = "b''";
};
width = 1466;
}
);
unicode = 0044;
},
{
glyphname = E;
lastChange = "2021-04-06 16:05:48 +0000";
layers = (
{
layerId = "67B138FD-4947-43F2-9353-3B08A6E9966B";
paths = (
{
closed = 1;
nodes = (
"1088 0 LINE",
"1206 341 LINE",
"1164 341 LINE",
"1038 118 OFFCURVE",
"993 73 OFFCURVE",
"770 73 CURVE SMOOTH",
"542 73 LINE SMOOTH",
"414 73 OFFCURVE",
"428 138 OFFCURVE",
"428 225 CURVE SMOOTH",
"428 672 LINE",
"725 672 LINE SMOOTH",
"908 672 OFFCURVE",
"920 613 OFFCURVE",
"940 471 CURVE",
"977 471 LINE",
"977 942 LINE",
"940 942 LINE",
"920 804 OFFCURVE",
"910 747 OFFCURVE",
"725 747 CURVE SMOOTH",
"428 747 LINE",
"428 1283 LINE",
"802 1283 LINE SMOOTH {name = hr03;}",
"1042 1283 OFFCURVE",
"1034 1176 OFFCURVE",
"1064 1060 CURVE",
"1103 1060 LINE {name = hr02;}",
"1088 1355 LINE",
"43 1355 LINE",
"43 1320 LINE",
"91 1320 LINE SMOOTH",
"146 1320 OFFCURVE",
"187 1304 OFFCURVE",
"211 1279 CURVE SMOOTH",
"227 1261 OFFCURVE",
"236 1208 OFFCURVE",
"236 1121 CURVE SMOOTH",
"236 240 LINE SMOOTH",
"236 122 OFFCURVE",
"225 93 OFFCURVE",
"197 69 CURVE SMOOTH",
"169 45 OFFCURVE",
"112 37 OFFCURVE",
"91 37 CURVE SMOOTH",
"43 37 LINE {name = hr01;}",
"43 0 LINE"
);
}
);
userData = {
com.adobe.type.autohint = "b''";
};
width = 1251;
},
{
layerId = "65425FA6-FA16-4213-8FC2-6D5B41D5C5D9";
paths = (
{
closed = 1;
nodes = (
"1214 0 LINE",
"1273 430 LINE",
"1237 430 LINE",
"1141 142 OFFCURVE",
"1001 75 OFFCURVE",
"709 75 CURVE SMOOTH",
"571 75 OFFCURVE",
"548 106 OFFCURVE",
"548 213 CURVE SMOOTH",
"548 650 LINE {name = hr05;}",
"591 650 LINE SMOOTH",
"780 650 OFFCURVE",
"822 502 OFFCURVE",
"847 337 CURVE",
"885 337 LINE",
"885 1046 LINE {name = hr04;}",
"847 1046 LINE",
"826 867 OFFCURVE",
"780 727 OFFCURVE",
"591 727 CURVE SMOOTH",
"548 727 LINE",
"548 1281 LINE",
"717 1281 LINE SMOOTH {name = hr03;}",
"972 1281 OFFCURVE",
"1090 1214 OFFCURVE",
"1139 956 CURVE",
"1176 956 LINE {name = hr02;}",
"1176 1355 LINE",
"41 1355 LINE",
"41 1318 LINE",
"205 1318 OFFCURVE",
"232 1283 OFFCURVE",
"232 1143 CURVE SMOOTH",
"232 213 LINE SMOOTH",
"232 73 OFFCURVE",
"205 37 OFFCURVE",
"41 37 CURVE {name = hr01;}",
"41 0 LINE"
);
}
);
userData = {
com.adobe.type.autohint = "b''";
};
width = 1346;
}
);
unicode = 0045;
},
{
glyphname = F;
lastChange = "2021-04-06 16:05:48 +0000";
layers = (
{
layerId = "67B138FD-4947-43F2-9353-3B08A6E9966B";
paths = (
{
closed = 1;
nodes = (
"615 0 LINE",
"615 37 LINE",
"565 37 LINE SMOOTH",
"518 37 OFFCURVE",
"469 55 OFFCURVE",
"441 89 CURVE",
"422 108 OFFCURVE",
"420 154 OFFCURVE",
"420 240 CURVE SMOOTH",
"420 666 LINE",
"666 666 LINE SMOOTH",
"802 666 OFFCURVE",
"843 603 OFFCURVE",
"843 475 CURVE",
"881 475 LINE",
"881 934 LINE",
"843 934 LINE",
"824 794 OFFCURVE",
"784 751 OFFCURVE",
"666 751 CURVE SMOOTH",
"420 751 LINE",
"420 1283 LINE",
"719 1283 LINE SMOOTH {name = hr01;}",
"918 1283 OFFCURVE",
"971 1225 OFFCURVE",
"1021 1060 CURVE",
"1056 1060 LINE",
"1042 1355 LINE",
"33 1355 LINE {name = hr03;}",
"33 1320 LINE",
"83 1320 LINE SMOOTH {name = hr02;}",
"126 1320 OFFCURVE",
"171 1302 OFFCURVE",
"199 1275 CURVE SMOOTH",
"219 1255 OFFCURVE",
"227 1214 OFFCURVE",
"227 1117 CURVE SMOOTH",
"227 240 LINE SMOOTH",
"227 158 OFFCURVE",
"219 106 OFFCURVE",
"203 87 CURVE SMOOTH",
"176 53 OFFCURVE",
"138 37 OFFCURVE",
"83 37 CURVE SMOOTH",
"33 37 LINE",
"33 0 LINE"
);
}
);
userData = {
com.adobe.type.autohint = "b''";
};
width = 1139;
},
{
layerId = "65425FA6-FA16-4213-8FC2-6D5B41D5C5D9";
paths = (
{
closed = 1;
nodes = (
"741 0 LINE",
"741 37 LINE",
"567 37 OFFCURVE",
"548 81 OFFCURVE",
"548 213 CURVE SMOOTH",
"548 644 LINE",
"601 644 LINE SMOOTH",
"794 644 OFFCURVE",
"879 518 OFFCURVE",
"891 327 CURVE",
"926 327 LINE",
"926 1013 LINE",
"892 1013 LINE",
"871 833 OFFCURVE",
"794 721 OFFCURVE",
"601 721 CURVE SMOOTH",
"548 721 LINE",
"548 1281 LINE",
"727 1281 LINE SMOOTH {name = hr01;}",
"982 1281 OFFCURVE",
"1119 1210 OFFCURVE",
"1143 967 CURVE",
"1184 967 LINE",
"1184 1355 LINE",
"41 1355 LINE {name = hr03;}",
"41 1318 LINE {name = hr02;}",
"205 1318 OFFCURVE",
"232 1283 OFFCURVE",
"232 1143 CURVE SMOOTH",
"232 213 LINE SMOOTH",
"232 73 OFFCURVE",
"205 37 OFFCURVE",
"41 37 CURVE",
"41 0 LINE"
);
}
);
userData = {
com.adobe.type.autohint = "b''";
};
width = 1245;
}
);
unicode = 0046;
},
